<?xml version="1.0" encoding="utf-8"?>
<!-- Generator: Adobe Illustrator 16.0.0, SVG Export Plug-In . SVG Version: 6.00 Build 0)  -->
<!DOCTYPE svg PUBLIC "-//W3C//DTD SVG 1.1//EN" "http://www.w3.org/Graphics/SVG/1.1/DTD/svg11.dtd">
<svg version="1.1" xmlns="http://www.w3.org/2000/svg" xmlns:xlink="http://www.w3.org/1999/xlink" x="0px" y="0px"
	 width="676.373px" height="467.109px" viewBox="0 0 676.373 467.109" enable-background="new 0 0 676.373 467.109"
	 xml:space="preserve">
<g id="Layer_2">
</g>
<g id="Layer_1">
	<g>
		
			<rect x="5.565" y="5.565" fill="#337C98" stroke="#72B5CF" stroke-width="11.1307" stroke-linecap="round" stroke-linejoin="round" stroke-miterlimit="10" width="665.242" height="455.979"/>
		<g>
			<g>
				<path fill="#FFFFFF" d="M284.271,50.105v8.775c-1.101,0.81-2.273,1.402-3.518,1.777c-1.245,0.375-2.578,0.563-3.998,0.563
					c-1.77,0-3.373-0.275-4.807-0.825c-1.435-0.55-2.66-1.314-3.675-2.295s-1.797-2.15-2.347-3.51
					c-0.55-1.36-0.825-2.845-0.825-4.455c0-1.63,0.265-3.125,0.795-4.485c0.53-1.359,1.283-2.529,2.258-3.51
					c0.975-0.98,2.157-1.74,3.547-2.28c1.39-0.54,2.95-0.81,4.68-0.81c0.88,0,1.703,0.069,2.468,0.21
					c0.765,0.14,1.476,0.332,2.13,0.577s1.252,0.543,1.793,0.893c0.539,0.351,1.035,0.735,1.484,1.155l-1.154,1.83
					c-0.181,0.29-0.416,0.467-0.705,0.532c-0.291,0.065-0.605-0.008-0.945-0.218c-0.33-0.189-0.66-0.38-0.99-0.569
					c-0.33-0.19-0.697-0.355-1.103-0.495c-0.405-0.141-0.86-0.255-1.365-0.346c-0.505-0.09-1.087-0.135-1.748-0.135
					c-1.07,0-2.038,0.18-2.902,0.54c-0.865,0.36-1.603,0.875-2.213,1.545s-1.08,1.476-1.41,2.415c-0.33,0.94-0.495,1.99-0.495,3.15
					c0,1.24,0.177,2.348,0.533,3.322c0.354,0.975,0.855,1.8,1.5,2.475c0.645,0.676,1.422,1.19,2.333,1.545
					c0.91,0.355,1.925,0.533,3.045,0.533c0.8,0,1.514-0.085,2.145-0.255c0.63-0.17,1.244-0.4,1.845-0.69v-3.93h-2.73
					c-0.26,0-0.462-0.072-0.607-0.218c-0.145-0.145-0.217-0.322-0.217-0.532v-2.28H284.271z"/>
				<path fill="#FFFFFF" d="M294.216,45.351c1.139,0,2.177,0.185,3.111,0.555c0.936,0.37,1.735,0.896,2.4,1.575
					s1.178,1.51,1.537,2.49c0.36,0.979,0.541,2.075,0.541,3.285c0,1.22-0.181,2.319-0.541,3.3c-0.359,0.979-0.872,1.814-1.537,2.505
					c-0.665,0.689-1.465,1.22-2.4,1.59c-0.935,0.37-1.973,0.555-3.111,0.555c-1.15,0-2.195-0.185-3.136-0.555s-1.743-0.9-2.407-1.59
					c-0.666-0.69-1.18-1.525-1.545-2.505c-0.365-0.98-0.548-2.08-0.548-3.3c0-1.21,0.183-2.306,0.548-3.285
					c0.365-0.98,0.879-1.811,1.545-2.49c0.664-0.68,1.467-1.205,2.407-1.575S293.065,45.351,294.216,45.351z M294.216,58.355
					c1.279,0,2.227-0.43,2.842-1.29s0.922-2.12,0.922-3.78c0-1.659-0.307-2.925-0.922-3.795s-1.563-1.305-2.842-1.305
					c-1.301,0-2.264,0.438-2.889,1.313s-0.938,2.138-0.938,3.787c0,1.65,0.313,2.908,0.938,3.772
					C291.952,57.923,292.915,58.355,294.216,58.355z"/>
				<path fill="#FFFFFF" d="M308.39,38.69v22.29h-3.705V38.69H308.39z"/>
				<path fill="#FFFFFF" d="M318.905,45.351c1.139,0,2.177,0.185,3.111,0.555c0.936,0.37,1.735,0.896,2.4,1.575
					s1.178,1.51,1.537,2.49c0.36,0.979,0.541,2.075,0.541,3.285c0,1.22-0.181,2.319-0.541,3.3c-0.359,0.979-0.872,1.814-1.537,2.505
					c-0.665,0.689-1.465,1.22-2.4,1.59c-0.935,0.37-1.973,0.555-3.111,0.555c-1.15,0-2.195-0.185-3.136-0.555s-1.743-0.9-2.407-1.59
					c-0.666-0.69-1.18-1.525-1.545-2.505c-0.365-0.98-0.548-2.08-0.548-3.3c0-1.21,0.183-2.306,0.548-3.285
					c0.365-0.98,0.879-1.811,1.545-2.49c0.664-0.68,1.467-1.205,2.407-1.575S317.755,45.351,318.905,45.351z M318.905,58.355
					c1.279,0,2.227-0.43,2.842-1.29s0.922-2.12,0.922-3.78c0-1.659-0.307-2.925-0.922-3.795s-1.563-1.305-2.842-1.305
					c-1.301,0-2.264,0.438-2.889,1.313s-0.938,2.138-0.938,3.787c0,1.65,0.313,2.908,0.938,3.772
					C316.642,57.923,317.604,58.355,318.905,58.355z"/>
				<path fill="#FFFFFF" d="M332.794,47.48c0.311-0.31,0.639-0.598,0.982-0.862c0.346-0.265,0.711-0.49,1.096-0.675
					c0.385-0.186,0.797-0.33,1.237-0.436c0.44-0.104,0.92-0.157,1.44-0.157c0.84,0,1.584,0.143,2.234,0.428
					c0.65,0.284,1.193,0.685,1.628,1.199c0.435,0.516,0.765,1.131,0.989,1.846c0.226,0.715,0.338,1.502,0.338,2.362v9.795h-3.705
					v-9.795c0-0.939-0.215-1.667-0.645-2.183c-0.43-0.515-1.086-0.772-1.965-0.772c-0.641,0-1.24,0.146-1.801,0.435
					c-0.56,0.291-1.09,0.686-1.59,1.186v11.13h-3.705v-15.39h2.266c0.48,0,0.795,0.225,0.945,0.675L332.794,47.48z"/>
				<path fill="#FFFFFF" d="M359.614,38.69v22.29h-2.265c-0.49,0-0.8-0.225-0.931-0.675l-0.314-1.485
					c-0.62,0.71-1.332,1.285-2.138,1.726c-0.806,0.439-1.743,0.659-2.813,0.659c-0.84,0-1.61-0.175-2.31-0.524
					c-0.7-0.351-1.303-0.857-1.808-1.522s-0.896-1.487-1.171-2.468c-0.274-0.979-0.412-2.1-0.412-3.36
					c0-1.14,0.155-2.199,0.465-3.18c0.311-0.979,0.756-1.83,1.336-2.55s1.274-1.282,2.084-1.688c0.811-0.405,1.721-0.607,2.73-0.607
					c0.859,0,1.596,0.135,2.205,0.405c0.609,0.27,1.154,0.635,1.635,1.095V38.69H359.614z M355.909,49.521
					c-0.42-0.51-0.877-0.87-1.372-1.08s-1.028-0.315-1.598-0.315c-0.56,0-1.065,0.105-1.515,0.315
					c-0.45,0.21-0.836,0.527-1.155,0.952c-0.32,0.426-0.565,0.966-0.735,1.62c-0.17,0.655-0.255,1.428-0.255,2.317
					c0,0.9,0.073,1.663,0.218,2.288s0.353,1.135,0.623,1.53c0.27,0.395,0.6,0.68,0.989,0.854s0.825,0.263,1.306,0.263
					c0.77,0,1.424-0.16,1.965-0.48c0.539-0.319,1.049-0.774,1.529-1.364V49.521z"/>
				<path fill="#FFFFFF" d="M366.769,48.261c0.48-0.92,1.051-1.643,1.711-2.168c0.659-0.524,1.439-0.787,2.34-0.787
					c0.709,0,1.279,0.155,1.709,0.465l-0.239,2.775c-0.05,0.18-0.122,0.307-0.218,0.382s-0.223,0.112-0.383,0.112
					c-0.149,0-0.372-0.024-0.667-0.074c-0.296-0.05-0.583-0.075-0.862-0.075c-0.41,0-0.775,0.06-1.096,0.18
					s-0.607,0.293-0.862,0.518s-0.479,0.498-0.675,0.817c-0.195,0.32-0.377,0.686-0.547,1.095v9.48h-3.705v-15.39h2.174
					c0.381,0,0.646,0.067,0.795,0.202c0.15,0.135,0.25,0.378,0.301,0.728L366.769,48.261z"/>
				<path fill="#FFFFFF" d="M378.813,41.105c0,0.32-0.064,0.62-0.195,0.9c-0.129,0.279-0.302,0.524-0.518,0.734
					c-0.215,0.21-0.467,0.378-0.757,0.503s-0.601,0.188-0.931,0.188c-0.319,0-0.621-0.063-0.906-0.188s-0.533-0.293-0.743-0.503
					s-0.378-0.455-0.503-0.734c-0.125-0.28-0.188-0.58-0.188-0.9c0-0.33,0.063-0.64,0.188-0.93s0.293-0.54,0.503-0.75
					s0.458-0.378,0.743-0.503s0.587-0.188,0.906-0.188c0.33,0,0.641,0.063,0.931,0.188s0.542,0.293,0.757,0.503
					c0.216,0.21,0.389,0.46,0.518,0.75C378.749,40.466,378.813,40.775,378.813,41.105z M378.304,45.591v15.39h-3.72v-15.39H378.304z
					"/>
				<path fill="#FFFFFF" d="M385.548,47.48c0.311-0.31,0.639-0.598,0.982-0.862c0.346-0.265,0.711-0.49,1.096-0.675
					c0.385-0.186,0.797-0.33,1.237-0.436c0.44-0.104,0.92-0.157,1.44-0.157c0.84,0,1.584,0.143,2.234,0.428
					c0.65,0.284,1.193,0.685,1.628,1.199c0.435,0.516,0.765,1.131,0.989,1.846c0.226,0.715,0.338,1.502,0.338,2.362v9.795h-3.705
					v-9.795c0-0.939-0.215-1.667-0.645-2.183c-0.43-0.515-1.086-0.772-1.965-0.772c-0.641,0-1.24,0.146-1.801,0.435
					c-0.56,0.291-1.09,0.686-1.59,1.186v11.13h-3.705v-15.39h2.266c0.48,0,0.795,0.225,0.945,0.675L385.548,47.48z"/>
				<path fill="#FFFFFF" d="M398.644,47.735c1.77-1.62,3.9-2.43,6.39-2.43c0.899,0,1.705,0.147,2.415,0.442s1.311,0.705,1.801,1.229
					c0.489,0.525,0.861,1.153,1.117,1.883c0.254,0.73,0.383,1.53,0.383,2.4v9.72h-1.681c-0.351,0-0.62-0.053-0.81-0.157
					c-0.19-0.105-0.34-0.317-0.451-0.638l-0.329-1.11c-0.39,0.351-0.771,0.658-1.14,0.923c-0.371,0.265-0.756,0.487-1.156,0.667
					c-0.399,0.181-0.826,0.317-1.281,0.413c-0.455,0.095-0.958,0.143-1.508,0.143c-0.65,0-1.25-0.088-1.801-0.263
					c-0.549-0.175-1.024-0.438-1.424-0.787c-0.4-0.351-0.711-0.785-0.931-1.306c-0.22-0.52-0.33-1.125-0.33-1.814
					c0-0.391,0.065-0.777,0.195-1.163c0.13-0.385,0.343-0.752,0.638-1.103c0.295-0.35,0.677-0.68,1.146-0.989
					c0.471-0.311,1.048-0.58,1.732-0.811c0.686-0.229,1.482-0.417,2.393-0.563c0.91-0.145,1.951-0.232,3.121-0.263v-0.899
					c0-1.03-0.221-1.793-0.66-2.288c-0.44-0.495-1.075-0.742-1.905-0.742c-0.601,0-1.098,0.07-1.493,0.21
					c-0.395,0.141-0.742,0.298-1.042,0.473s-0.572,0.332-0.817,0.473c-0.245,0.14-0.518,0.21-0.817,0.21
					c-0.261,0-0.479-0.067-0.66-0.203c-0.181-0.135-0.325-0.292-0.435-0.472L398.644,47.735z M407.134,54.41
					c-1.07,0.051-1.971,0.143-2.701,0.277c-0.729,0.136-1.314,0.308-1.754,0.518c-0.44,0.21-0.756,0.455-0.945,0.735
					s-0.285,0.585-0.285,0.915c0,0.65,0.192,1.115,0.578,1.395c0.385,0.28,0.887,0.421,1.507,0.421c0.76,0,1.417-0.138,1.973-0.413
					c0.556-0.274,1.097-0.692,1.628-1.252V54.41z"/>
			</g>
		</g>
		<g>
			<g>
				<path fill="#FFFFFF" d="M50.125,130.745c0.06,0.791,0.2,1.473,0.42,2.048c0.22,0.575,0.51,1.05,0.87,1.425
					c0.36,0.375,0.787,0.655,1.282,0.84c0.495,0.186,1.042,0.278,1.643,0.278s1.118-0.07,1.552-0.21
					c0.435-0.141,0.815-0.295,1.14-0.466c0.325-0.17,0.61-0.324,0.855-0.465c0.245-0.14,0.482-0.21,0.712-0.21
					c0.31,0,0.54,0.115,0.69,0.346l1.065,1.35c-0.41,0.479-0.87,0.883-1.38,1.207c-0.51,0.325-1.042,0.585-1.597,0.78
					c-0.555,0.195-1.12,0.332-1.695,0.413c-0.575,0.079-1.132,0.119-1.672,0.119c-1.07,0-2.065-0.178-2.985-0.532
					c-0.92-0.354-1.72-0.88-2.4-1.575c-0.68-0.694-1.215-1.555-1.605-2.58c-0.39-1.024-0.585-2.212-0.585-3.563
					c0-1.05,0.17-2.037,0.51-2.962s0.827-1.73,1.462-2.415s1.41-1.228,2.325-1.628c0.915-0.399,1.947-0.6,3.097-0.6
					c0.97,0,1.865,0.155,2.685,0.465c0.82,0.311,1.525,0.763,2.115,1.357c0.59,0.595,1.052,1.325,1.387,2.19
					s0.503,1.853,0.503,2.962c0,0.561-0.06,0.938-0.18,1.133s-0.35,0.292-0.69,0.292H50.125z M57.19,128.511
					c0-0.48-0.067-0.933-0.203-1.357c-0.135-0.425-0.337-0.798-0.607-1.118c-0.27-0.319-0.613-0.572-1.027-0.757
					c-0.416-0.186-0.898-0.277-1.448-0.277c-1.07,0-1.913,0.305-2.527,0.915c-0.615,0.609-1.008,1.475-1.178,2.595H57.19z"/>
				<path fill="#FFFFFF" d="M66.76,124.476c0.31-0.31,0.638-0.598,0.982-0.862c0.345-0.265,0.71-0.49,1.095-0.675
					c0.385-0.186,0.797-0.33,1.237-0.436c0.44-0.104,0.92-0.157,1.44-0.157c0.84,0,1.585,0.143,2.235,0.428
					c0.65,0.284,1.192,0.685,1.627,1.199c0.435,0.516,0.765,1.131,0.99,1.846c0.225,0.715,0.338,1.502,0.338,2.362v9.795H73v-9.795
					c0-0.939-0.215-1.667-0.645-2.183c-0.43-0.515-1.085-0.772-1.965-0.772c-0.64,0-1.24,0.146-1.8,0.435
					c-0.56,0.291-1.09,0.686-1.59,1.186v11.13h-3.705v-15.39h2.265c0.48,0,0.795,0.225,0.945,0.675L66.76,124.476z"/>
				<path fill="#FFFFFF" d="M83.065,130.745c0.06,0.791,0.2,1.473,0.42,2.048c0.22,0.575,0.51,1.05,0.87,1.425
					c0.36,0.375,0.787,0.655,1.282,0.84c0.495,0.186,1.042,0.278,1.643,0.278s1.118-0.07,1.552-0.21
					c0.435-0.141,0.815-0.295,1.14-0.466c0.325-0.17,0.61-0.324,0.855-0.465c0.245-0.14,0.482-0.21,0.712-0.21
					c0.31,0,0.54,0.115,0.69,0.346l1.065,1.35c-0.41,0.479-0.87,0.883-1.38,1.207c-0.51,0.325-1.042,0.585-1.597,0.78
					c-0.555,0.195-1.12,0.332-1.695,0.413c-0.575,0.079-1.132,0.119-1.672,0.119c-1.07,0-2.065-0.178-2.985-0.532
					c-0.92-0.354-1.72-0.88-2.4-1.575c-0.68-0.694-1.215-1.555-1.605-2.58c-0.39-1.024-0.585-2.212-0.585-3.563
					c0-1.05,0.17-2.037,0.51-2.962s0.827-1.73,1.462-2.415s1.41-1.228,2.325-1.628c0.915-0.399,1.947-0.6,3.097-0.6
					c0.97,0,1.865,0.155,2.685,0.465c0.82,0.311,1.525,0.763,2.115,1.357c0.59,0.595,1.052,1.325,1.387,2.19
					s0.503,1.853,0.503,2.962c0,0.561-0.06,0.938-0.18,1.133s-0.35,0.292-0.69,0.292H83.065z M90.13,128.511
					c0-0.48-0.067-0.933-0.203-1.357c-0.135-0.425-0.337-0.798-0.607-1.118c-0.27-0.319-0.613-0.572-1.027-0.757
					c-0.416-0.186-0.898-0.277-1.448-0.277c-1.07,0-1.913,0.305-2.527,0.915c-0.615,0.609-1.008,1.475-1.178,2.595H90.13z"/>
				<path fill="#FFFFFF" d="M99.73,125.256c0.48-0.92,1.05-1.643,1.71-2.168c0.66-0.524,1.44-0.787,2.34-0.787
					c0.71,0,1.28,0.155,1.71,0.465l-0.24,2.775c-0.05,0.18-0.123,0.307-0.218,0.382s-0.223,0.112-0.382,0.112
					c-0.15,0-0.373-0.024-0.667-0.074c-0.295-0.05-0.583-0.075-0.863-0.075c-0.41,0-0.775,0.06-1.095,0.18
					c-0.32,0.12-0.607,0.293-0.863,0.518c-0.255,0.225-0.48,0.498-0.675,0.817c-0.195,0.32-0.377,0.686-0.547,1.095v9.48h-3.705
					v-15.39h2.175c0.38,0,0.645,0.067,0.795,0.202c0.15,0.135,0.25,0.378,0.3,0.728L99.73,125.256z"/>
				<path fill="#FFFFFF" d="M120.76,123.11v1.38c0,0.44-0.265,0.711-0.795,0.811l-1.38,0.255c0.21,0.53,0.315,1.11,0.315,1.74
					c0,0.76-0.153,1.447-0.458,2.063c-0.305,0.614-0.728,1.138-1.268,1.567s-1.178,0.763-1.913,0.997
					c-0.735,0.235-1.528,0.353-2.377,0.353c-0.3,0-0.59-0.015-0.87-0.045c-0.28-0.03-0.555-0.069-0.825-0.12
					c-0.48,0.29-0.72,0.615-0.72,0.976c0,0.31,0.143,0.537,0.427,0.683c0.285,0.145,0.663,0.247,1.133,0.307
					c0.47,0.061,1.005,0.098,1.605,0.113c0.6,0.015,1.215,0.047,1.845,0.097c0.63,0.051,1.245,0.138,1.845,0.263
					s1.135,0.322,1.605,0.593c0.47,0.27,0.848,0.638,1.132,1.103c0.285,0.465,0.428,1.063,0.428,1.792
					c0,0.681-0.167,1.341-0.502,1.98c-0.335,0.64-0.82,1.21-1.455,1.71c-0.635,0.5-1.415,0.902-2.34,1.207
					c-0.925,0.306-1.978,0.458-3.158,0.458c-1.16,0-2.17-0.112-3.03-0.338c-0.86-0.225-1.575-0.524-2.145-0.899
					c-0.57-0.375-0.995-0.808-1.275-1.298c-0.28-0.49-0.42-1-0.42-1.53c0-0.72,0.218-1.322,0.653-1.807
					c0.435-0.485,1.032-0.873,1.792-1.163c-0.41-0.21-0.735-0.489-0.975-0.84c-0.24-0.35-0.36-0.81-0.36-1.38
					c0-0.23,0.042-0.468,0.127-0.713c0.084-0.245,0.21-0.487,0.375-0.728c0.165-0.239,0.372-0.467,0.623-0.683
					c0.25-0.215,0.545-0.407,0.885-0.577c-0.78-0.42-1.393-0.979-1.837-1.68c-0.445-0.7-0.667-1.521-0.667-2.46
					c0-0.76,0.152-1.448,0.458-2.063c0.305-0.615,0.729-1.141,1.275-1.575c0.545-0.436,1.19-0.768,1.935-0.998
					c0.745-0.229,1.557-0.345,2.438-0.345c0.66,0,1.28,0.067,1.86,0.203c0.58,0.135,1.11,0.332,1.59,0.592H120.76z M117.07,138.666
					c0-0.301-0.09-0.546-0.27-0.735c-0.18-0.189-0.425-0.338-0.735-0.442c-0.31-0.105-0.672-0.183-1.087-0.232
					s-0.855-0.088-1.32-0.112c-0.465-0.025-0.945-0.048-1.44-0.068c-0.495-0.02-0.978-0.06-1.448-0.119
					c-0.41,0.229-0.742,0.5-0.998,0.81c-0.255,0.31-0.382,0.67-0.382,1.08c0,0.27,0.067,0.522,0.203,0.758
					c0.135,0.234,0.35,0.437,0.645,0.607c0.295,0.17,0.677,0.302,1.147,0.397c0.47,0.095,1.045,0.143,1.725,0.143
					c0.69,0,1.285-0.053,1.785-0.158c0.5-0.104,0.913-0.25,1.238-0.435c0.325-0.186,0.563-0.405,0.712-0.66
					S117.07,138.966,117.07,138.666z M112.885,129.905c0.46,0,0.86-0.063,1.2-0.188s0.623-0.297,0.848-0.518
					c0.225-0.22,0.395-0.484,0.51-0.795c0.115-0.31,0.172-0.649,0.172-1.02c0-0.76-0.228-1.362-0.683-1.808
					s-1.138-0.668-2.047-0.668c-0.91,0-1.593,0.223-2.047,0.668c-0.456,0.445-0.683,1.048-0.683,1.808
					c0,0.359,0.057,0.695,0.172,1.005c0.115,0.31,0.285,0.577,0.51,0.803c0.225,0.225,0.51,0.399,0.855,0.524
					C112.037,129.843,112.435,129.905,112.885,129.905z"/>
				<path fill="#FFFFFF" d="M127.45,118.101c0,0.32-0.065,0.62-0.195,0.9c-0.13,0.279-0.302,0.524-0.518,0.734
					c-0.215,0.21-0.467,0.378-0.757,0.503s-0.6,0.188-0.93,0.188c-0.32,0-0.622-0.063-0.907-0.188s-0.533-0.293-0.743-0.503
					s-0.377-0.455-0.502-0.734c-0.125-0.28-0.188-0.58-0.188-0.9c0-0.33,0.063-0.64,0.188-0.93s0.292-0.54,0.502-0.75
					s0.458-0.378,0.743-0.503s0.587-0.188,0.907-0.188c0.33,0,0.64,0.063,0.93,0.188s0.542,0.293,0.757,0.503
					c0.215,0.21,0.388,0.46,0.518,0.75S127.45,117.771,127.45,118.101z M126.939,122.586v15.39h-3.72v-15.39H126.939z"/>
				<path fill="#FFFFFF" d="M130.36,124.73c1.77-1.62,3.9-2.43,6.39-2.43c0.9,0,1.705,0.147,2.415,0.442s1.31,0.705,1.8,1.229
					c0.49,0.525,0.862,1.153,1.117,1.883c0.255,0.73,0.383,1.53,0.383,2.4v9.72h-1.68c-0.35,0-0.62-0.053-0.81-0.157
					c-0.19-0.105-0.34-0.317-0.45-0.638l-0.33-1.11c-0.39,0.351-0.771,0.658-1.14,0.923c-0.37,0.265-0.755,0.487-1.155,0.667
					c-0.4,0.181-0.827,0.317-1.282,0.413c-0.455,0.095-0.958,0.143-1.507,0.143c-0.65,0-1.25-0.088-1.8-0.263
					s-1.025-0.438-1.425-0.787c-0.4-0.351-0.71-0.785-0.93-1.306c-0.22-0.52-0.33-1.125-0.33-1.814c0-0.391,0.065-0.777,0.195-1.163
					c0.13-0.385,0.342-0.752,0.637-1.103c0.295-0.35,0.677-0.68,1.147-0.989c0.47-0.311,1.047-0.58,1.732-0.811
					c0.685-0.229,1.482-0.417,2.393-0.563c0.91-0.145,1.95-0.232,3.12-0.263v-0.899c0-1.03-0.22-1.793-0.66-2.288
					s-1.075-0.742-1.905-0.742c-0.6,0-1.098,0.07-1.493,0.21c-0.395,0.141-0.742,0.298-1.042,0.473
					c-0.3,0.175-0.572,0.332-0.817,0.473c-0.245,0.14-0.518,0.21-0.817,0.21c-0.26,0-0.48-0.067-0.66-0.203
					c-0.18-0.135-0.325-0.292-0.435-0.472L130.36,124.73z M138.85,131.405c-1.07,0.051-1.97,0.143-2.7,0.277
					c-0.73,0.136-1.315,0.308-1.755,0.518s-0.755,0.455-0.945,0.735s-0.285,0.585-0.285,0.915c0,0.65,0.192,1.115,0.578,1.395
					c0.385,0.28,0.887,0.421,1.507,0.421c0.76,0,1.417-0.138,1.973-0.413c0.555-0.274,1.097-0.692,1.627-1.252V131.405z"/>
			</g>
		</g>
		<g>
			<g>
				<path fill="#FFFFFF" d="M58.301,188.582c-0.11,0.14-0.217,0.25-0.322,0.33s-0.258,0.12-0.458,0.12
					c-0.19,0-0.375-0.058-0.555-0.173s-0.395-0.245-0.645-0.39c-0.25-0.146-0.547-0.275-0.893-0.391
					c-0.345-0.114-0.772-0.172-1.282-0.172c-0.65,0-1.22,0.117-1.71,0.353c-0.49,0.234-0.898,0.572-1.223,1.012
					c-0.325,0.44-0.568,0.973-0.728,1.598c-0.16,0.625-0.24,1.333-0.24,2.123c0,0.819,0.087,1.55,0.263,2.189
					c0.175,0.641,0.428,1.178,0.757,1.612c0.33,0.436,0.73,0.766,1.2,0.99c0.47,0.226,1,0.338,1.59,0.338s1.067-0.072,1.433-0.218
					c0.365-0.145,0.672-0.305,0.922-0.48c0.25-0.175,0.467-0.334,0.653-0.479c0.185-0.145,0.392-0.218,0.623-0.218
					c0.3,0,0.525,0.115,0.675,0.346l1.065,1.35c-0.41,0.479-0.855,0.883-1.335,1.207c-0.48,0.325-0.978,0.585-1.493,0.78
					s-1.045,0.332-1.59,0.413c-0.545,0.079-1.087,0.119-1.627,0.119c-0.95,0-1.845-0.178-2.685-0.532s-1.575-0.872-2.205-1.553
					c-0.63-0.68-1.127-1.512-1.492-2.497c-0.365-0.985-0.548-2.107-0.548-3.367c0-1.13,0.163-2.178,0.488-3.143
					c0.325-0.965,0.802-1.801,1.432-2.505c0.63-0.705,1.41-1.258,2.34-1.658c0.93-0.399,2-0.6,3.21-0.6
					c1.15,0,2.157,0.185,3.022,0.555c0.865,0.37,1.643,0.9,2.333,1.59L58.301,188.582z"/>
				<path fill="#FFFFFF" d="M66.086,180.842c0,0.32-0.065,0.62-0.195,0.9c-0.13,0.279-0.302,0.524-0.518,0.734
					c-0.215,0.21-0.467,0.378-0.757,0.503s-0.6,0.188-0.93,0.188c-0.32,0-0.622-0.063-0.907-0.188s-0.533-0.293-0.743-0.503
					s-0.377-0.455-0.502-0.734c-0.125-0.28-0.188-0.58-0.188-0.9c0-0.33,0.063-0.64,0.188-0.93s0.292-0.54,0.502-0.75
					s0.458-0.378,0.743-0.503s0.587-0.188,0.907-0.188c0.33,0,0.64,0.063,0.93,0.188s0.542,0.293,0.757,0.503
					c0.215,0.21,0.388,0.46,0.518,0.75S66.086,180.512,66.086,180.842z M65.576,185.327v15.39h-3.72v-15.39H65.576z"/>
				<path fill="#FFFFFF" d="M82.615,185.327v15.39h-2.265c-0.49,0-0.8-0.225-0.93-0.675l-0.255-1.23
					c-0.63,0.641-1.325,1.158-2.085,1.553c-0.76,0.395-1.655,0.593-2.685,0.593c-0.84,0-1.583-0.143-2.228-0.428
					s-1.188-0.688-1.627-1.207c-0.44-0.521-0.772-1.138-0.998-1.853s-0.337-1.503-0.337-2.363v-9.779h3.705v9.779
					c0,0.94,0.218,1.668,0.653,2.183c0.435,0.516,1.087,0.772,1.958,0.772c0.64,0,1.24-0.143,1.8-0.427
					c0.56-0.285,1.09-0.678,1.59-1.178v-11.13H82.615z"/>
				<path fill="#FFFFFF" d="M99.64,178.427v22.29h-2.265c-0.49,0-0.8-0.225-0.93-0.675l-0.315-1.485
					c-0.62,0.71-1.333,1.285-2.138,1.726c-0.805,0.439-1.743,0.659-2.813,0.659c-0.84,0-1.61-0.175-2.31-0.524
					c-0.7-0.351-1.302-0.857-1.807-1.522c-0.505-0.665-0.895-1.487-1.17-2.468c-0.275-0.979-0.412-2.1-0.412-3.36
					c0-1.14,0.155-2.199,0.465-3.18c0.31-0.979,0.755-1.83,1.335-2.55s1.275-1.282,2.085-1.688s1.72-0.607,2.73-0.607
					c0.86,0,1.595,0.135,2.205,0.405c0.61,0.27,1.155,0.635,1.635,1.095v-8.115H99.64z M95.936,189.257
					c-0.42-0.51-0.878-0.87-1.373-1.08c-0.495-0.21-1.028-0.315-1.598-0.315c-0.56,0-1.065,0.105-1.515,0.315
					c-0.45,0.21-0.835,0.527-1.155,0.952c-0.32,0.426-0.565,0.966-0.735,1.62c-0.17,0.655-0.255,1.428-0.255,2.317
					c0,0.9,0.073,1.663,0.218,2.288c0.145,0.625,0.353,1.135,0.623,1.53c0.27,0.395,0.6,0.68,0.99,0.854s0.825,0.263,1.305,0.263
					c0.77,0,1.425-0.16,1.965-0.48c0.54-0.319,1.05-0.774,1.53-1.364V189.257z"/>
				<path fill="#FFFFFF" d="M102.94,187.472c1.77-1.62,3.9-2.43,6.39-2.43c0.9,0,1.705,0.147,2.415,0.442s1.31,0.705,1.8,1.229
					c0.49,0.525,0.862,1.153,1.117,1.883c0.255,0.73,0.383,1.53,0.383,2.4v9.72h-1.68c-0.35,0-0.62-0.053-0.81-0.157
					c-0.19-0.105-0.34-0.317-0.45-0.638l-0.33-1.11c-0.39,0.351-0.771,0.658-1.14,0.923c-0.37,0.265-0.755,0.487-1.155,0.667
					c-0.4,0.181-0.827,0.317-1.282,0.413c-0.455,0.095-0.958,0.143-1.507,0.143c-0.65,0-1.25-0.088-1.8-0.263
					s-1.025-0.438-1.425-0.787c-0.4-0.351-0.71-0.785-0.93-1.306c-0.22-0.52-0.33-1.125-0.33-1.814c0-0.391,0.065-0.777,0.195-1.163
					c0.13-0.385,0.342-0.752,0.637-1.103c0.295-0.35,0.677-0.68,1.147-0.989c0.47-0.311,1.047-0.58,1.732-0.811
					c0.685-0.229,1.482-0.417,2.393-0.563c0.91-0.145,1.95-0.232,3.12-0.263v-0.899c0-1.03-0.22-1.793-0.66-2.288
					s-1.075-0.742-1.905-0.742c-0.6,0-1.098,0.07-1.493,0.21c-0.395,0.141-0.742,0.298-1.042,0.473
					c-0.3,0.175-0.572,0.332-0.817,0.473c-0.245,0.14-0.518,0.21-0.817,0.21c-0.26,0-0.48-0.067-0.66-0.203
					c-0.18-0.135-0.325-0.292-0.435-0.472L102.94,187.472z M111.43,194.146c-1.07,0.051-1.97,0.143-2.7,0.277
					c-0.73,0.136-1.315,0.308-1.755,0.518s-0.755,0.455-0.945,0.735s-0.285,0.585-0.285,0.915c0,0.65,0.192,1.115,0.578,1.395
					c0.385,0.28,0.887,0.421,1.507,0.421c0.76,0,1.417-0.138,1.973-0.413c0.555-0.274,1.097-0.692,1.627-1.252V194.146z"/>
				<path fill="#FFFFFF" d="M131.89,178.427v22.29h-2.265c-0.49,0-0.8-0.225-0.93-0.675l-0.315-1.485
					c-0.62,0.71-1.333,1.285-2.138,1.726c-0.805,0.439-1.743,0.659-2.813,0.659c-0.84,0-1.61-0.175-2.31-0.524
					c-0.7-0.351-1.302-0.857-1.807-1.522c-0.505-0.665-0.895-1.487-1.17-2.468c-0.275-0.979-0.412-2.1-0.412-3.36
					c0-1.14,0.155-2.199,0.465-3.18c0.31-0.979,0.755-1.83,1.335-2.55s1.275-1.282,2.085-1.688s1.72-0.607,2.73-0.607
					c0.86,0,1.595,0.135,2.205,0.405c0.61,0.27,1.155,0.635,1.635,1.095v-8.115H131.89z M128.185,189.257
					c-0.42-0.51-0.878-0.87-1.373-1.08c-0.495-0.21-1.028-0.315-1.598-0.315c-0.56,0-1.065,0.105-1.515,0.315
					c-0.45,0.21-0.835,0.527-1.155,0.952c-0.32,0.426-0.565,0.966-0.735,1.62c-0.17,0.655-0.255,1.428-0.255,2.317
					c0,0.9,0.073,1.663,0.218,2.288c0.145,0.625,0.353,1.135,0.623,1.53c0.27,0.395,0.6,0.68,0.99,0.854s0.825,0.263,1.305,0.263
					c0.77,0,1.425-0.16,1.965-0.48c0.54-0.319,1.05-0.774,1.53-1.364V189.257z"/>
			</g>
		</g>
		<g>
			<g>
				<g>
					<path fill="#FFFFFF" d="M58.346,295.985v2.4h-11.82v-2.4H58.346z"/>
					<path fill="#FFFFFF" d="M72.341,295.985v2.4h-11.82v-2.4H72.341z"/>
					<path fill="#FFFFFF" d="M79.616,274.101c0,0.32-0.065,0.62-0.195,0.9c-0.13,0.279-0.302,0.524-0.518,0.734
						c-0.215,0.21-0.467,0.378-0.757,0.503s-0.6,0.188-0.93,0.188c-0.32,0-0.622-0.063-0.907-0.188s-0.533-0.293-0.743-0.503
						s-0.377-0.455-0.502-0.734c-0.125-0.28-0.188-0.58-0.188-0.9c0-0.33,0.063-0.64,0.188-0.93s0.292-0.54,0.502-0.75
						s0.458-0.378,0.743-0.503s0.587-0.188,0.907-0.188c0.33,0,0.64,0.063,0.93,0.188s0.542,0.293,0.757,0.503
						c0.215,0.21,0.388,0.46,0.518,0.75S79.616,273.771,79.616,274.101z M79.105,278.586v15.39h-3.72v-15.39H79.105z"/>
					<path fill="#FFFFFF" d="M86.351,280.476c0.31-0.31,0.638-0.598,0.982-0.862c0.345-0.265,0.71-0.49,1.095-0.675
						c0.385-0.186,0.797-0.33,1.237-0.436c0.44-0.104,0.92-0.157,1.44-0.157c0.84,0,1.585,0.143,2.235,0.428
						c0.65,0.284,1.192,0.685,1.627,1.199c0.435,0.516,0.765,1.131,0.99,1.846c0.225,0.715,0.338,1.502,0.338,2.362v9.795h-3.705
						v-9.795c0-0.939-0.215-1.667-0.645-2.183c-0.43-0.515-1.085-0.772-1.965-0.772c-0.64,0-1.24,0.146-1.8,0.435
						c-0.56,0.291-1.09,0.686-1.59,1.186v11.13h-3.705v-15.39h2.265c0.48,0,0.795,0.225,0.945,0.675L86.351,280.476z"/>
					<path fill="#FFFFFF" d="M104.156,274.101c0,0.32-0.065,0.62-0.195,0.9c-0.13,0.279-0.302,0.524-0.518,0.734
						c-0.215,0.21-0.467,0.378-0.757,0.503s-0.6,0.188-0.93,0.188c-0.32,0-0.622-0.063-0.907-0.188s-0.533-0.293-0.743-0.503
						s-0.377-0.455-0.502-0.734c-0.125-0.28-0.188-0.58-0.188-0.9c0-0.33,0.063-0.64,0.188-0.93s0.292-0.54,0.502-0.75
						s0.458-0.378,0.743-0.503s0.587-0.188,0.907-0.188c0.33,0,0.64,0.063,0.93,0.188s0.542,0.293,0.757,0.503
						c0.215,0.21,0.388,0.46,0.518,0.75S104.156,273.771,104.156,274.101z M103.646,278.586v15.39h-3.72v-15.39H103.646z"/>
					<path fill="#FFFFFF" d="M112.556,294.216c-1.34,0-2.368-0.378-3.083-1.133s-1.072-1.797-1.072-3.127v-8.596h-1.575
						c-0.2,0-0.37-0.064-0.51-0.194c-0.14-0.13-0.21-0.325-0.21-0.585v-1.471l2.475-0.404l0.78-4.2
						c0.05-0.2,0.145-0.355,0.285-0.465c0.14-0.11,0.32-0.165,0.54-0.165h1.92v4.845h4.11v2.64h-4.11v8.34
						c0,0.48,0.118,0.855,0.353,1.125c0.235,0.271,0.558,0.405,0.968,0.405c0.23,0,0.422-0.027,0.578-0.082
						c0.155-0.056,0.29-0.113,0.405-0.173c0.115-0.06,0.217-0.117,0.308-0.173c0.09-0.055,0.18-0.082,0.27-0.082
						c0.11,0,0.2,0.027,0.27,0.082c0.07,0.056,0.145,0.138,0.225,0.248l1.11,1.8c-0.54,0.45-1.16,0.79-1.86,1.02
						C114.031,294.101,113.306,294.216,112.556,294.216z"/>
					<path fill="#FFFFFF" d="M129.655,295.985v2.4h-11.82v-2.4H129.655z"/>
					<path fill="#FFFFFF" d="M143.65,295.985v2.4h-11.82v-2.4H143.65z"/>
					<path fill="#FFFFFF" d="M149.05,284.57c0,2.061,0.25,4.085,0.75,6.075c0.5,1.99,1.215,3.86,2.145,5.61
						c0.1,0.199,0.157,0.377,0.172,0.532s0.002,0.29-0.038,0.405c-0.04,0.114-0.103,0.215-0.188,0.3s-0.178,0.157-0.277,0.218
						l-1.65,1.005c-0.74-1.141-1.371-2.285-1.89-3.436c-0.52-1.149-0.945-2.31-1.275-3.479c-0.33-1.17-0.573-2.355-0.728-3.556
						c-0.155-1.199-0.232-2.425-0.232-3.675s0.077-2.478,0.232-3.683c0.155-1.204,0.397-2.393,0.728-3.563
						c0.33-1.17,0.755-2.327,1.275-3.472c0.52-1.146,1.15-2.288,1.89-3.428l1.65,0.99c0.1,0.06,0.192,0.132,0.277,0.217
						s0.147,0.186,0.188,0.3c0.04,0.115,0.053,0.251,0.038,0.405c-0.015,0.155-0.073,0.338-0.172,0.548
						c-0.93,1.74-1.646,3.607-2.145,5.603C149.299,280.483,149.05,282.511,149.05,284.57z"/>
					<path fill="#FFFFFF" d="M163.66,281.586c-0.1,0.16-0.205,0.272-0.315,0.337c-0.11,0.065-0.25,0.098-0.42,0.098
						c-0.18,0-0.373-0.05-0.577-0.15c-0.205-0.1-0.443-0.212-0.713-0.337s-0.577-0.237-0.922-0.338
						c-0.345-0.1-0.752-0.149-1.223-0.149c-0.73,0-1.302,0.155-1.717,0.465s-0.623,0.715-0.623,1.215
						c0,0.33,0.107,0.607,0.323,0.832c0.215,0.226,0.5,0.423,0.855,0.593c0.354,0.17,0.757,0.322,1.208,0.458
						c0.45,0.135,0.907,0.282,1.372,0.442c0.465,0.16,0.923,0.343,1.373,0.547c0.45,0.205,0.853,0.466,1.208,0.78
						c0.355,0.315,0.64,0.692,0.855,1.133s0.323,0.97,0.323,1.59c0,0.74-0.133,1.423-0.397,2.048
						c-0.265,0.625-0.658,1.165-1.178,1.62s-1.163,0.81-1.927,1.064c-0.765,0.255-1.648,0.383-2.647,0.383
						c-0.53,0-1.048-0.048-1.553-0.143c-0.505-0.096-0.99-0.228-1.455-0.397c-0.465-0.17-0.895-0.37-1.29-0.601
						c-0.395-0.229-0.742-0.479-1.042-0.75l0.855-1.409c0.11-0.17,0.24-0.301,0.39-0.391s0.34-0.135,0.57-0.135
						s0.448,0.065,0.653,0.195c0.205,0.13,0.442,0.27,0.712,0.42c0.27,0.149,0.587,0.29,0.953,0.42
						c0.365,0.13,0.827,0.194,1.387,0.194c0.44,0,0.817-0.052,1.133-0.157c0.315-0.104,0.575-0.242,0.78-0.412
						s0.355-0.368,0.45-0.593c0.095-0.225,0.142-0.457,0.142-0.697c0-0.36-0.107-0.655-0.322-0.885
						c-0.215-0.23-0.5-0.431-0.855-0.601s-0.76-0.322-1.215-0.457c-0.456-0.136-0.92-0.282-1.395-0.442
						c-0.475-0.16-0.94-0.348-1.395-0.563c-0.455-0.215-0.86-0.488-1.215-0.818c-0.355-0.329-0.64-0.734-0.855-1.215
						c-0.215-0.479-0.322-1.06-0.322-1.739c0-0.631,0.125-1.23,0.375-1.801c0.25-0.569,0.617-1.067,1.103-1.492
						c0.485-0.425,1.09-0.765,1.815-1.02c0.725-0.256,1.563-0.383,2.513-0.383c1.06,0,2.025,0.175,2.895,0.524
						c0.87,0.351,1.595,0.811,2.175,1.381L163.66,281.586z"/>
					<path fill="#FFFFFF" d="M170.305,286.745c0.06,0.791,0.2,1.473,0.42,2.048c0.22,0.575,0.51,1.05,0.87,1.425
						c0.36,0.375,0.787,0.655,1.282,0.84c0.495,0.186,1.042,0.278,1.643,0.278s1.118-0.07,1.552-0.21
						c0.435-0.141,0.815-0.295,1.14-0.466c0.325-0.17,0.61-0.324,0.855-0.465c0.245-0.14,0.482-0.21,0.712-0.21
						c0.31,0,0.54,0.115,0.69,0.346l1.065,1.35c-0.41,0.479-0.87,0.883-1.38,1.207c-0.51,0.325-1.042,0.585-1.597,0.78
						c-0.555,0.195-1.12,0.332-1.695,0.413c-0.575,0.079-1.132,0.119-1.672,0.119c-1.07,0-2.065-0.178-2.985-0.532
						c-0.92-0.354-1.72-0.88-2.4-1.575c-0.68-0.694-1.215-1.555-1.605-2.58c-0.39-1.024-0.585-2.212-0.585-3.563
						c0-1.05,0.17-2.037,0.51-2.962s0.827-1.73,1.462-2.415s1.41-1.228,2.325-1.628c0.915-0.399,1.947-0.6,3.097-0.6
						c0.97,0,1.865,0.155,2.685,0.465c0.82,0.311,1.525,0.763,2.115,1.357c0.59,0.595,1.052,1.325,1.387,2.19
						s0.503,1.853,0.503,2.962c0,0.561-0.06,0.938-0.18,1.133s-0.35,0.292-0.69,0.292H170.305z M177.37,284.511
						c0-0.48-0.067-0.933-0.203-1.357c-0.135-0.425-0.337-0.798-0.607-1.118c-0.27-0.319-0.613-0.572-1.027-0.757
						c-0.416-0.186-0.898-0.277-1.448-0.277c-1.07,0-1.913,0.305-2.527,0.915c-0.615,0.609-1.008,1.475-1.178,2.595H177.37z"/>
					<path fill="#FFFFFF" d="M187.225,271.686v22.29h-3.705v-22.29H187.225z"/>
					<path fill="#FFFFFF" d="M192.01,293.976v-12.6l-1.335-0.21c-0.291-0.061-0.523-0.163-0.698-0.308
						c-0.175-0.146-0.262-0.353-0.262-0.623v-1.515h2.295v-1.14c0-0.88,0.132-1.67,0.397-2.37c0.265-0.7,0.645-1.295,1.14-1.785
						c0.495-0.49,1.098-0.865,1.808-1.125s1.51-0.391,2.4-0.391c0.71,0,1.37,0.096,1.98,0.285l-0.075,1.86
						c-0.01,0.14-0.05,0.253-0.12,0.338s-0.163,0.149-0.277,0.194c-0.115,0.045-0.248,0.075-0.397,0.09
						c-0.15,0.016-0.31,0.022-0.48,0.022c-0.44,0-0.833,0.048-1.178,0.143c-0.345,0.096-0.637,0.261-0.877,0.495
						c-0.24,0.235-0.422,0.545-0.547,0.931c-0.125,0.385-0.188,0.862-0.188,1.432v1.021h4.005v2.64h-3.885v12.615H192.01z"/>
					<path fill="#FFFFFF" d="M200.964,297.65c-0.18-0.149-0.27-0.335-0.27-0.555c0-0.08,0.027-0.17,0.083-0.271
						c0.055-0.1,0.123-0.189,0.203-0.27c0.11-0.12,0.245-0.268,0.405-0.442c0.16-0.175,0.32-0.375,0.48-0.601
						c0.16-0.225,0.308-0.47,0.442-0.734c0.135-0.266,0.238-0.548,0.308-0.848c-0.32,0-0.61-0.058-0.87-0.173
						c-0.26-0.114-0.482-0.272-0.667-0.473c-0.185-0.199-0.33-0.435-0.435-0.704c-0.105-0.271-0.157-0.565-0.157-0.886
						c0-0.279,0.052-0.542,0.157-0.787c0.105-0.245,0.252-0.46,0.443-0.646c0.19-0.185,0.42-0.33,0.69-0.435
						c0.27-0.105,0.565-0.157,0.885-0.157c0.38,0,0.713,0.067,0.998,0.202c0.285,0.135,0.52,0.32,0.705,0.555
						c0.185,0.235,0.325,0.506,0.42,0.811s0.143,0.628,0.143,0.968c0,0.479-0.073,0.984-0.217,1.515
						c-0.146,0.53-0.358,1.06-0.638,1.59c-0.28,0.53-0.627,1.045-1.042,1.545s-0.888,0.96-1.417,1.38L200.964,297.65z"/>
					<path fill="#FFFFFF" d="M228.594,278.586v15.39h-2.265c-0.49,0-0.8-0.225-0.93-0.675l-0.255-1.23
						c-0.63,0.641-1.325,1.158-2.085,1.553c-0.76,0.395-1.655,0.593-2.685,0.593c-0.84,0-1.583-0.143-2.228-0.428
						s-1.188-0.688-1.627-1.207c-0.44-0.521-0.772-1.138-0.998-1.853s-0.337-1.503-0.337-2.363v-9.779h3.705v9.779
						c0,0.94,0.218,1.668,0.653,2.183c0.435,0.516,1.087,0.772,1.958,0.772c0.64,0,1.24-0.143,1.8-0.427
						c0.56-0.285,1.09-0.678,1.59-1.178v-11.13H228.594z"/>
					<path fill="#FFFFFF" d="M235.719,280.476c0.31-0.31,0.638-0.598,0.982-0.862c0.345-0.265,0.71-0.49,1.095-0.675
						c0.385-0.186,0.797-0.33,1.237-0.436c0.44-0.104,0.92-0.157,1.44-0.157c0.84,0,1.585,0.143,2.235,0.428
						c0.65,0.284,1.192,0.685,1.627,1.199c0.435,0.516,0.765,1.131,0.99,1.846c0.225,0.715,0.338,1.502,0.338,2.362v9.795h-3.705
						v-9.795c0-0.939-0.215-1.667-0.645-2.183c-0.43-0.515-1.085-0.772-1.965-0.772c-0.64,0-1.24,0.146-1.8,0.435
						c-0.56,0.291-1.09,0.686-1.59,1.186v11.13h-3.705v-15.39h2.265c0.48,0,0.795,0.225,0.945,0.675L235.719,280.476z"/>
					<path fill="#FFFFFF" d="M248.814,280.73c1.77-1.62,3.9-2.43,6.39-2.43c0.899,0,1.704,0.147,2.415,0.442
						c0.71,0.295,1.31,0.705,1.8,1.229c0.489,0.525,0.862,1.153,1.117,1.883c0.255,0.73,0.383,1.53,0.383,2.4v9.72h-1.681
						c-0.35,0-0.62-0.053-0.81-0.157c-0.19-0.105-0.34-0.317-0.45-0.638l-0.33-1.11c-0.39,0.351-0.77,0.658-1.14,0.923
						s-0.755,0.487-1.155,0.667c-0.399,0.181-0.827,0.317-1.282,0.413c-0.455,0.095-0.958,0.143-1.508,0.143
						c-0.649,0-1.25-0.088-1.8-0.263s-1.025-0.438-1.425-0.787c-0.4-0.351-0.71-0.785-0.93-1.306c-0.22-0.52-0.33-1.125-0.33-1.814
						c0-0.391,0.065-0.777,0.195-1.163c0.13-0.385,0.342-0.752,0.637-1.103c0.295-0.35,0.677-0.68,1.147-0.989
						c0.47-0.311,1.047-0.58,1.732-0.811c0.686-0.229,1.482-0.417,2.393-0.563c0.91-0.145,1.95-0.232,3.12-0.263v-0.899
						c0-1.03-0.22-1.793-0.66-2.288s-1.075-0.742-1.905-0.742c-0.6,0-1.097,0.07-1.492,0.21c-0.395,0.141-0.742,0.298-1.042,0.473
						c-0.301,0.175-0.573,0.332-0.817,0.473c-0.246,0.14-0.518,0.21-0.818,0.21c-0.26,0-0.48-0.067-0.66-0.203
						c-0.18-0.135-0.325-0.292-0.435-0.472L248.814,280.73z M257.304,287.405c-1.07,0.051-1.97,0.143-2.7,0.277
						c-0.729,0.136-1.314,0.308-1.755,0.518s-0.755,0.455-0.945,0.735c-0.189,0.28-0.284,0.585-0.284,0.915
						c0,0.65,0.192,1.115,0.577,1.395c0.385,0.28,0.888,0.421,1.508,0.421c0.76,0,1.417-0.138,1.972-0.413
						c0.556-0.274,1.098-0.692,1.628-1.252V287.405z"/>
					<path fill="#FFFFFF" d="M275.469,295.985v2.4h-11.82v-2.4H275.469z"/>
					<path fill="#FFFFFF" d="M281.243,286.745c0.061,0.791,0.2,1.473,0.42,2.048c0.221,0.575,0.511,1.05,0.87,1.425
						c0.36,0.375,0.788,0.655,1.283,0.84c0.494,0.186,1.042,0.278,1.642,0.278c0.601,0,1.118-0.07,1.553-0.21
						c0.436-0.141,0.815-0.295,1.141-0.466c0.324-0.17,0.609-0.324,0.854-0.465c0.245-0.14,0.482-0.21,0.713-0.21
						c0.31,0,0.54,0.115,0.689,0.346l1.065,1.35c-0.41,0.479-0.87,0.883-1.38,1.207c-0.511,0.325-1.043,0.585-1.598,0.78
						s-1.12,0.332-1.695,0.413c-0.575,0.079-1.132,0.119-1.672,0.119c-1.07,0-2.065-0.178-2.985-0.532s-1.72-0.88-2.4-1.575
						c-0.68-0.694-1.215-1.555-1.604-2.58c-0.391-1.024-0.585-2.212-0.585-3.563c0-1.05,0.17-2.037,0.51-2.962
						s0.827-1.73,1.463-2.415c0.635-0.685,1.409-1.228,2.324-1.628c0.915-0.399,1.948-0.6,3.098-0.6c0.97,0,1.865,0.155,2.686,0.465
						c0.819,0.311,1.524,0.763,2.114,1.357c0.591,0.595,1.053,1.325,1.388,2.19s0.503,1.853,0.503,2.962
						c0,0.561-0.061,0.938-0.181,1.133c-0.119,0.195-0.35,0.292-0.689,0.292H281.243z M288.309,284.511
						c0-0.48-0.067-0.933-0.202-1.357c-0.136-0.425-0.338-0.798-0.608-1.118c-0.27-0.319-0.612-0.572-1.027-0.757
						c-0.415-0.186-0.897-0.277-1.447-0.277c-1.07,0-1.912,0.305-2.527,0.915c-0.615,0.609-1.008,1.475-1.178,2.595H288.309z"/>
					<path fill="#FFFFFF" d="M297.878,280.476c0.31-0.31,0.638-0.598,0.982-0.862s0.71-0.49,1.095-0.675
						c0.386-0.186,0.798-0.33,1.238-0.436c0.439-0.104,0.92-0.157,1.439-0.157c0.84,0,1.585,0.143,2.235,0.428
						c0.649,0.284,1.192,0.685,1.627,1.199c0.436,0.516,0.766,1.131,0.99,1.846c0.226,0.715,0.338,1.502,0.338,2.362v9.795h-3.705
						v-9.795c0-0.939-0.215-1.667-0.646-2.183c-0.43-0.515-1.085-0.772-1.965-0.772c-0.64,0-1.24,0.146-1.8,0.435
						c-0.561,0.291-1.09,0.686-1.59,1.186v11.13h-3.705v-15.39h2.265c0.48,0,0.795,0.225,0.945,0.675L297.878,280.476z"/>
					<path fill="#FFFFFF" d="M314.183,286.745c0.061,0.791,0.2,1.473,0.42,2.048c0.221,0.575,0.511,1.05,0.87,1.425
						c0.36,0.375,0.788,0.655,1.283,0.84c0.494,0.186,1.042,0.278,1.642,0.278c0.601,0,1.118-0.07,1.553-0.21
						c0.436-0.141,0.815-0.295,1.141-0.466c0.324-0.17,0.609-0.324,0.854-0.465c0.245-0.14,0.482-0.21,0.713-0.21
						c0.31,0,0.54,0.115,0.689,0.346l1.065,1.35c-0.41,0.479-0.87,0.883-1.38,1.207c-0.511,0.325-1.043,0.585-1.598,0.78
						s-1.12,0.332-1.695,0.413c-0.575,0.079-1.132,0.119-1.672,0.119c-1.07,0-2.065-0.178-2.985-0.532s-1.72-0.88-2.4-1.575
						c-0.68-0.694-1.215-1.555-1.604-2.58c-0.391-1.024-0.585-2.212-0.585-3.563c0-1.05,0.17-2.037,0.51-2.962
						s0.827-1.73,1.463-2.415c0.635-0.685,1.409-1.228,2.324-1.628c0.915-0.399,1.948-0.6,3.098-0.6c0.97,0,1.865,0.155,2.686,0.465
						c0.819,0.311,1.524,0.763,2.114,1.357c0.591,0.595,1.053,1.325,1.388,2.19s0.503,1.853,0.503,2.962
						c0,0.561-0.061,0.938-0.181,1.133c-0.119,0.195-0.35,0.292-0.689,0.292H314.183z M321.248,284.511
						c0-0.48-0.067-0.933-0.202-1.357c-0.136-0.425-0.338-0.798-0.608-1.118c-0.27-0.319-0.612-0.572-1.027-0.757
						c-0.415-0.186-0.897-0.277-1.447-0.277c-1.07,0-1.912,0.305-2.527,0.915c-0.615,0.609-1.008,1.475-1.178,2.595H321.248z"/>
					<path fill="#FFFFFF" d="M330.849,281.256c0.479-0.92,1.05-1.643,1.71-2.168c0.66-0.524,1.439-0.787,2.34-0.787
						c0.71,0,1.28,0.155,1.71,0.465l-0.24,2.775c-0.05,0.18-0.122,0.307-0.217,0.382c-0.096,0.075-0.223,0.112-0.383,0.112
						c-0.15,0-0.373-0.024-0.668-0.074s-0.582-0.075-0.862-0.075c-0.41,0-0.775,0.06-1.095,0.18c-0.32,0.12-0.607,0.293-0.862,0.518
						s-0.48,0.498-0.676,0.817c-0.194,0.32-0.377,0.686-0.547,1.095v9.48h-3.705v-15.39h2.175c0.38,0,0.646,0.067,0.795,0.202
						c0.15,0.135,0.25,0.378,0.3,0.728L330.849,281.256z"/>
					<path fill="#FFFFFF" d="M351.878,279.11v1.38c0,0.44-0.266,0.711-0.795,0.811l-1.38,0.255c0.21,0.53,0.314,1.11,0.314,1.74
						c0,0.76-0.152,1.447-0.457,2.063c-0.306,0.614-0.728,1.138-1.268,1.567s-1.178,0.763-1.913,0.997
						c-0.734,0.235-1.527,0.353-2.377,0.353c-0.3,0-0.59-0.015-0.87-0.045s-0.555-0.069-0.825-0.12
						c-0.479,0.29-0.72,0.615-0.72,0.976c0,0.31,0.143,0.537,0.428,0.683c0.285,0.145,0.662,0.247,1.132,0.307
						c0.471,0.061,1.006,0.098,1.605,0.113c0.6,0.015,1.215,0.047,1.845,0.097c0.63,0.051,1.245,0.138,1.845,0.263
						c0.601,0.125,1.136,0.322,1.605,0.593c0.47,0.27,0.848,0.638,1.133,1.103s0.427,1.063,0.427,1.792
						c0,0.681-0.167,1.341-0.502,1.98s-0.82,1.21-1.455,1.71s-1.415,0.902-2.34,1.207c-0.925,0.306-1.978,0.458-3.157,0.458
						c-1.16,0-2.171-0.112-3.03-0.338c-0.86-0.225-1.575-0.524-2.146-0.899c-0.569-0.375-0.995-0.808-1.274-1.298
						c-0.28-0.49-0.42-1-0.42-1.53c0-0.72,0.217-1.322,0.652-1.807c0.435-0.485,1.032-0.873,1.792-1.163
						c-0.41-0.21-0.734-0.489-0.975-0.84c-0.24-0.35-0.36-0.81-0.36-1.38c0-0.23,0.043-0.468,0.128-0.713s0.21-0.487,0.375-0.728
						c0.165-0.239,0.372-0.467,0.622-0.683c0.25-0.215,0.545-0.407,0.886-0.577c-0.78-0.42-1.394-0.979-1.838-1.68
						c-0.445-0.7-0.668-1.521-0.668-2.46c0-0.76,0.152-1.448,0.458-2.063c0.305-0.615,0.729-1.141,1.274-1.575
						c0.545-0.436,1.19-0.768,1.936-0.998c0.745-0.229,1.558-0.345,2.438-0.345c0.66,0,1.28,0.067,1.86,0.203
						c0.579,0.135,1.109,0.332,1.59,0.592H351.878z M348.188,294.666c0-0.301-0.09-0.546-0.27-0.735s-0.425-0.338-0.735-0.442
						c-0.31-0.105-0.673-0.183-1.087-0.232c-0.415-0.05-0.855-0.088-1.32-0.112c-0.465-0.025-0.945-0.048-1.44-0.068
						c-0.494-0.02-0.978-0.06-1.447-0.119c-0.41,0.229-0.742,0.5-0.997,0.81s-0.383,0.67-0.383,1.08c0,0.27,0.067,0.522,0.202,0.758
						c0.136,0.234,0.351,0.437,0.646,0.607c0.295,0.17,0.677,0.302,1.147,0.397c0.47,0.095,1.045,0.143,1.725,0.143
						c0.69,0,1.285-0.053,1.785-0.158c0.5-0.104,0.912-0.25,1.237-0.435c0.325-0.186,0.563-0.405,0.713-0.66
						S348.188,294.966,348.188,294.666z M344.003,285.905c0.46,0,0.859-0.063,1.2-0.188c0.34-0.125,0.622-0.297,0.848-0.518
						c0.225-0.22,0.395-0.484,0.51-0.795c0.114-0.31,0.172-0.649,0.172-1.02c0-0.76-0.228-1.362-0.682-1.808
						c-0.456-0.445-1.138-0.668-2.048-0.668s-1.593,0.223-2.048,0.668s-0.683,1.048-0.683,1.808c0,0.359,0.058,0.695,0.173,1.005
						s0.285,0.577,0.51,0.803c0.226,0.225,0.511,0.399,0.855,0.524S343.553,285.905,344.003,285.905z"/>
					<path fill="#FFFFFF" d="M358.567,274.101c0,0.32-0.064,0.62-0.194,0.9c-0.131,0.279-0.303,0.524-0.518,0.734
						c-0.216,0.21-0.468,0.378-0.758,0.503s-0.6,0.188-0.93,0.188c-0.32,0-0.623-0.063-0.908-0.188
						c-0.284-0.125-0.532-0.293-0.742-0.503s-0.378-0.455-0.502-0.734c-0.126-0.28-0.188-0.58-0.188-0.9
						c0-0.33,0.062-0.64,0.188-0.93c0.124-0.29,0.292-0.54,0.502-0.75s0.458-0.378,0.742-0.503c0.285-0.125,0.588-0.188,0.908-0.188
						c0.33,0,0.64,0.063,0.93,0.188s0.542,0.293,0.758,0.503c0.215,0.21,0.387,0.46,0.518,0.75
						C358.503,273.461,358.567,273.771,358.567,274.101z M358.058,278.586v15.39h-3.72v-15.39H358.058z"/>
					<path fill="#FFFFFF" d="M361.478,280.73c1.771-1.62,3.9-2.43,6.391-2.43c0.899,0,1.704,0.147,2.415,0.442
						c0.71,0.295,1.31,0.705,1.8,1.229c0.489,0.525,0.862,1.153,1.117,1.883c0.255,0.73,0.383,1.53,0.383,2.4v9.72h-1.681
						c-0.35,0-0.62-0.053-0.81-0.157c-0.19-0.105-0.34-0.317-0.45-0.638l-0.33-1.11c-0.39,0.351-0.77,0.658-1.14,0.923
						s-0.755,0.487-1.155,0.667c-0.399,0.181-0.827,0.317-1.282,0.413c-0.455,0.095-0.958,0.143-1.508,0.143
						c-0.649,0-1.25-0.088-1.8-0.263s-1.025-0.438-1.425-0.787c-0.4-0.351-0.71-0.785-0.93-1.306c-0.221-0.52-0.33-1.125-0.33-1.814
						c0-0.391,0.064-0.777,0.194-1.163c0.13-0.385,0.343-0.752,0.638-1.103c0.295-0.35,0.678-0.68,1.147-0.989
						c0.47-0.311,1.048-0.58,1.732-0.811c0.686-0.229,1.482-0.417,2.393-0.563c0.91-0.145,1.95-0.232,3.12-0.263v-0.899
						c0-1.03-0.22-1.793-0.66-2.288s-1.075-0.742-1.905-0.742c-0.6,0-1.097,0.07-1.492,0.21c-0.395,0.141-0.742,0.298-1.042,0.473
						c-0.301,0.175-0.573,0.332-0.817,0.473c-0.246,0.14-0.518,0.21-0.818,0.21c-0.26,0-0.479-0.067-0.659-0.203
						c-0.181-0.135-0.325-0.292-0.436-0.472L361.478,280.73z M369.968,287.405c-1.07,0.051-1.97,0.143-2.7,0.277
						c-0.729,0.136-1.314,0.308-1.755,0.518s-0.755,0.455-0.945,0.735c-0.189,0.28-0.284,0.585-0.284,0.915
						c0,0.65,0.192,1.115,0.577,1.395c0.385,0.28,0.888,0.421,1.508,0.421c0.76,0,1.417-0.138,1.972-0.413
						c0.556-0.274,1.098-0.692,1.628-1.252V287.405z"/>
					<path fill="#FFFFFF" d="M377.002,297.65c-0.18-0.149-0.27-0.335-0.27-0.555c0-0.08,0.027-0.17,0.082-0.271
						c0.056-0.1,0.123-0.189,0.203-0.27c0.109-0.12,0.245-0.268,0.405-0.442c0.159-0.175,0.319-0.375,0.479-0.601
						c0.16-0.225,0.308-0.47,0.442-0.734c0.135-0.266,0.237-0.548,0.308-0.848c-0.32,0-0.61-0.058-0.87-0.173
						c-0.26-0.114-0.482-0.272-0.667-0.473c-0.186-0.199-0.33-0.435-0.436-0.704c-0.104-0.271-0.157-0.565-0.157-0.886
						c0-0.279,0.053-0.542,0.157-0.787c0.105-0.245,0.253-0.46,0.442-0.646c0.19-0.185,0.42-0.33,0.69-0.435
						c0.27-0.105,0.564-0.157,0.885-0.157c0.38,0,0.713,0.067,0.998,0.202c0.284,0.135,0.52,0.32,0.705,0.555
						c0.185,0.235,0.324,0.506,0.42,0.811c0.095,0.305,0.143,0.628,0.143,0.968c0,0.479-0.073,0.984-0.218,1.515
						c-0.146,0.53-0.357,1.06-0.638,1.59s-0.628,1.045-1.043,1.545s-0.887,0.96-1.417,1.38L377.002,297.65z"/>
					<path fill="#FFFFFF" d="M404.632,278.586v15.39h-2.265c-0.49,0-0.801-0.225-0.931-0.675l-0.255-1.23
						c-0.63,0.641-1.325,1.158-2.085,1.553s-1.655,0.593-2.685,0.593c-0.84,0-1.583-0.143-2.228-0.428
						c-0.646-0.285-1.188-0.688-1.628-1.207c-0.439-0.521-0.772-1.138-0.997-1.853s-0.338-1.503-0.338-2.363v-9.779h3.705v9.779
						c0,0.94,0.218,1.668,0.652,2.183c0.436,0.516,1.088,0.772,1.958,0.772c0.64,0,1.239-0.143,1.8-0.427
						c0.56-0.285,1.09-0.678,1.59-1.178v-11.13H404.632z"/>
					<path fill="#FFFFFF" d="M411.757,280.476c0.31-0.31,0.638-0.598,0.982-0.862s0.71-0.49,1.095-0.675
						c0.386-0.186,0.798-0.33,1.238-0.436c0.439-0.104,0.92-0.157,1.439-0.157c0.84,0,1.585,0.143,2.235,0.428
						c0.649,0.284,1.192,0.685,1.627,1.199c0.436,0.516,0.766,1.131,0.99,1.846c0.226,0.715,0.338,1.502,0.338,2.362v9.795h-3.705
						v-9.795c0-0.939-0.215-1.667-0.646-2.183c-0.43-0.515-1.085-0.772-1.965-0.772c-0.64,0-1.24,0.146-1.8,0.435
						c-0.561,0.291-1.09,0.686-1.59,1.186v11.13h-3.705v-15.39h2.265c0.48,0,0.795,0.225,0.945,0.675L411.757,280.476z"/>
					<path fill="#FFFFFF" d="M424.852,280.73c1.771-1.62,3.9-2.43,6.391-2.43c0.899,0,1.704,0.147,2.415,0.442
						c0.71,0.295,1.31,0.705,1.8,1.229c0.489,0.525,0.862,1.153,1.117,1.883c0.255,0.73,0.383,1.53,0.383,2.4v9.72h-1.681
						c-0.35,0-0.62-0.053-0.81-0.157c-0.19-0.105-0.34-0.317-0.45-0.638l-0.33-1.11c-0.39,0.351-0.77,0.658-1.14,0.923
						s-0.755,0.487-1.155,0.667c-0.399,0.181-0.827,0.317-1.282,0.413c-0.455,0.095-0.958,0.143-1.508,0.143
						c-0.649,0-1.25-0.088-1.8-0.263s-1.025-0.438-1.425-0.787c-0.4-0.351-0.71-0.785-0.93-1.306c-0.221-0.52-0.33-1.125-0.33-1.814
						c0-0.391,0.064-0.777,0.194-1.163c0.13-0.385,0.343-0.752,0.638-1.103c0.295-0.35,0.678-0.68,1.147-0.989
						c0.47-0.311,1.048-0.58,1.732-0.811c0.686-0.229,1.482-0.417,2.393-0.563c0.91-0.145,1.95-0.232,3.12-0.263v-0.899
						c0-1.03-0.22-1.793-0.66-2.288s-1.075-0.742-1.905-0.742c-0.6,0-1.097,0.07-1.492,0.21c-0.395,0.141-0.742,0.298-1.042,0.473
						c-0.301,0.175-0.573,0.332-0.817,0.473c-0.246,0.14-0.518,0.21-0.818,0.21c-0.26,0-0.479-0.067-0.659-0.203
						c-0.181-0.135-0.325-0.292-0.436-0.472L424.852,280.73z M433.342,287.405c-1.07,0.051-1.97,0.143-2.7,0.277
						c-0.729,0.136-1.314,0.308-1.755,0.518s-0.755,0.455-0.945,0.735c-0.189,0.28-0.284,0.585-0.284,0.915
						c0,0.65,0.192,1.115,0.577,1.395c0.385,0.28,0.888,0.421,1.508,0.421c0.76,0,1.417-0.138,1.972-0.413
						c0.556-0.274,1.098-0.692,1.628-1.252V287.405z"/>
					<path fill="#FFFFFF" d="M451.507,295.985v2.4h-11.82v-2.4H451.507z"/>
					<path fill="#FFFFFF" d="M465.457,281.841c-0.11,0.14-0.218,0.25-0.323,0.33c-0.104,0.08-0.257,0.12-0.457,0.12
						c-0.19,0-0.375-0.058-0.556-0.173c-0.18-0.115-0.395-0.245-0.645-0.39c-0.25-0.146-0.548-0.275-0.893-0.391
						c-0.345-0.114-0.772-0.172-1.282-0.172c-0.65,0-1.221,0.117-1.71,0.353c-0.49,0.234-0.897,0.572-1.223,1.012
						c-0.325,0.44-0.567,0.973-0.728,1.598s-0.24,1.333-0.24,2.123c0,0.819,0.088,1.55,0.263,2.189
						c0.175,0.641,0.428,1.178,0.758,1.612c0.33,0.436,0.729,0.766,1.199,0.99c0.471,0.226,1,0.338,1.591,0.338
						c0.59,0,1.067-0.072,1.433-0.218c0.364-0.145,0.672-0.305,0.922-0.48c0.25-0.175,0.468-0.334,0.652-0.479
						c0.186-0.145,0.393-0.218,0.623-0.218c0.3,0,0.524,0.115,0.675,0.346l1.065,1.35c-0.41,0.479-0.855,0.883-1.336,1.207
						c-0.479,0.325-0.978,0.585-1.492,0.78s-1.045,0.332-1.59,0.413c-0.545,0.079-1.088,0.119-1.628,0.119
						c-0.95,0-1.845-0.178-2.685-0.532s-1.575-0.872-2.205-1.553c-0.63-0.68-1.128-1.512-1.492-2.497
						c-0.365-0.985-0.548-2.107-0.548-3.367c0-1.13,0.162-2.178,0.487-3.143s0.803-1.801,1.433-2.505
						c0.63-0.705,1.41-1.258,2.34-1.658c0.931-0.399,2-0.6,3.21-0.6c1.15,0,2.158,0.185,3.022,0.555
						c0.865,0.37,1.643,0.9,2.333,1.59L465.457,281.841z"/>
					<path fill="#FFFFFF" d="M473.241,274.101c0,0.32-0.064,0.62-0.194,0.9c-0.131,0.279-0.303,0.524-0.518,0.734
						c-0.216,0.21-0.468,0.378-0.758,0.503s-0.6,0.188-0.93,0.188c-0.32,0-0.623-0.063-0.908-0.188
						c-0.284-0.125-0.532-0.293-0.742-0.503s-0.378-0.455-0.502-0.734c-0.126-0.28-0.188-0.58-0.188-0.9
						c0-0.33,0.062-0.64,0.188-0.93c0.124-0.29,0.292-0.54,0.502-0.75s0.458-0.378,0.742-0.503c0.285-0.125,0.588-0.188,0.908-0.188
						c0.33,0,0.64,0.063,0.93,0.188s0.542,0.293,0.758,0.503c0.215,0.21,0.387,0.46,0.518,0.75
						C473.177,273.461,473.241,273.771,473.241,274.101z M472.731,278.586v15.39h-3.72v-15.39H472.731z"/>
					<path fill="#FFFFFF" d="M489.771,278.586v15.39h-2.265c-0.49,0-0.801-0.225-0.931-0.675l-0.255-1.23
						c-0.63,0.641-1.325,1.158-2.085,1.553s-1.655,0.593-2.685,0.593c-0.84,0-1.583-0.143-2.228-0.428
						c-0.646-0.285-1.188-0.688-1.628-1.207c-0.439-0.521-0.772-1.138-0.997-1.853s-0.338-1.503-0.338-2.363v-9.779h3.705v9.779
						c0,0.94,0.218,1.668,0.652,2.183c0.436,0.516,1.088,0.772,1.958,0.772c0.64,0,1.239-0.143,1.8-0.427
						c0.56-0.285,1.09-0.678,1.59-1.178v-11.13H489.771z"/>
					<path fill="#FFFFFF" d="M506.796,271.686v22.29h-2.266c-0.49,0-0.8-0.225-0.93-0.675l-0.315-1.485
						c-0.62,0.71-1.332,1.285-2.137,1.726c-0.806,0.439-1.743,0.659-2.813,0.659c-0.841,0-1.61-0.175-2.311-0.524
						c-0.7-0.351-1.303-0.857-1.808-1.522s-0.895-1.487-1.17-2.468c-0.275-0.979-0.412-2.1-0.412-3.36
						c0-1.14,0.154-2.199,0.465-3.18c0.31-0.979,0.755-1.83,1.335-2.55s1.275-1.282,2.085-1.688c0.811-0.405,1.72-0.607,2.73-0.607
						c0.859,0,1.595,0.135,2.205,0.405c0.609,0.27,1.154,0.635,1.635,1.095v-8.115H506.796z M503.091,282.516
						c-0.42-0.51-0.878-0.87-1.373-1.08s-1.027-0.315-1.598-0.315c-0.56,0-1.064,0.105-1.515,0.315s-0.835,0.527-1.155,0.952
						c-0.319,0.426-0.564,0.966-0.734,1.62c-0.17,0.655-0.255,1.428-0.255,2.317c0,0.9,0.072,1.663,0.217,2.288
						c0.146,0.625,0.353,1.135,0.623,1.53c0.27,0.395,0.6,0.68,0.99,0.854c0.39,0.175,0.824,0.263,1.305,0.263
						c0.77,0,1.425-0.16,1.965-0.48c0.54-0.319,1.05-0.774,1.53-1.364V282.516z"/>
					<path fill="#FFFFFF" d="M510.096,280.73c1.771-1.62,3.9-2.43,6.391-2.43c0.899,0,1.704,0.147,2.415,0.442
						c0.71,0.295,1.31,0.705,1.8,1.229c0.489,0.525,0.862,1.153,1.117,1.883c0.255,0.73,0.383,1.53,0.383,2.4v9.72h-1.681
						c-0.35,0-0.62-0.053-0.81-0.157c-0.19-0.105-0.34-0.317-0.45-0.638l-0.33-1.11c-0.39,0.351-0.77,0.658-1.14,0.923
						s-0.755,0.487-1.155,0.667c-0.399,0.181-0.827,0.317-1.282,0.413c-0.455,0.095-0.958,0.143-1.508,0.143
						c-0.649,0-1.25-0.088-1.8-0.263s-1.025-0.438-1.425-0.787c-0.4-0.351-0.71-0.785-0.93-1.306c-0.221-0.52-0.33-1.125-0.33-1.814
						c0-0.391,0.064-0.777,0.194-1.163c0.13-0.385,0.343-0.752,0.638-1.103c0.295-0.35,0.678-0.68,1.147-0.989
						c0.47-0.311,1.048-0.58,1.732-0.811c0.686-0.229,1.482-0.417,2.393-0.563c0.91-0.145,1.95-0.232,3.12-0.263v-0.899
						c0-1.03-0.22-1.793-0.66-2.288s-1.075-0.742-1.905-0.742c-0.6,0-1.097,0.07-1.492,0.21c-0.395,0.141-0.742,0.298-1.042,0.473
						c-0.301,0.175-0.573,0.332-0.817,0.473c-0.246,0.14-0.518,0.21-0.818,0.21c-0.26,0-0.479-0.067-0.659-0.203
						c-0.181-0.135-0.325-0.292-0.436-0.472L510.096,280.73z M518.586,287.405c-1.07,0.051-1.97,0.143-2.7,0.277
						c-0.729,0.136-1.314,0.308-1.755,0.518s-0.755,0.455-0.945,0.735c-0.189,0.28-0.284,0.585-0.284,0.915
						c0,0.65,0.192,1.115,0.577,1.395c0.385,0.28,0.888,0.421,1.508,0.421c0.76,0,1.417-0.138,1.972-0.413
						c0.556-0.274,1.098-0.692,1.628-1.252V287.405z"/>
					<path fill="#FFFFFF" d="M539.046,271.686v22.29h-2.266c-0.49,0-0.8-0.225-0.93-0.675l-0.315-1.485
						c-0.62,0.71-1.332,1.285-2.137,1.726c-0.806,0.439-1.743,0.659-2.813,0.659c-0.841,0-1.61-0.175-2.311-0.524
						c-0.7-0.351-1.303-0.857-1.808-1.522s-0.895-1.487-1.17-2.468c-0.275-0.979-0.412-2.1-0.412-3.36
						c0-1.14,0.154-2.199,0.465-3.18c0.31-0.979,0.755-1.83,1.335-2.55s1.275-1.282,2.085-1.688c0.811-0.405,1.72-0.607,2.73-0.607
						c0.859,0,1.595,0.135,2.205,0.405c0.609,0.27,1.154,0.635,1.635,1.095v-8.115H539.046z M535.341,282.516
						c-0.42-0.51-0.878-0.87-1.373-1.08s-1.027-0.315-1.598-0.315c-0.56,0-1.064,0.105-1.515,0.315s-0.835,0.527-1.155,0.952
						c-0.319,0.426-0.564,0.966-0.734,1.62c-0.17,0.655-0.255,1.428-0.255,2.317c0,0.9,0.072,1.663,0.217,2.288
						c0.146,0.625,0.353,1.135,0.623,1.53c0.27,0.395,0.6,0.68,0.99,0.854c0.39,0.175,0.824,0.263,1.305,0.263
						c0.77,0,1.425-0.16,1.965-0.48c0.54-0.319,1.05-0.774,1.53-1.364V282.516z"/>
					<path fill="#FFFFFF" d="M544.79,284.57c0-2.06-0.247-4.087-0.742-6.082s-1.208-3.862-2.138-5.603
						c-0.11-0.21-0.173-0.393-0.188-0.548c-0.016-0.154-0.003-0.29,0.037-0.405c0.04-0.114,0.103-0.215,0.188-0.3
						s0.183-0.157,0.293-0.217l1.649-0.99c0.74,1.14,1.37,2.282,1.891,3.428c0.52,1.145,0.944,2.302,1.274,3.472
						s0.57,2.358,0.721,3.563c0.149,1.205,0.225,2.433,0.225,3.683s-0.075,2.476-0.225,3.675c-0.15,1.2-0.391,2.386-0.721,3.556
						s-0.755,2.33-1.274,3.479c-0.521,1.15-1.15,2.295-1.891,3.436l-1.649-1.005c-0.11-0.061-0.208-0.133-0.293-0.218
						s-0.147-0.186-0.188-0.3c-0.04-0.115-0.053-0.25-0.037-0.405c0.015-0.155,0.077-0.333,0.188-0.532
						c0.93-1.75,1.643-3.62,2.138-5.61S544.79,286.631,544.79,284.57z"/>
				</g>
			</g>
			<g>
				<g>
					<path fill="#FFFFFF" d="M58.301,344.582c-0.11,0.14-0.217,0.25-0.322,0.33s-0.258,0.12-0.458,0.12
						c-0.19,0-0.375-0.058-0.555-0.173s-0.395-0.245-0.645-0.39c-0.25-0.146-0.547-0.275-0.893-0.391
						c-0.345-0.114-0.772-0.172-1.282-0.172c-0.65,0-1.22,0.117-1.71,0.353c-0.49,0.234-0.898,0.572-1.223,1.012
						c-0.325,0.44-0.568,0.973-0.728,1.598c-0.16,0.625-0.24,1.333-0.24,2.123c0,0.819,0.087,1.55,0.263,2.189
						c0.175,0.641,0.428,1.178,0.757,1.612c0.33,0.436,0.73,0.766,1.2,0.99c0.47,0.226,1,0.338,1.59,0.338s1.067-0.072,1.433-0.218
						c0.365-0.145,0.672-0.305,0.922-0.48c0.25-0.175,0.467-0.334,0.653-0.479c0.185-0.145,0.392-0.218,0.623-0.218
						c0.3,0,0.525,0.115,0.675,0.346l1.065,1.35c-0.41,0.479-0.855,0.883-1.335,1.207c-0.48,0.325-0.978,0.585-1.493,0.78
						s-1.045,0.332-1.59,0.413c-0.545,0.079-1.087,0.119-1.627,0.119c-0.95,0-1.845-0.178-2.685-0.532s-1.575-0.872-2.205-1.553
						c-0.63-0.68-1.127-1.512-1.492-2.497c-0.365-0.985-0.548-2.107-0.548-3.367c0-1.13,0.163-2.178,0.488-3.143
						c0.325-0.965,0.802-1.801,1.432-2.505c0.63-0.705,1.41-1.258,2.34-1.658c0.93-0.399,2-0.6,3.21-0.6
						c1.15,0,2.157,0.185,3.022,0.555c0.865,0.37,1.643,0.9,2.333,1.59L58.301,344.582z"/>
					<path fill="#FFFFFF" d="M68.277,341.087c1.14,0,2.177,0.185,3.112,0.555s1.735,0.896,2.4,1.575s1.178,1.51,1.538,2.49
						c0.36,0.979,0.54,2.075,0.54,3.285c0,1.22-0.18,2.319-0.54,3.3c-0.36,0.979-0.873,1.814-1.538,2.505
						c-0.665,0.689-1.465,1.22-2.4,1.59s-1.973,0.555-3.112,0.555c-1.15,0-2.195-0.185-3.135-0.555s-1.743-0.9-2.407-1.59
						c-0.666-0.69-1.18-1.525-1.545-2.505c-0.365-0.98-0.548-2.08-0.548-3.3c0-1.21,0.183-2.306,0.548-3.285
						c0.365-0.98,0.879-1.811,1.545-2.49c0.665-0.68,1.467-1.205,2.407-1.575S67.126,341.087,68.277,341.087z M68.277,354.092
						c1.28,0,2.228-0.43,2.842-1.29c0.615-0.86,0.922-2.12,0.922-3.78c0-1.659-0.307-2.925-0.922-3.795
						c-0.615-0.87-1.563-1.305-2.842-1.305c-1.3,0-2.263,0.438-2.888,1.313s-0.938,2.138-0.938,3.787
						c0,1.65,0.313,2.908,0.938,3.772C66.014,353.659,66.977,354.092,68.277,354.092z"/>
					<path fill="#FFFFFF" d="M78.701,356.717v-15.39h2.265c0.48,0,0.795,0.225,0.945,0.675l0.24,1.14
						c0.27-0.3,0.553-0.575,0.848-0.825c0.295-0.249,0.61-0.465,0.945-0.645s0.695-0.322,1.08-0.428
						c0.385-0.104,0.808-0.157,1.268-0.157c0.97,0,1.768,0.263,2.393,0.787c0.625,0.525,1.092,1.223,1.402,2.093
						c0.24-0.51,0.54-0.947,0.9-1.313c0.36-0.365,0.755-0.662,1.185-0.893c0.43-0.229,0.888-0.399,1.373-0.51
						s0.973-0.165,1.462-0.165c0.85,0,1.605,0.13,2.265,0.39c0.66,0.261,1.215,0.641,1.665,1.141c0.45,0.5,0.792,1.109,1.027,1.83
						c0.235,0.72,0.353,1.545,0.353,2.475v9.795h-3.705v-9.795c0-0.98-0.215-1.718-0.645-2.213c-0.43-0.495-1.06-0.742-1.89-0.742
						c-0.38,0-0.733,0.065-1.058,0.195c-0.325,0.13-0.61,0.317-0.855,0.563s-0.438,0.553-0.578,0.922
						c-0.14,0.37-0.21,0.795-0.21,1.275v9.795h-3.72v-9.795c0-1.03-0.208-1.78-0.623-2.25c-0.415-0.47-1.022-0.705-1.823-0.705
						c-0.54,0-1.042,0.133-1.507,0.397s-0.897,0.628-1.297,1.088v11.265H78.701z"/>
					<path fill="#FFFFFF" d="M106.676,349.486c0.06,0.791,0.2,1.473,0.42,2.048c0.22,0.575,0.51,1.05,0.87,1.425
						c0.36,0.375,0.787,0.655,1.282,0.84c0.495,0.186,1.042,0.278,1.643,0.278s1.118-0.07,1.552-0.21
						c0.435-0.141,0.815-0.295,1.14-0.466c0.325-0.17,0.61-0.324,0.855-0.465c0.245-0.14,0.482-0.21,0.712-0.21
						c0.31,0,0.54,0.115,0.69,0.346l1.065,1.35c-0.41,0.479-0.87,0.883-1.38,1.207c-0.51,0.325-1.042,0.585-1.597,0.78
						c-0.555,0.195-1.12,0.332-1.695,0.413c-0.575,0.079-1.132,0.119-1.672,0.119c-1.07,0-2.065-0.178-2.985-0.532
						c-0.92-0.354-1.72-0.88-2.4-1.575c-0.68-0.694-1.215-1.555-1.605-2.58c-0.39-1.024-0.585-2.212-0.585-3.563
						c0-1.05,0.17-2.037,0.51-2.962s0.827-1.73,1.462-2.415s1.41-1.228,2.325-1.628c0.915-0.399,1.947-0.6,3.097-0.6
						c0.97,0,1.865,0.155,2.685,0.465c0.82,0.311,1.525,0.763,2.115,1.357c0.59,0.595,1.052,1.325,1.387,2.19
						s0.503,1.853,0.503,2.962c0,0.561-0.06,0.938-0.18,1.133s-0.35,0.292-0.69,0.292H106.676z M113.741,347.252
						c0-0.48-0.067-0.933-0.203-1.357c-0.135-0.425-0.337-0.798-0.607-1.118c-0.27-0.319-0.613-0.572-1.027-0.757
						c-0.416-0.186-0.898-0.277-1.448-0.277c-1.07,0-1.913,0.305-2.527,0.915c-0.615,0.609-1.008,1.475-1.178,2.595H113.741z"/>
					<path fill="#FFFFFF" d="M123.341,343.997c0.48-0.92,1.05-1.643,1.71-2.168c0.66-0.524,1.44-0.787,2.34-0.787
						c0.71,0,1.28,0.155,1.71,0.465l-0.24,2.775c-0.05,0.18-0.123,0.307-0.218,0.382s-0.223,0.112-0.382,0.112
						c-0.15,0-0.373-0.024-0.667-0.074c-0.295-0.05-0.583-0.075-0.863-0.075c-0.41,0-0.775,0.06-1.095,0.18
						c-0.32,0.12-0.607,0.293-0.863,0.518c-0.255,0.225-0.48,0.498-0.675,0.817c-0.195,0.32-0.377,0.686-0.547,1.095v9.48h-3.705
						v-15.39h2.175c0.38,0,0.645,0.067,0.795,0.202c0.15,0.135,0.25,0.378,0.3,0.728L123.341,343.997z"/>
					<path fill="#FFFFFF" d="M133.511,347.312c0,2.061,0.25,4.085,0.75,6.075c0.5,1.99,1.215,3.86,2.145,5.61
						c0.1,0.199,0.157,0.377,0.172,0.532s0.002,0.29-0.038,0.405c-0.04,0.114-0.103,0.215-0.188,0.3s-0.178,0.157-0.277,0.218
						l-1.65,1.005c-0.74-1.141-1.371-2.285-1.89-3.436c-0.52-1.149-0.945-2.31-1.275-3.479c-0.33-1.17-0.573-2.355-0.728-3.556
						c-0.155-1.199-0.232-2.425-0.232-3.675s0.077-2.478,0.232-3.683c0.155-1.204,0.397-2.393,0.728-3.563
						c0.33-1.17,0.755-2.327,1.275-3.472c0.52-1.146,1.15-2.288,1.89-3.428l1.65,0.99c0.1,0.06,0.192,0.132,0.277,0.217
						s0.147,0.186,0.188,0.3c0.04,0.115,0.053,0.251,0.038,0.405c-0.015,0.155-0.073,0.338-0.172,0.548
						c-0.93,1.74-1.646,3.607-2.145,5.603C133.76,343.225,133.511,345.252,133.511,347.312z"/>
					<path fill="#FFFFFF" d="M148.121,344.327c-0.1,0.16-0.205,0.272-0.315,0.337c-0.11,0.065-0.25,0.098-0.42,0.098
						c-0.18,0-0.373-0.05-0.577-0.15c-0.205-0.1-0.443-0.212-0.713-0.337s-0.577-0.237-0.922-0.338
						c-0.345-0.1-0.752-0.149-1.223-0.149c-0.73,0-1.302,0.155-1.717,0.465s-0.623,0.715-0.623,1.215
						c0,0.33,0.107,0.607,0.323,0.832c0.215,0.226,0.5,0.423,0.855,0.593c0.354,0.17,0.757,0.322,1.208,0.458
						c0.45,0.135,0.907,0.282,1.372,0.442c0.465,0.16,0.923,0.343,1.373,0.547c0.45,0.205,0.853,0.466,1.208,0.78
						c0.355,0.315,0.64,0.692,0.855,1.133s0.323,0.97,0.323,1.59c0,0.74-0.133,1.423-0.397,2.048
						c-0.265,0.625-0.658,1.165-1.178,1.62s-1.163,0.81-1.927,1.064c-0.765,0.255-1.648,0.383-2.647,0.383
						c-0.53,0-1.048-0.048-1.553-0.143c-0.505-0.096-0.99-0.228-1.455-0.397c-0.465-0.17-0.895-0.37-1.29-0.601
						c-0.395-0.229-0.742-0.479-1.042-0.75l0.855-1.409c0.11-0.17,0.24-0.301,0.39-0.391s0.34-0.135,0.57-0.135
						s0.448,0.065,0.653,0.195c0.205,0.13,0.442,0.27,0.712,0.42c0.27,0.149,0.587,0.29,0.953,0.42
						c0.365,0.13,0.827,0.194,1.387,0.194c0.44,0,0.817-0.052,1.133-0.157c0.315-0.104,0.575-0.242,0.78-0.412
						s0.355-0.368,0.45-0.593c0.095-0.225,0.142-0.457,0.142-0.697c0-0.36-0.107-0.655-0.322-0.885
						c-0.215-0.23-0.5-0.431-0.855-0.601s-0.76-0.322-1.215-0.457c-0.456-0.136-0.92-0.282-1.395-0.442
						c-0.475-0.16-0.94-0.348-1.395-0.563c-0.455-0.215-0.86-0.488-1.215-0.818c-0.355-0.329-0.64-0.734-0.855-1.215
						c-0.215-0.479-0.322-1.06-0.322-1.739c0-0.631,0.125-1.23,0.375-1.801c0.25-0.569,0.617-1.067,1.103-1.492
						c0.485-0.425,1.09-0.765,1.815-1.02c0.725-0.256,1.563-0.383,2.513-0.383c1.06,0,2.025,0.175,2.895,0.524
						c0.87,0.351,1.595,0.811,2.175,1.381L148.121,344.327z"/>
					<path fill="#FFFFFF" d="M154.766,349.486c0.06,0.791,0.2,1.473,0.42,2.048c0.22,0.575,0.51,1.05,0.87,1.425
						c0.36,0.375,0.787,0.655,1.282,0.84c0.495,0.186,1.042,0.278,1.643,0.278s1.118-0.07,1.552-0.21
						c0.435-0.141,0.815-0.295,1.14-0.466c0.325-0.17,0.61-0.324,0.855-0.465c0.245-0.14,0.482-0.21,0.712-0.21
						c0.31,0,0.54,0.115,0.69,0.346l1.065,1.35c-0.41,0.479-0.87,0.883-1.38,1.207c-0.51,0.325-1.042,0.585-1.597,0.78
						c-0.555,0.195-1.12,0.332-1.695,0.413c-0.575,0.079-1.132,0.119-1.672,0.119c-1.07,0-2.065-0.178-2.985-0.532
						c-0.92-0.354-1.72-0.88-2.4-1.575c-0.68-0.694-1.215-1.555-1.605-2.58c-0.39-1.024-0.585-2.212-0.585-3.563
						c0-1.05,0.17-2.037,0.51-2.962s0.827-1.73,1.462-2.415s1.41-1.228,2.325-1.628c0.915-0.399,1.947-0.6,3.097-0.6
						c0.97,0,1.865,0.155,2.685,0.465c0.82,0.311,1.525,0.763,2.115,1.357c0.59,0.595,1.052,1.325,1.387,2.19
						s0.503,1.853,0.503,2.962c0,0.561-0.06,0.938-0.18,1.133s-0.35,0.292-0.69,0.292H154.766z M161.831,347.252
						c0-0.48-0.067-0.933-0.203-1.357c-0.135-0.425-0.337-0.798-0.607-1.118c-0.27-0.319-0.613-0.572-1.027-0.757
						c-0.416-0.186-0.898-0.277-1.448-0.277c-1.07,0-1.913,0.305-2.527,0.915c-0.615,0.609-1.008,1.475-1.178,2.595H161.831z"/>
					<path fill="#FFFFFF" d="M171.686,334.427v22.29h-3.705v-22.29H171.686z"/>
					<path fill="#FFFFFF" d="M176.47,356.717v-12.6l-1.335-0.21c-0.291-0.061-0.523-0.163-0.698-0.308
						c-0.175-0.146-0.262-0.353-0.262-0.623v-1.515h2.295v-1.14c0-0.88,0.132-1.67,0.397-2.37c0.265-0.7,0.645-1.295,1.14-1.785
						c0.495-0.49,1.098-0.865,1.808-1.125s1.51-0.391,2.4-0.391c0.71,0,1.37,0.096,1.98,0.285l-0.075,1.86
						c-0.01,0.14-0.05,0.253-0.12,0.338s-0.163,0.149-0.277,0.194c-0.115,0.045-0.248,0.075-0.397,0.09
						c-0.15,0.016-0.31,0.022-0.48,0.022c-0.44,0-0.833,0.048-1.178,0.143c-0.345,0.096-0.637,0.261-0.877,0.495
						c-0.24,0.235-0.422,0.545-0.547,0.931c-0.125,0.385-0.188,0.862-0.188,1.432v1.021h4.005v2.64h-3.885v12.615H176.47z"/>
					<path fill="#FFFFFF" d="M185.425,360.392c-0.18-0.149-0.27-0.335-0.27-0.555c0-0.08,0.027-0.17,0.083-0.271
						c0.055-0.1,0.123-0.189,0.203-0.27c0.11-0.12,0.245-0.268,0.405-0.442c0.16-0.175,0.32-0.375,0.48-0.601
						c0.16-0.225,0.308-0.47,0.442-0.734c0.135-0.266,0.238-0.548,0.308-0.848c-0.32,0-0.61-0.058-0.87-0.173
						c-0.26-0.114-0.482-0.272-0.667-0.473c-0.185-0.199-0.33-0.435-0.435-0.704c-0.105-0.271-0.157-0.565-0.157-0.886
						c0-0.279,0.052-0.542,0.157-0.787c0.105-0.245,0.252-0.46,0.443-0.646c0.19-0.185,0.42-0.33,0.69-0.435
						c0.27-0.105,0.565-0.157,0.885-0.157c0.38,0,0.713,0.067,0.998,0.202c0.285,0.135,0.52,0.32,0.705,0.555
						c0.185,0.235,0.325,0.506,0.42,0.811s0.143,0.628,0.143,0.968c0,0.479-0.073,0.984-0.217,1.515
						c-0.146,0.53-0.358,1.06-0.638,1.59c-0.28,0.53-0.627,1.045-1.042,1.545s-0.888,0.96-1.417,1.38L185.425,360.392z"/>
					<path fill="#FFFFFF" d="M213.295,341.852v1.38c0,0.44-0.265,0.711-0.795,0.811l-1.38,0.255c0.21,0.53,0.315,1.11,0.315,1.74
						c0,0.76-0.153,1.447-0.458,2.063c-0.305,0.614-0.728,1.138-1.268,1.567s-1.178,0.763-1.913,0.997
						c-0.735,0.235-1.528,0.353-2.377,0.353c-0.3,0-0.59-0.015-0.87-0.045c-0.28-0.03-0.555-0.069-0.825-0.12
						c-0.48,0.29-0.72,0.615-0.72,0.976c0,0.31,0.143,0.537,0.427,0.683c0.285,0.145,0.663,0.247,1.133,0.307
						c0.47,0.061,1.005,0.098,1.605,0.113c0.6,0.015,1.215,0.047,1.845,0.097c0.63,0.051,1.245,0.138,1.845,0.263
						s1.135,0.322,1.605,0.593c0.47,0.27,0.848,0.638,1.132,1.103c0.285,0.465,0.428,1.063,0.428,1.792
						c0,0.681-0.167,1.341-0.502,1.98c-0.335,0.64-0.82,1.21-1.455,1.71c-0.635,0.5-1.415,0.902-2.34,1.207
						c-0.925,0.306-1.978,0.458-3.158,0.458c-1.16,0-2.17-0.112-3.03-0.338c-0.86-0.225-1.575-0.524-2.145-0.899
						c-0.57-0.375-0.995-0.808-1.275-1.298c-0.28-0.49-0.42-1-0.42-1.53c0-0.72,0.218-1.322,0.653-1.807
						c0.435-0.485,1.032-0.873,1.792-1.163c-0.41-0.21-0.735-0.489-0.975-0.84c-0.24-0.35-0.36-0.81-0.36-1.38
						c0-0.23,0.042-0.468,0.127-0.713c0.084-0.245,0.21-0.487,0.375-0.728c0.165-0.239,0.372-0.467,0.623-0.683
						c0.25-0.215,0.545-0.407,0.885-0.577c-0.78-0.42-1.393-0.979-1.837-1.68c-0.445-0.7-0.667-1.521-0.667-2.46
						c0-0.76,0.152-1.448,0.458-2.063c0.305-0.615,0.729-1.141,1.275-1.575c0.545-0.436,1.19-0.768,1.935-0.998
						c0.745-0.229,1.557-0.345,2.438-0.345c0.66,0,1.28,0.067,1.86,0.203c0.58,0.135,1.11,0.332,1.59,0.592H213.295z
						 M209.605,357.407c0-0.301-0.09-0.546-0.27-0.735c-0.18-0.189-0.425-0.338-0.735-0.442c-0.31-0.105-0.672-0.183-1.087-0.232
						s-0.855-0.088-1.32-0.112c-0.465-0.025-0.945-0.048-1.44-0.068c-0.495-0.02-0.978-0.06-1.448-0.119
						c-0.41,0.229-0.742,0.5-0.998,0.81c-0.255,0.31-0.382,0.67-0.382,1.08c0,0.27,0.067,0.522,0.203,0.758
						c0.135,0.234,0.35,0.437,0.645,0.607c0.295,0.17,0.677,0.302,1.147,0.397c0.47,0.095,1.045,0.143,1.725,0.143
						c0.69,0,1.285-0.053,1.785-0.158c0.5-0.104,0.913-0.25,1.238-0.435c0.325-0.186,0.563-0.405,0.712-0.66
						S209.605,357.707,209.605,357.407z M205.42,348.646c0.46,0,0.86-0.063,1.2-0.188s0.623-0.297,0.848-0.518
						c0.225-0.22,0.395-0.484,0.51-0.795c0.115-0.31,0.172-0.649,0.172-1.02c0-0.76-0.228-1.362-0.683-1.808
						s-1.138-0.668-2.047-0.668c-0.91,0-1.593,0.223-2.047,0.668c-0.456,0.445-0.683,1.048-0.683,1.808
						c0,0.359,0.057,0.695,0.172,1.005c0.115,0.31,0.285,0.577,0.51,0.803c0.225,0.225,0.51,0.399,0.855,0.524
						C204.572,348.584,204.97,348.646,205.42,348.646z"/>
					<path fill="#FFFFFF" d="M219.13,343.997c0.48-0.92,1.05-1.643,1.71-2.168c0.66-0.524,1.44-0.787,2.34-0.787
						c0.71,0,1.28,0.155,1.71,0.465l-0.24,2.775c-0.05,0.18-0.123,0.307-0.218,0.382s-0.223,0.112-0.382,0.112
						c-0.15,0-0.373-0.024-0.667-0.074c-0.295-0.05-0.583-0.075-0.863-0.075c-0.41,0-0.775,0.06-1.095,0.18
						c-0.32,0.12-0.607,0.293-0.863,0.518c-0.255,0.225-0.48,0.498-0.675,0.817c-0.195,0.32-0.377,0.686-0.547,1.095v9.48h-3.705
						v-15.39h2.175c0.38,0,0.645,0.067,0.795,0.202c0.15,0.135,0.25,0.378,0.3,0.728L219.13,343.997z"/>
					<path fill="#FFFFFF" d="M226.27,343.472c1.77-1.62,3.9-2.43,6.39-2.43c0.9,0,1.705,0.147,2.415,0.442s1.31,0.705,1.8,1.229
						c0.49,0.525,0.862,1.153,1.117,1.883c0.255,0.73,0.383,1.53,0.383,2.4v9.72h-1.68c-0.35,0-0.62-0.053-0.81-0.157
						c-0.19-0.105-0.34-0.317-0.45-0.638l-0.33-1.11c-0.39,0.351-0.771,0.658-1.14,0.923c-0.37,0.265-0.755,0.487-1.155,0.667
						c-0.4,0.181-0.827,0.317-1.282,0.413c-0.455,0.095-0.958,0.143-1.507,0.143c-0.65,0-1.25-0.088-1.8-0.263
						s-1.025-0.438-1.425-0.787c-0.4-0.351-0.71-0.785-0.93-1.306c-0.22-0.52-0.33-1.125-0.33-1.814
						c0-0.391,0.065-0.777,0.195-1.163c0.13-0.385,0.342-0.752,0.637-1.103c0.295-0.35,0.677-0.68,1.147-0.989
						c0.47-0.311,1.047-0.58,1.732-0.811c0.685-0.229,1.482-0.417,2.393-0.563c0.91-0.145,1.95-0.232,3.12-0.263v-0.899
						c0-1.03-0.22-1.793-0.66-2.288s-1.075-0.742-1.905-0.742c-0.6,0-1.098,0.07-1.493,0.21c-0.395,0.141-0.742,0.298-1.042,0.473
						c-0.3,0.175-0.572,0.332-0.817,0.473c-0.245,0.14-0.518,0.21-0.817,0.21c-0.26,0-0.48-0.067-0.66-0.203
						c-0.18-0.135-0.325-0.292-0.435-0.472L226.27,343.472z M234.76,350.146c-1.07,0.051-1.97,0.143-2.7,0.277
						c-0.73,0.136-1.315,0.308-1.755,0.518s-0.755,0.455-0.945,0.735s-0.285,0.585-0.285,0.915c0,0.65,0.192,1.115,0.578,1.395
						c0.385,0.28,0.887,0.421,1.507,0.421c0.76,0,1.417-0.138,1.973-0.413c0.555-0.274,1.097-0.692,1.627-1.252V350.146z"/>
					<path fill="#FFFFFF" d="M241.855,356.717v-15.39h2.265c0.48,0,0.795,0.225,0.945,0.675l0.24,1.14
						c0.27-0.3,0.553-0.575,0.848-0.825c0.295-0.249,0.61-0.465,0.945-0.645s0.695-0.322,1.08-0.428
						c0.385-0.104,0.808-0.157,1.268-0.157c0.97,0,1.768,0.263,2.392,0.787c0.625,0.525,1.094,1.223,1.402,2.093
						c0.24-0.51,0.541-0.947,0.9-1.313s0.756-0.662,1.186-0.893c0.43-0.229,0.887-0.399,1.373-0.51
						c0.484-0.11,0.971-0.165,1.461-0.165c0.85,0,1.605,0.13,2.266,0.39c0.66,0.261,1.215,0.641,1.666,1.141
						c0.449,0.5,0.791,1.109,1.027,1.83c0.234,0.72,0.352,1.545,0.352,2.475v9.795h-3.705v-9.795c0-0.98-0.215-1.718-0.645-2.213
						s-1.061-0.742-1.891-0.742c-0.379,0-0.732,0.065-1.057,0.195c-0.326,0.13-0.611,0.317-0.855,0.563
						c-0.246,0.245-0.438,0.553-0.578,0.922c-0.139,0.37-0.209,0.795-0.209,1.275v9.795h-3.72v-9.795c0-1.03-0.208-1.78-0.623-2.25
						c-0.415-0.47-1.022-0.705-1.823-0.705c-0.54,0-1.042,0.133-1.507,0.397s-0.897,0.628-1.297,1.088v11.265H241.855z"/>
					<path fill="#FFFFFF" d="M273.789,341.087c1.141,0,2.178,0.185,3.113,0.555c0.935,0.37,1.734,0.896,2.399,1.575
						s1.178,1.51,1.538,2.49c0.359,0.979,0.54,2.075,0.54,3.285c0,1.22-0.181,2.319-0.54,3.3c-0.36,0.979-0.873,1.814-1.538,2.505
						c-0.665,0.689-1.465,1.22-2.399,1.59c-0.936,0.37-1.973,0.555-3.113,0.555c-1.149,0-2.194-0.185-3.135-0.555
						s-1.742-0.9-2.407-1.59c-0.665-0.69-1.181-1.525-1.545-2.505c-0.365-0.98-0.548-2.08-0.548-3.3c0-1.21,0.183-2.306,0.548-3.285
						c0.364-0.98,0.88-1.811,1.545-2.49s1.467-1.205,2.407-1.575S272.64,341.087,273.789,341.087z M273.789,354.092
						c1.28,0,2.228-0.43,2.843-1.29s0.923-2.12,0.923-3.78c0-1.659-0.308-2.925-0.923-3.795s-1.563-1.305-2.843-1.305
						c-1.3,0-2.263,0.438-2.887,1.313c-0.626,0.875-0.938,2.138-0.938,3.787c0,1.65,0.312,2.908,0.938,3.772
						C271.526,353.659,272.489,354.092,273.789,354.092z"/>
					<path fill="#FFFFFF" d="M293.604,344.327c-0.1,0.16-0.205,0.272-0.314,0.337c-0.11,0.065-0.25,0.098-0.42,0.098
						c-0.181,0-0.373-0.05-0.578-0.15c-0.205-0.1-0.442-0.212-0.712-0.337c-0.271-0.125-0.578-0.237-0.923-0.338
						c-0.345-0.1-0.753-0.149-1.223-0.149c-0.729,0-1.303,0.155-1.718,0.465s-0.622,0.715-0.622,1.215
						c0,0.33,0.107,0.607,0.322,0.832c0.215,0.226,0.5,0.423,0.855,0.593c0.354,0.17,0.757,0.322,1.207,0.458
						c0.45,0.135,0.908,0.282,1.373,0.442s0.922,0.343,1.372,0.547c0.45,0.205,0.853,0.466,1.208,0.78
						c0.354,0.315,0.64,0.692,0.854,1.133s0.322,0.97,0.322,1.59c0,0.74-0.132,1.423-0.397,2.048
						c-0.265,0.625-0.657,1.165-1.177,1.62c-0.521,0.455-1.163,0.81-1.928,1.064c-0.766,0.255-1.647,0.383-2.647,0.383
						c-0.53,0-1.048-0.048-1.553-0.143c-0.505-0.096-0.99-0.228-1.455-0.397s-0.895-0.37-1.29-0.601
						c-0.395-0.229-0.742-0.479-1.042-0.75l0.854-1.409c0.11-0.17,0.24-0.301,0.391-0.391c0.149-0.09,0.34-0.135,0.569-0.135
						c0.23,0,0.447,0.065,0.652,0.195s0.442,0.27,0.713,0.42c0.27,0.149,0.587,0.29,0.952,0.42s0.828,0.194,1.388,0.194
						c0.44,0,0.817-0.052,1.133-0.157c0.314-0.104,0.575-0.242,0.78-0.412c0.204-0.17,0.354-0.368,0.449-0.593
						c0.096-0.225,0.143-0.457,0.143-0.697c0-0.36-0.107-0.655-0.322-0.885c-0.215-0.23-0.5-0.431-0.855-0.601
						c-0.354-0.17-0.76-0.322-1.215-0.457c-0.455-0.136-0.92-0.282-1.395-0.442c-0.476-0.16-0.94-0.348-1.396-0.563
						s-0.859-0.488-1.215-0.818c-0.354-0.329-0.64-0.734-0.854-1.215c-0.216-0.479-0.323-1.06-0.323-1.739
						c0-0.631,0.125-1.23,0.375-1.801c0.25-0.569,0.618-1.067,1.103-1.492c0.485-0.425,1.09-0.765,1.815-1.02
						c0.725-0.256,1.563-0.383,2.513-0.383c1.06,0,2.024,0.175,2.895,0.524c0.87,0.351,1.595,0.811,2.175,1.381L293.604,344.327z"/>
					<path fill="#FFFFFF" d="M298.824,347.312c0-2.06-0.247-4.087-0.742-6.082s-1.208-3.862-2.138-5.603
						c-0.11-0.21-0.173-0.393-0.188-0.548c-0.016-0.154-0.003-0.29,0.037-0.405c0.04-0.114,0.103-0.215,0.188-0.3
						s0.183-0.157,0.293-0.217l1.649-0.99c0.74,1.14,1.37,2.282,1.891,3.428c0.52,1.145,0.944,2.302,1.274,3.472
						s0.57,2.358,0.721,3.563c0.149,1.205,0.225,2.433,0.225,3.683s-0.075,2.476-0.225,3.675c-0.15,1.2-0.391,2.386-0.721,3.556
						s-0.755,2.33-1.274,3.479c-0.521,1.15-1.15,2.295-1.891,3.436l-1.649-1.005c-0.11-0.061-0.208-0.133-0.293-0.218
						s-0.147-0.186-0.188-0.3c-0.04-0.115-0.053-0.25-0.037-0.405c0.015-0.155,0.077-0.333,0.188-0.532
						c0.93-1.75,1.643-3.62,2.138-5.61S298.824,349.372,298.824,347.312z"/>
				</g>
			</g>
			<g>
				<g>
					<path fill="#FFFFFF" d="M61.151,404.068l-6.105,15.389h-3.36l-6.105-15.389h3.06c0.28,0,0.513,0.064,0.698,0.193
						c0.185,0.131,0.308,0.295,0.367,0.496l2.97,8.219c0.16,0.48,0.3,0.951,0.42,1.41c0.12,0.461,0.225,0.922,0.315,1.381
						c0.1-0.459,0.21-0.92,0.33-1.381c0.12-0.459,0.265-0.93,0.435-1.41l3.03-8.219c0.07-0.201,0.195-0.365,0.375-0.496
						c0.18-0.129,0.395-0.193,0.645-0.193H61.151z"/>
					<path fill="#FFFFFF" d="M69.447,403.828c1.14,0,2.177,0.184,3.112,0.555c0.935,0.369,1.735,0.895,2.4,1.574
						s1.178,1.51,1.538,2.49s0.54,2.076,0.54,3.285c0,1.221-0.18,2.32-0.54,3.301c-0.36,0.979-0.873,1.814-1.538,2.504
						s-1.465,1.221-2.4,1.59c-0.935,0.371-1.973,0.555-3.112,0.555c-1.15,0-2.195-0.184-3.135-0.555
						c-0.94-0.369-1.743-0.9-2.407-1.59c-0.666-0.689-1.18-1.525-1.545-2.504c-0.365-0.98-0.548-2.08-0.548-3.301
						c0-1.209,0.183-2.305,0.548-3.285c0.365-0.98,0.879-1.811,1.545-2.49c0.665-0.68,1.467-1.205,2.407-1.574
						C67.251,404.012,68.296,403.828,69.447,403.828z M69.447,416.832c1.28,0,2.228-0.43,2.842-1.289
						c0.615-0.861,0.922-2.121,0.922-3.781c0-1.658-0.307-2.924-0.922-3.795c-0.615-0.869-1.563-1.305-2.842-1.305
						c-1.3,0-2.263,0.438-2.888,1.313s-0.938,2.139-0.938,3.787c0,1.65,0.313,2.908,0.938,3.773S68.146,416.832,69.447,416.832z"/>
					<path fill="#FFFFFF" d="M83.622,397.168v22.289h-3.705v-22.289H83.622z"/>
					<path fill="#FFFFFF" d="M86.966,406.213c1.77-1.621,3.9-2.43,6.39-2.43c0.9,0,1.705,0.146,2.415,0.441s1.31,0.705,1.8,1.23
						c0.49,0.525,0.862,1.152,1.117,1.883s0.383,1.529,0.383,2.4v9.719h-1.68c-0.35,0-0.62-0.053-0.81-0.156
						c-0.19-0.105-0.34-0.318-0.45-0.639l-0.33-1.109c-0.39,0.35-0.771,0.658-1.14,0.922c-0.37,0.266-0.755,0.488-1.155,0.668
						s-0.827,0.316-1.282,0.412s-0.958,0.143-1.507,0.143c-0.65,0-1.25-0.088-1.8-0.262c-0.55-0.176-1.025-0.438-1.425-0.787
						c-0.4-0.352-0.71-0.785-0.93-1.307c-0.22-0.52-0.33-1.125-0.33-1.814c0-0.391,0.065-0.777,0.195-1.162
						c0.13-0.385,0.342-0.752,0.637-1.104c0.295-0.35,0.677-0.68,1.147-0.988c0.47-0.311,1.047-0.58,1.732-0.811
						s1.482-0.418,2.393-0.563s1.95-0.232,3.12-0.264v-0.898c0-1.031-0.22-1.793-0.66-2.289c-0.44-0.494-1.075-0.742-1.905-0.742
						c-0.6,0-1.098,0.07-1.493,0.211s-0.742,0.297-1.042,0.473c-0.3,0.174-0.572,0.332-0.817,0.473
						c-0.245,0.139-0.518,0.209-0.817,0.209c-0.26,0-0.48-0.066-0.66-0.203c-0.18-0.135-0.325-0.291-0.435-0.471L86.966,406.213z
						 M95.456,412.887c-1.07,0.051-1.97,0.143-2.7,0.277c-0.73,0.137-1.315,0.309-1.755,0.518c-0.44,0.211-0.755,0.455-0.945,0.736
						c-0.19,0.279-0.285,0.584-0.285,0.914c0,0.65,0.192,1.115,0.578,1.395c0.385,0.281,0.887,0.422,1.507,0.422
						c0.76,0,1.417-0.139,1.973-0.414c0.555-0.273,1.097-0.691,1.627-1.252V412.887z"/>
					<path fill="#FFFFFF" d="M106.046,406.738c0.48-0.92,1.05-1.643,1.71-2.168c0.66-0.525,1.44-0.787,2.34-0.787
						c0.71,0,1.28,0.154,1.71,0.465l-0.24,2.775c-0.05,0.18-0.123,0.307-0.218,0.381c-0.095,0.076-0.223,0.113-0.382,0.113
						c-0.15,0-0.373-0.025-0.667-0.074c-0.295-0.051-0.583-0.076-0.863-0.076c-0.41,0-0.775,0.061-1.095,0.18
						c-0.32,0.121-0.607,0.293-0.863,0.518c-0.255,0.225-0.48,0.498-0.675,0.818s-0.377,0.686-0.547,1.094v9.48h-3.705v-15.389
						h2.175c0.38,0,0.645,0.066,0.795,0.201c0.15,0.135,0.25,0.379,0.3,0.729L106.046,406.738z"/>
					<path fill="#FFFFFF" d="M124.81,421.467v2.4h-11.82v-2.4H124.81z"/>
					<path fill="#FFFFFF" d="M131.44,405.717c0.6-0.559,1.26-1.014,1.98-1.365c0.72-0.35,1.565-0.523,2.535-0.523
						c0.84,0,1.585,0.143,2.235,0.428c0.65,0.283,1.192,0.684,1.627,1.199s0.765,1.131,0.99,1.846
						c0.225,0.715,0.338,1.502,0.338,2.361v9.795h-3.705v-9.795c0-0.939-0.215-1.666-0.645-2.182
						c-0.43-0.516-1.085-0.773-1.965-0.773c-0.64,0-1.24,0.146-1.8,0.436c-0.56,0.291-1.09,0.686-1.59,1.186v11.129h-3.705v-22.289
						h3.705V405.717z"/>
					<path fill="#FFFFFF" d="M144.295,406.213c1.77-1.621,3.9-2.43,6.39-2.43c0.9,0,1.705,0.146,2.415,0.441s1.31,0.705,1.8,1.23
						c0.49,0.525,0.862,1.152,1.117,1.883s0.383,1.529,0.383,2.4v9.719h-1.68c-0.35,0-0.62-0.053-0.81-0.156
						c-0.19-0.105-0.34-0.318-0.45-0.639l-0.33-1.109c-0.39,0.35-0.771,0.658-1.14,0.922c-0.37,0.266-0.755,0.488-1.155,0.668
						s-0.827,0.316-1.282,0.412s-0.958,0.143-1.507,0.143c-0.65,0-1.25-0.088-1.8-0.262c-0.55-0.176-1.025-0.438-1.425-0.787
						c-0.4-0.352-0.71-0.785-0.93-1.307c-0.22-0.52-0.33-1.125-0.33-1.814c0-0.391,0.065-0.777,0.195-1.162
						c0.13-0.385,0.342-0.752,0.637-1.104c0.295-0.35,0.677-0.68,1.147-0.988c0.47-0.311,1.047-0.58,1.732-0.811
						s1.482-0.418,2.393-0.563s1.95-0.232,3.12-0.264v-0.898c0-1.031-0.22-1.793-0.66-2.289c-0.44-0.494-1.075-0.742-1.905-0.742
						c-0.6,0-1.098,0.07-1.493,0.211s-0.742,0.297-1.042,0.473c-0.3,0.174-0.572,0.332-0.817,0.473
						c-0.245,0.139-0.518,0.209-0.817,0.209c-0.26,0-0.48-0.066-0.66-0.203c-0.18-0.135-0.325-0.291-0.435-0.471L144.295,406.213z
						 M152.785,412.887c-1.07,0.051-1.97,0.143-2.7,0.277c-0.73,0.137-1.315,0.309-1.755,0.518c-0.44,0.211-0.755,0.455-0.945,0.736
						c-0.19,0.279-0.285,0.584-0.285,0.914c0,0.65,0.192,1.115,0.578,1.395c0.385,0.281,0.887,0.422,1.507,0.422
						c0.76,0,1.417-0.139,1.973-0.414c0.555-0.273,1.097-0.691,1.627-1.252V412.887z"/>
					<path fill="#FFFFFF" d="M170.905,407.322c-0.11,0.141-0.217,0.25-0.322,0.33s-0.258,0.121-0.458,0.121
						c-0.19,0-0.375-0.059-0.555-0.174s-0.395-0.244-0.645-0.389c-0.25-0.146-0.547-0.275-0.893-0.391
						c-0.345-0.115-0.772-0.172-1.282-0.172c-0.65,0-1.22,0.117-1.71,0.352c-0.49,0.234-0.898,0.572-1.223,1.012
						c-0.325,0.441-0.568,0.973-0.728,1.598c-0.16,0.625-0.24,1.334-0.24,2.123c0,0.82,0.087,1.551,0.263,2.189
						c0.175,0.641,0.428,1.178,0.757,1.613c0.33,0.436,0.73,0.766,1.2,0.99c0.47,0.225,1,0.338,1.59,0.338s1.067-0.072,1.433-0.219
						c0.365-0.145,0.672-0.305,0.922-0.48c0.25-0.174,0.467-0.334,0.653-0.479c0.185-0.145,0.392-0.219,0.623-0.219
						c0.3,0,0.525,0.115,0.675,0.346l1.065,1.35c-0.41,0.48-0.855,0.883-1.335,1.207c-0.48,0.326-0.978,0.586-1.493,0.781
						s-1.045,0.332-1.59,0.412s-1.087,0.119-1.627,0.119c-0.95,0-1.845-0.178-2.685-0.531c-0.84-0.355-1.575-0.873-2.205-1.553
						s-1.127-1.512-1.492-2.498c-0.365-0.984-0.548-2.107-0.548-3.367c0-1.129,0.163-2.178,0.488-3.143
						c0.325-0.965,0.802-1.801,1.432-2.504c0.63-0.705,1.41-1.258,2.34-1.658c0.93-0.4,2-0.6,3.21-0.6
						c1.15,0,2.157,0.184,3.022,0.555c0.865,0.369,1.643,0.9,2.333,1.59L170.905,407.322z"/>
					<path fill="#FFFFFF" d="M178.69,399.582c0,0.32-0.065,0.621-0.195,0.9s-0.302,0.525-0.518,0.734
						c-0.215,0.211-0.467,0.379-0.757,0.504s-0.6,0.188-0.93,0.188c-0.32,0-0.622-0.063-0.907-0.188s-0.533-0.293-0.743-0.504
						c-0.21-0.209-0.377-0.455-0.502-0.734s-0.188-0.58-0.188-0.9c0-0.33,0.063-0.639,0.188-0.93
						c0.125-0.289,0.292-0.539,0.502-0.75c0.21-0.209,0.458-0.377,0.743-0.502s0.587-0.188,0.907-0.188
						c0.33,0,0.64,0.063,0.93,0.188s0.542,0.293,0.757,0.502c0.215,0.211,0.388,0.461,0.518,0.75
						C178.625,398.943,178.69,399.252,178.69,399.582z M178.18,404.068v15.389h-3.72v-15.389H178.18z"/>
					<path fill="#FFFFFF" d="M181.6,406.213c1.77-1.621,3.9-2.43,6.39-2.43c0.9,0,1.705,0.146,2.415,0.441s1.31,0.705,1.8,1.23
						c0.49,0.525,0.862,1.152,1.117,1.883s0.383,1.529,0.383,2.4v9.719h-1.68c-0.35,0-0.62-0.053-0.81-0.156
						c-0.19-0.105-0.34-0.318-0.45-0.639l-0.33-1.109c-0.39,0.35-0.771,0.658-1.14,0.922c-0.37,0.266-0.755,0.488-1.155,0.668
						s-0.827,0.316-1.282,0.412s-0.958,0.143-1.507,0.143c-0.65,0-1.25-0.088-1.8-0.262c-0.55-0.176-1.025-0.438-1.425-0.787
						c-0.4-0.352-0.71-0.785-0.93-1.307c-0.22-0.52-0.33-1.125-0.33-1.814c0-0.391,0.065-0.777,0.195-1.162
						c0.13-0.385,0.342-0.752,0.637-1.104c0.295-0.35,0.677-0.68,1.147-0.988c0.47-0.311,1.047-0.58,1.732-0.811
						s1.482-0.418,2.393-0.563s1.95-0.232,3.12-0.264v-0.898c0-1.031-0.22-1.793-0.66-2.289c-0.44-0.494-1.075-0.742-1.905-0.742
						c-0.6,0-1.098,0.07-1.493,0.211s-0.742,0.297-1.042,0.473c-0.3,0.174-0.572,0.332-0.817,0.473
						c-0.245,0.139-0.518,0.209-0.817,0.209c-0.26,0-0.48-0.066-0.66-0.203c-0.18-0.135-0.325-0.291-0.435-0.471L181.6,406.213z
						 M190.089,412.887c-1.07,0.051-1.97,0.143-2.7,0.277c-0.73,0.137-1.315,0.309-1.755,0.518c-0.44,0.211-0.755,0.455-0.945,0.736
						c-0.19,0.279-0.285,0.584-0.285,0.914c0,0.65,0.192,1.115,0.578,1.395c0.385,0.281,0.887,0.422,1.507,0.422
						c0.76,0,1.417-0.139,1.973-0.414c0.555-0.273,1.097-0.691,1.627-1.252V412.887z"/>
					<path fill="#FFFFFF" d="M199.66,410.053c0,2.061,0.25,4.084,0.75,6.074c0.5,1.99,1.215,3.861,2.145,5.611
						c0.1,0.199,0.157,0.377,0.172,0.531c0.015,0.156,0.002,0.291-0.038,0.406c-0.04,0.113-0.103,0.215-0.188,0.299
						c-0.085,0.086-0.178,0.158-0.277,0.219l-1.65,1.004c-0.74-1.141-1.371-2.285-1.89-3.436c-0.52-1.148-0.945-2.309-1.275-3.479
						c-0.33-1.17-0.573-2.355-0.728-3.557c-0.155-1.199-0.232-2.424-0.232-3.674s0.077-2.479,0.232-3.684
						c0.155-1.203,0.397-2.393,0.728-3.563c0.33-1.17,0.755-2.326,1.275-3.471c0.52-1.146,1.15-2.289,1.89-3.428l1.65,0.99
						c0.1,0.059,0.192,0.131,0.277,0.217c0.085,0.084,0.147,0.186,0.188,0.299c0.04,0.115,0.053,0.252,0.038,0.406
						s-0.073,0.338-0.172,0.547c-0.93,1.74-1.646,3.607-2.145,5.604C199.909,405.965,199.66,407.992,199.66,410.053z"/>
					<path fill="#FFFFFF" d="M214.27,407.068c-0.1,0.16-0.205,0.271-0.315,0.336c-0.11,0.066-0.25,0.098-0.42,0.098
						c-0.18,0-0.373-0.049-0.577-0.15c-0.205-0.1-0.443-0.211-0.713-0.336s-0.577-0.238-0.922-0.338
						c-0.345-0.1-0.752-0.15-1.223-0.15c-0.73,0-1.302,0.156-1.717,0.465c-0.415,0.311-0.623,0.715-0.623,1.215
						c0,0.33,0.107,0.607,0.323,0.832c0.215,0.227,0.5,0.424,0.855,0.594c0.354,0.17,0.757,0.322,1.208,0.457
						c0.45,0.135,0.907,0.283,1.372,0.443c0.465,0.16,0.923,0.342,1.373,0.547c0.45,0.205,0.853,0.465,1.208,0.779
						c0.355,0.316,0.64,0.693,0.855,1.133c0.215,0.441,0.323,0.971,0.323,1.59c0,0.74-0.133,1.424-0.397,2.049
						c-0.265,0.625-0.658,1.164-1.178,1.619s-1.163,0.811-1.927,1.064c-0.765,0.256-1.648,0.383-2.647,0.383
						c-0.53,0-1.048-0.047-1.553-0.143s-0.99-0.227-1.455-0.396c-0.465-0.17-0.895-0.371-1.29-0.602
						c-0.395-0.229-0.742-0.479-1.042-0.75l0.855-1.408c0.11-0.17,0.24-0.301,0.39-0.391s0.34-0.135,0.57-0.135
						s0.448,0.064,0.653,0.195c0.205,0.129,0.442,0.27,0.712,0.42c0.27,0.148,0.587,0.289,0.953,0.42
						c0.365,0.129,0.827,0.193,1.387,0.193c0.44,0,0.817-0.051,1.133-0.156c0.315-0.105,0.575-0.242,0.78-0.412
						s0.355-0.369,0.45-0.594c0.095-0.225,0.142-0.457,0.142-0.697c0-0.359-0.107-0.654-0.322-0.885c-0.215-0.23-0.5-0.43-0.855-0.6
						s-0.76-0.322-1.215-0.457c-0.456-0.137-0.92-0.283-1.395-0.443c-0.475-0.16-0.94-0.348-1.395-0.563
						c-0.455-0.215-0.86-0.488-1.215-0.818c-0.355-0.328-0.64-0.734-0.855-1.215c-0.215-0.479-0.322-1.059-0.322-1.738
						c0-0.631,0.125-1.23,0.375-1.801s0.617-1.068,1.103-1.492c0.485-0.426,1.09-0.766,1.815-1.02
						c0.725-0.256,1.563-0.383,2.513-0.383c1.06,0,2.025,0.174,2.895,0.523c0.87,0.352,1.595,0.811,2.175,1.381L214.27,407.068z"/>
					<path fill="#FFFFFF" d="M220.915,412.227c0.06,0.791,0.2,1.473,0.42,2.049c0.22,0.574,0.51,1.049,0.87,1.424
						c0.36,0.375,0.787,0.656,1.282,0.84c0.495,0.186,1.042,0.279,1.643,0.279s1.118-0.07,1.552-0.211
						c0.435-0.141,0.815-0.295,1.14-0.465c0.325-0.17,0.61-0.324,0.855-0.465s0.482-0.211,0.712-0.211c0.31,0,0.54,0.115,0.69,0.346
						l1.065,1.35c-0.41,0.48-0.87,0.883-1.38,1.207c-0.51,0.326-1.042,0.586-1.597,0.781c-0.555,0.195-1.12,0.332-1.695,0.412
						s-1.132,0.119-1.672,0.119c-1.07,0-2.065-0.178-2.985-0.531c-0.92-0.355-1.72-0.881-2.4-1.576
						c-0.68-0.693-1.215-1.555-1.605-2.58c-0.39-1.023-0.585-2.211-0.585-3.563c0-1.049,0.17-2.037,0.51-2.961
						c0.34-0.926,0.827-1.73,1.462-2.416c0.635-0.684,1.41-1.227,2.325-1.627s1.947-0.6,3.097-0.6c0.97,0,1.865,0.154,2.685,0.465
						s1.525,0.762,2.115,1.357c0.59,0.594,1.052,1.324,1.387,2.189s0.503,1.854,0.503,2.963c0,0.561-0.06,0.938-0.18,1.133
						s-0.35,0.291-0.69,0.291H220.915z M227.979,409.992c0-0.48-0.067-0.932-0.203-1.357c-0.135-0.424-0.337-0.797-0.607-1.117
						s-0.613-0.572-1.027-0.758c-0.416-0.186-0.898-0.277-1.448-0.277c-1.07,0-1.913,0.305-2.527,0.916
						c-0.615,0.609-1.008,1.475-1.178,2.594H227.979z"/>
					<path fill="#FFFFFF" d="M237.834,397.168v22.289h-3.705v-22.289H237.834z"/>
					<path fill="#FFFFFF" d="M242.619,419.457v-12.6l-1.335-0.209c-0.291-0.061-0.523-0.164-0.698-0.309s-0.262-0.352-0.262-0.623
						v-1.514h2.295v-1.141c0-0.879,0.132-1.67,0.397-2.369c0.265-0.701,0.645-1.295,1.14-1.785c0.495-0.49,1.098-0.865,1.808-1.125
						s1.51-0.391,2.4-0.391c0.71,0,1.37,0.096,1.98,0.285l-0.075,1.859c-0.01,0.141-0.05,0.254-0.12,0.338
						c-0.07,0.086-0.163,0.15-0.277,0.195c-0.115,0.045-0.248,0.074-0.397,0.09s-0.31,0.021-0.48,0.021
						c-0.44,0-0.833,0.049-1.178,0.143c-0.345,0.096-0.637,0.262-0.877,0.496c-0.24,0.234-0.422,0.545-0.547,0.93
						c-0.125,0.385-0.188,0.863-0.188,1.432v1.021h4.005v2.639h-3.885v12.615H242.619z"/>
					<path fill="#FFFFFF" d="M251.573,423.133c-0.18-0.15-0.27-0.336-0.27-0.555c0-0.08,0.027-0.17,0.082-0.271
						c0.055-0.1,0.123-0.189,0.203-0.27c0.109-0.119,0.245-0.268,0.405-0.441c0.159-0.176,0.319-0.375,0.479-0.602
						c0.16-0.225,0.308-0.469,0.442-0.734s0.237-0.547,0.308-0.848c-0.32,0-0.61-0.057-0.87-0.172s-0.482-0.273-0.667-0.473
						c-0.186-0.199-0.33-0.436-0.436-0.705c-0.105-0.27-0.157-0.564-0.157-0.885c0-0.279,0.052-0.543,0.157-0.787
						c0.105-0.246,0.252-0.461,0.443-0.646c0.189-0.184,0.419-0.33,0.689-0.434c0.27-0.105,0.564-0.158,0.885-0.158
						c0.38,0,0.713,0.068,0.998,0.203c0.284,0.135,0.52,0.32,0.705,0.555c0.185,0.234,0.324,0.506,0.42,0.811
						c0.095,0.305,0.143,0.627,0.143,0.967c0,0.48-0.073,0.984-0.218,1.516c-0.146,0.529-0.357,1.059-0.638,1.59
						c-0.28,0.529-0.628,1.045-1.043,1.545s-0.887,0.959-1.417,1.379L251.573,423.133z"/>
					<path fill="#FFFFFF" d="M279.203,404.068v15.389h-2.265c-0.49,0-0.801-0.225-0.931-0.674l-0.255-1.23
						c-0.63,0.641-1.325,1.158-2.085,1.553s-1.655,0.592-2.685,0.592c-0.84,0-1.583-0.143-2.228-0.428
						c-0.646-0.285-1.188-0.688-1.628-1.207c-0.439-0.52-0.772-1.137-0.997-1.852s-0.338-1.504-0.338-2.363v-9.779h3.705v9.779
						c0,0.939,0.218,1.668,0.652,2.182c0.436,0.516,1.088,0.773,1.958,0.773c0.64,0,1.239-0.143,1.8-0.428
						c0.56-0.285,1.09-0.678,1.59-1.178v-11.129H279.203z"/>
					<path fill="#FFFFFF" d="M286.328,405.957c0.31-0.309,0.638-0.598,0.982-0.861c0.345-0.266,0.71-0.49,1.095-0.676
						c0.386-0.186,0.798-0.33,1.238-0.436c0.439-0.104,0.92-0.156,1.439-0.156c0.84,0,1.585,0.143,2.235,0.428
						c0.649,0.283,1.192,0.684,1.627,1.199c0.436,0.516,0.766,1.131,0.99,1.846c0.226,0.715,0.338,1.502,0.338,2.361v9.795h-3.705
						v-9.795c0-0.939-0.215-1.666-0.646-2.182c-0.43-0.516-1.085-0.773-1.965-0.773c-0.64,0-1.24,0.146-1.8,0.436
						c-0.561,0.291-1.09,0.686-1.59,1.186v11.129h-3.705v-15.389h2.265c0.48,0,0.795,0.225,0.945,0.674L286.328,405.957z"/>
					<path fill="#FFFFFF" d="M299.423,406.213c1.771-1.621,3.9-2.43,6.391-2.43c0.899,0,1.704,0.146,2.415,0.441
						c0.71,0.295,1.31,0.705,1.8,1.23c0.489,0.525,0.862,1.152,1.117,1.883s0.383,1.529,0.383,2.4v9.719h-1.681
						c-0.35,0-0.62-0.053-0.81-0.156c-0.19-0.105-0.34-0.318-0.45-0.639l-0.33-1.109c-0.39,0.35-0.77,0.658-1.14,0.922
						c-0.37,0.266-0.755,0.488-1.155,0.668c-0.399,0.18-0.827,0.316-1.282,0.412s-0.958,0.143-1.508,0.143
						c-0.649,0-1.25-0.088-1.8-0.262c-0.55-0.176-1.025-0.438-1.425-0.787c-0.4-0.352-0.71-0.785-0.93-1.307
						c-0.221-0.52-0.33-1.125-0.33-1.814c0-0.391,0.064-0.777,0.194-1.162s0.343-0.752,0.638-1.104
						c0.295-0.35,0.678-0.68,1.147-0.988c0.47-0.311,1.048-0.58,1.732-0.811c0.686-0.23,1.482-0.418,2.393-0.563
						s1.95-0.232,3.12-0.264v-0.898c0-1.031-0.22-1.793-0.66-2.289c-0.44-0.494-1.075-0.742-1.905-0.742
						c-0.6,0-1.097,0.07-1.492,0.211c-0.395,0.141-0.742,0.297-1.042,0.473c-0.301,0.174-0.573,0.332-0.817,0.473
						c-0.246,0.139-0.518,0.209-0.818,0.209c-0.26,0-0.479-0.066-0.659-0.203c-0.181-0.135-0.325-0.291-0.436-0.471L299.423,406.213
						z M307.913,412.887c-1.07,0.051-1.97,0.143-2.7,0.277c-0.729,0.137-1.314,0.309-1.755,0.518
						c-0.44,0.211-0.755,0.455-0.945,0.736c-0.189,0.279-0.284,0.584-0.284,0.914c0,0.65,0.192,1.115,0.577,1.395
						c0.385,0.281,0.888,0.422,1.508,0.422c0.76,0,1.417-0.139,1.972-0.414c0.556-0.273,1.098-0.691,1.628-1.252V412.887z"/>
					<path fill="#FFFFFF" d="M326.078,421.467v2.4h-11.82v-2.4H326.078z"/>
					<path fill="#FFFFFF" d="M340.028,407.322c-0.11,0.141-0.218,0.25-0.323,0.33c-0.104,0.08-0.257,0.121-0.457,0.121
						c-0.19,0-0.375-0.059-0.556-0.174c-0.18-0.115-0.395-0.244-0.645-0.389c-0.25-0.146-0.548-0.275-0.893-0.391
						s-0.772-0.172-1.282-0.172c-0.65,0-1.221,0.117-1.71,0.352c-0.49,0.234-0.897,0.572-1.223,1.012
						c-0.325,0.441-0.567,0.973-0.728,1.598s-0.24,1.334-0.24,2.123c0,0.82,0.088,1.551,0.263,2.189
						c0.175,0.641,0.428,1.178,0.758,1.613s0.729,0.766,1.199,0.99c0.471,0.225,1,0.338,1.591,0.338c0.59,0,1.067-0.072,1.433-0.219
						c0.364-0.145,0.672-0.305,0.922-0.48c0.25-0.174,0.468-0.334,0.652-0.479c0.186-0.145,0.393-0.219,0.623-0.219
						c0.3,0,0.524,0.115,0.675,0.346l1.065,1.35c-0.41,0.48-0.855,0.883-1.336,1.207c-0.479,0.326-0.978,0.586-1.492,0.781
						s-1.045,0.332-1.59,0.412s-1.088,0.119-1.628,0.119c-0.95,0-1.845-0.178-2.685-0.531c-0.84-0.355-1.575-0.873-2.205-1.553
						s-1.128-1.512-1.492-2.498c-0.365-0.984-0.548-2.107-0.548-3.367c0-1.129,0.162-2.178,0.487-3.143s0.803-1.801,1.433-2.504
						c0.63-0.705,1.41-1.258,2.34-1.658c0.931-0.4,2-0.6,3.21-0.6c1.15,0,2.158,0.184,3.022,0.555c0.865,0.369,1.643,0.9,2.333,1.59
						L340.028,407.322z"/>
					<path fill="#FFFFFF" d="M347.813,399.582c0,0.32-0.064,0.621-0.194,0.9c-0.131,0.279-0.303,0.525-0.518,0.734
						c-0.216,0.211-0.468,0.379-0.758,0.504s-0.6,0.188-0.93,0.188c-0.32,0-0.623-0.063-0.908-0.188
						c-0.284-0.125-0.532-0.293-0.742-0.504c-0.21-0.209-0.378-0.455-0.502-0.734c-0.126-0.279-0.188-0.58-0.188-0.9
						c0-0.33,0.062-0.639,0.188-0.93c0.124-0.289,0.292-0.539,0.502-0.75c0.21-0.209,0.458-0.377,0.742-0.502
						c0.285-0.125,0.588-0.188,0.908-0.188c0.33,0,0.64,0.063,0.93,0.188s0.542,0.293,0.758,0.502
						c0.215,0.211,0.387,0.461,0.518,0.75C347.748,398.943,347.813,399.252,347.813,399.582z M347.303,404.068v15.389h-3.72v-15.389
						H347.303z"/>
					<path fill="#FFFFFF" d="M364.343,404.068v15.389h-2.265c-0.49,0-0.801-0.225-0.931-0.674l-0.255-1.23
						c-0.63,0.641-1.325,1.158-2.085,1.553s-1.655,0.592-2.685,0.592c-0.84,0-1.583-0.143-2.228-0.428
						c-0.646-0.285-1.188-0.688-1.628-1.207c-0.439-0.52-0.772-1.137-0.997-1.852s-0.338-1.504-0.338-2.363v-9.779h3.705v9.779
						c0,0.939,0.218,1.668,0.652,2.182c0.436,0.516,1.088,0.773,1.958,0.773c0.64,0,1.239-0.143,1.8-0.428
						c0.56-0.285,1.09-0.678,1.59-1.178v-11.129H364.343z"/>
					<path fill="#FFFFFF" d="M381.368,397.168v22.289h-2.266c-0.49,0-0.8-0.225-0.93-0.674l-0.315-1.486
						c-0.62,0.711-1.332,1.285-2.137,1.727c-0.806,0.439-1.743,0.658-2.813,0.658c-0.841,0-1.61-0.174-2.311-0.523
						c-0.7-0.352-1.303-0.857-1.808-1.523c-0.505-0.664-0.895-1.486-1.17-2.467s-0.412-2.1-0.412-3.361
						c0-1.139,0.154-2.199,0.465-3.18c0.31-0.979,0.755-1.83,1.335-2.549c0.58-0.721,1.275-1.283,2.085-1.688
						c0.811-0.406,1.72-0.607,2.73-0.607c0.859,0,1.595,0.135,2.205,0.404c0.609,0.27,1.154,0.635,1.635,1.096v-8.115H381.368z
						 M377.663,407.998c-0.42-0.51-0.878-0.871-1.373-1.08c-0.495-0.211-1.027-0.316-1.598-0.316c-0.56,0-1.064,0.105-1.515,0.316
						c-0.45,0.209-0.835,0.527-1.155,0.951c-0.319,0.426-0.564,0.967-0.734,1.621s-0.255,1.428-0.255,2.316
						c0,0.9,0.072,1.664,0.217,2.289c0.146,0.625,0.353,1.135,0.623,1.529c0.27,0.395,0.6,0.68,0.99,0.855
						c0.39,0.174,0.824,0.262,1.305,0.262c0.77,0,1.425-0.16,1.965-0.48c0.54-0.318,1.05-0.773,1.53-1.363V407.998z"/>
					<path fill="#FFFFFF" d="M384.667,406.213c1.771-1.621,3.9-2.43,6.391-2.43c0.899,0,1.704,0.146,2.415,0.441
						c0.71,0.295,1.31,0.705,1.8,1.23c0.489,0.525,0.862,1.152,1.117,1.883s0.383,1.529,0.383,2.4v9.719h-1.681
						c-0.35,0-0.62-0.053-0.81-0.156c-0.19-0.105-0.34-0.318-0.45-0.639l-0.33-1.109c-0.39,0.35-0.77,0.658-1.14,0.922
						c-0.37,0.266-0.755,0.488-1.155,0.668c-0.399,0.18-0.827,0.316-1.282,0.412s-0.958,0.143-1.508,0.143
						c-0.649,0-1.25-0.088-1.8-0.262c-0.55-0.176-1.025-0.438-1.425-0.787c-0.4-0.352-0.71-0.785-0.93-1.307
						c-0.221-0.52-0.33-1.125-0.33-1.814c0-0.391,0.064-0.777,0.194-1.162s0.343-0.752,0.638-1.104
						c0.295-0.35,0.678-0.68,1.147-0.988c0.47-0.311,1.048-0.58,1.732-0.811c0.686-0.23,1.482-0.418,2.393-0.563
						s1.95-0.232,3.12-0.264v-0.898c0-1.031-0.22-1.793-0.66-2.289c-0.44-0.494-1.075-0.742-1.905-0.742
						c-0.6,0-1.097,0.07-1.492,0.211c-0.395,0.141-0.742,0.297-1.042,0.473c-0.301,0.174-0.573,0.332-0.817,0.473
						c-0.246,0.139-0.518,0.209-0.818,0.209c-0.26,0-0.479-0.066-0.659-0.203c-0.181-0.135-0.325-0.291-0.436-0.471L384.667,406.213
						z M393.157,412.887c-1.07,0.051-1.97,0.143-2.7,0.277c-0.729,0.137-1.314,0.309-1.755,0.518
						c-0.44,0.211-0.755,0.455-0.945,0.736c-0.189,0.279-0.284,0.584-0.284,0.914c0,0.65,0.192,1.115,0.577,1.395
						c0.385,0.281,0.888,0.422,1.508,0.422c0.76,0,1.417-0.139,1.972-0.414c0.556-0.273,1.098-0.691,1.628-1.252V412.887z"/>
					<path fill="#FFFFFF" d="M413.617,397.168v22.289h-2.266c-0.49,0-0.8-0.225-0.93-0.674l-0.315-1.486
						c-0.62,0.711-1.332,1.285-2.137,1.727c-0.806,0.439-1.743,0.658-2.813,0.658c-0.841,0-1.61-0.174-2.311-0.523
						c-0.7-0.352-1.303-0.857-1.808-1.523c-0.505-0.664-0.895-1.486-1.17-2.467s-0.412-2.1-0.412-3.361
						c0-1.139,0.154-2.199,0.465-3.18c0.31-0.979,0.755-1.83,1.335-2.549c0.58-0.721,1.275-1.283,2.085-1.688
						c0.811-0.406,1.72-0.607,2.73-0.607c0.859,0,1.595,0.135,2.205,0.404c0.609,0.27,1.154,0.635,1.635,1.096v-8.115H413.617z
						 M409.912,407.998c-0.42-0.51-0.878-0.871-1.373-1.08c-0.495-0.211-1.027-0.316-1.598-0.316c-0.56,0-1.064,0.105-1.515,0.316
						c-0.45,0.209-0.835,0.527-1.155,0.951c-0.319,0.426-0.564,0.967-0.734,1.621s-0.255,1.428-0.255,2.316
						c0,0.9,0.072,1.664,0.217,2.289c0.146,0.625,0.353,1.135,0.623,1.529c0.27,0.395,0.6,0.68,0.99,0.855
						c0.39,0.174,0.824,0.262,1.305,0.262c0.77,0,1.425-0.16,1.965-0.48c0.54-0.318,1.05-0.773,1.53-1.363V407.998z"/>
					<path fill="#FFFFFF" d="M419.361,410.053c0-2.061-0.247-4.088-0.742-6.082c-0.495-1.996-1.208-3.863-2.138-5.604
						c-0.11-0.209-0.173-0.393-0.188-0.547c-0.016-0.154-0.003-0.291,0.037-0.406c0.04-0.113,0.103-0.215,0.188-0.299
						c0.085-0.086,0.183-0.158,0.293-0.217l1.649-0.99c0.74,1.139,1.37,2.281,1.891,3.428c0.52,1.145,0.944,2.301,1.274,3.471
						s0.57,2.359,0.721,3.563c0.149,1.205,0.225,2.434,0.225,3.684s-0.075,2.475-0.225,3.674c-0.15,1.201-0.391,2.387-0.721,3.557
						s-0.755,2.33-1.274,3.479c-0.521,1.15-1.15,2.295-1.891,3.436l-1.649-1.004c-0.11-0.061-0.208-0.133-0.293-0.219
						c-0.085-0.084-0.147-0.186-0.188-0.299c-0.04-0.115-0.053-0.25-0.037-0.406c0.015-0.154,0.077-0.332,0.188-0.531
						c0.93-1.75,1.643-3.621,2.138-5.611S419.361,412.113,419.361,410.053z"/>
				</g>
			</g>
		</g>
		
			<line fill="#337C98" stroke="#72B5CF" stroke-width="11.1307" stroke-linecap="round" stroke-linejoin="round" stroke-miterlimit="10" x1="6.851" y1="88.823" x2="667.243" y2="88.823"/>
		
			<line fill="#337C98" stroke="#72B5CF" stroke-width="11.1307" stroke-linecap="round" stroke-linejoin="round" stroke-miterlimit="10" x1="6.851" y1="228.823" x2="667.243" y2="228.823"/>
	</g>
</g>
</svg>
