<?xml version="1.0" encoding="utf-8"?>
<!-- Generator: Adobe Illustrator 16.0.0, SVG Export Plug-In . SVG Version: 6.00 Build 0)  -->
<!DOCTYPE svg PUBLIC "-//W3C//DTD SVG 1.1//EN" "http://www.w3.org/Graphics/SVG/1.1/DTD/svg11.dtd">
<svg version="1.1" xmlns="http://www.w3.org/2000/svg" xmlns:xlink="http://www.w3.org/1999/xlink" x="0px" y="0px"
	 width="619.472px" height="672.363px" viewBox="0 0 619.472 672.363" enable-background="new 0 0 619.472 672.363"
	 xml:space="preserve">
<g id="Layer_2">
</g>
<g id="Layer_1">
	<path fill="#72B5CF" d="M523.375,336.18c0-117.986-95.652-213.636-213.639-213.636S96.097,218.193,96.097,336.18
		c0,117.99,95.653,213.639,213.64,213.639S523.375,454.17,523.375,336.18z"/>
	<g>
		<g>
			<path fill="#FF2455" d="M33.971,95.331c-0.11,0.14-0.217,0.25-0.322,0.33s-0.258,0.12-0.458,0.12
				c-0.19,0-0.375-0.058-0.555-0.173s-0.395-0.245-0.645-0.39c-0.25-0.146-0.547-0.275-0.893-0.391
				c-0.345-0.114-0.772-0.172-1.282-0.172c-0.65,0-1.22,0.117-1.71,0.353c-0.49,0.234-0.898,0.572-1.223,1.012
				c-0.325,0.44-0.568,0.973-0.728,1.598c-0.16,0.625-0.24,1.333-0.24,2.123c0,0.819,0.087,1.55,0.263,2.189
				c0.175,0.641,0.428,1.178,0.757,1.612c0.33,0.436,0.73,0.766,1.2,0.99c0.47,0.226,1,0.338,1.59,0.338s1.067-0.072,1.433-0.218
				c0.365-0.145,0.672-0.305,0.922-0.48c0.25-0.175,0.467-0.334,0.653-0.479c0.185-0.145,0.392-0.218,0.623-0.218
				c0.3,0,0.525,0.115,0.675,0.346l1.065,1.35c-0.41,0.479-0.855,0.883-1.335,1.207c-0.48,0.325-0.978,0.585-1.493,0.78
				s-1.045,0.332-1.59,0.413c-0.545,0.079-1.087,0.119-1.627,0.119c-0.95,0-1.845-0.178-2.685-0.532s-1.575-0.872-2.205-1.553
				c-0.63-0.68-1.127-1.512-1.492-2.497c-0.365-0.985-0.548-2.107-0.548-3.367c0-1.13,0.163-2.178,0.488-3.143
				c0.325-0.965,0.802-1.801,1.432-2.505c0.63-0.705,1.41-1.258,2.34-1.658c0.93-0.399,2-0.6,3.21-0.6
				c1.15,0,2.157,0.185,3.022,0.555c0.865,0.37,1.643,0.9,2.333,1.59L33.971,95.331z"/>
			<path fill="#FF2455" d="M39.986,100.235c0.06,0.791,0.2,1.473,0.42,2.048c0.22,0.575,0.51,1.05,0.87,1.425
				c0.36,0.375,0.787,0.655,1.282,0.84c0.495,0.186,1.042,0.278,1.643,0.278s1.118-0.07,1.552-0.21
				c0.435-0.141,0.815-0.295,1.14-0.466c0.325-0.17,0.61-0.324,0.855-0.465c0.245-0.14,0.482-0.21,0.712-0.21
				c0.31,0,0.54,0.115,0.69,0.346l1.065,1.35c-0.41,0.479-0.87,0.883-1.38,1.207c-0.51,0.325-1.042,0.585-1.597,0.78
				c-0.555,0.195-1.12,0.332-1.695,0.413c-0.575,0.079-1.132,0.119-1.672,0.119c-1.07,0-2.065-0.178-2.985-0.532
				c-0.92-0.354-1.72-0.88-2.4-1.575c-0.68-0.694-1.215-1.555-1.605-2.58c-0.39-1.024-0.585-2.212-0.585-3.563
				c0-1.05,0.17-2.037,0.51-2.962s0.827-1.73,1.462-2.415s1.41-1.228,2.325-1.628c0.915-0.399,1.947-0.6,3.097-0.6
				c0.97,0,1.865,0.155,2.685,0.465c0.82,0.311,1.525,0.763,2.115,1.357c0.59,0.595,1.052,1.325,1.387,2.19s0.503,1.853,0.503,2.962
				c0,0.561-0.06,0.938-0.18,1.133s-0.35,0.292-0.69,0.292H39.986z M47.051,98.001c0-0.48-0.067-0.933-0.203-1.357
				c-0.135-0.425-0.337-0.798-0.607-1.118c-0.27-0.319-0.613-0.572-1.027-0.757c-0.416-0.186-0.898-0.277-1.448-0.277
				c-1.07,0-1.913,0.305-2.527,0.915c-0.615,0.609-1.008,1.475-1.178,2.595H47.051z"/>
			<path fill="#FF2455" d="M56.906,85.176v22.29h-3.705v-22.29H56.906z"/>
			<path fill="#FF2455" d="M73.871,92.076v15.39h-2.265c-0.49,0-0.8-0.225-0.93-0.675l-0.255-1.23
				c-0.63,0.641-1.325,1.158-2.085,1.553c-0.76,0.395-1.655,0.593-2.685,0.593c-0.84,0-1.583-0.143-2.228-0.428
				s-1.188-0.688-1.627-1.207c-0.44-0.521-0.772-1.138-0.998-1.853s-0.337-1.503-0.337-2.363v-9.779h3.705v9.779
				c0,0.94,0.218,1.668,0.653,2.183c0.435,0.516,1.087,0.772,1.958,0.772c0.64,0,1.24-0.143,1.8-0.427
				c0.56-0.285,1.09-0.678,1.59-1.178v-11.13H73.871z"/>
			<path fill="#FF2455" d="M81.28,85.176v22.29h-3.705v-22.29H81.28z"/>
			<path fill="#FF2455" d="M84.625,94.221c1.77-1.62,3.9-2.43,6.39-2.43c0.9,0,1.705,0.147,2.415,0.442s1.31,0.705,1.8,1.229
				c0.49,0.525,0.862,1.153,1.117,1.883c0.255,0.73,0.383,1.53,0.383,2.4v9.72h-1.68c-0.35,0-0.62-0.053-0.81-0.157
				c-0.19-0.105-0.34-0.317-0.45-0.638l-0.33-1.11c-0.39,0.351-0.771,0.658-1.14,0.923c-0.37,0.265-0.755,0.487-1.155,0.667
				c-0.4,0.181-0.827,0.317-1.282,0.413c-0.455,0.095-0.958,0.143-1.507,0.143c-0.65,0-1.25-0.088-1.8-0.263
				s-1.025-0.438-1.425-0.787c-0.4-0.351-0.71-0.785-0.93-1.306c-0.22-0.52-0.33-1.125-0.33-1.814c0-0.391,0.065-0.777,0.195-1.163
				c0.13-0.385,0.342-0.752,0.637-1.103c0.295-0.35,0.677-0.68,1.147-0.989c0.47-0.311,1.047-0.58,1.732-0.811
				c0.685-0.229,1.482-0.417,2.393-0.563c0.91-0.145,1.95-0.232,3.12-0.263v-0.899c0-1.03-0.22-1.793-0.66-2.288
				s-1.075-0.742-1.905-0.742c-0.6,0-1.098,0.07-1.493,0.21c-0.395,0.141-0.742,0.298-1.042,0.473
				c-0.3,0.175-0.572,0.332-0.817,0.473c-0.245,0.14-0.518,0.21-0.817,0.21c-0.26,0-0.48-0.067-0.66-0.203
				c-0.18-0.135-0.325-0.292-0.435-0.472L84.625,94.221z M93.115,100.896c-1.07,0.051-1.97,0.143-2.7,0.277
				c-0.73,0.136-1.315,0.308-1.755,0.518s-0.755,0.455-0.945,0.735s-0.285,0.585-0.285,0.915c0,0.65,0.192,1.115,0.578,1.395
				c0.385,0.28,0.887,0.421,1.507,0.421c0.76,0,1.417-0.138,1.973-0.413c0.555-0.274,1.097-0.692,1.627-1.252V100.896z"/>
			<path fill="#FF2455" d="M103.705,94.746c0.48-0.92,1.05-1.643,1.71-2.168c0.66-0.524,1.44-0.787,2.34-0.787
				c0.71,0,1.28,0.155,1.71,0.465l-0.24,2.775c-0.05,0.18-0.123,0.307-0.218,0.382s-0.223,0.112-0.382,0.112
				c-0.15,0-0.373-0.024-0.667-0.074c-0.295-0.05-0.583-0.075-0.863-0.075c-0.41,0-0.775,0.06-1.095,0.18
				c-0.32,0.12-0.607,0.293-0.863,0.518c-0.255,0.225-0.48,0.498-0.675,0.817c-0.195,0.32-0.377,0.686-0.547,1.095v9.48h-3.705
				v-15.39h2.175c0.38,0,0.645,0.067,0.795,0.202c0.15,0.135,0.25,0.378,0.3,0.728L103.705,94.746z"/>
			<path fill="#FF2455" d="M122.469,109.476v2.4h-11.82v-2.4H122.469z"/>
			<path fill="#FF2455" d="M138.759,85.176v22.29h-2.265c-0.49,0-0.8-0.225-0.93-0.675l-0.315-1.485
				c-0.62,0.71-1.333,1.285-2.138,1.726c-0.805,0.439-1.743,0.659-2.813,0.659c-0.84,0-1.61-0.175-2.31-0.524
				c-0.7-0.351-1.302-0.857-1.807-1.522c-0.505-0.665-0.895-1.487-1.17-2.468c-0.275-0.979-0.412-2.1-0.412-3.36
				c0-1.14,0.155-2.199,0.465-3.18c0.31-0.979,0.755-1.83,1.335-2.55s1.275-1.282,2.085-1.688s1.72-0.607,2.73-0.607
				c0.86,0,1.595,0.135,2.205,0.405c0.61,0.27,1.155,0.635,1.635,1.095v-8.115H138.759z M135.054,96.006
				c-0.42-0.51-0.878-0.87-1.373-1.08c-0.495-0.21-1.028-0.315-1.598-0.315c-0.56,0-1.065,0.105-1.515,0.315
				c-0.45,0.21-0.835,0.527-1.155,0.952c-0.32,0.426-0.565,0.966-0.735,1.62c-0.17,0.655-0.255,1.428-0.255,2.317
				c0,0.9,0.073,1.663,0.218,2.288c0.145,0.625,0.353,1.135,0.623,1.53c0.27,0.395,0.6,0.68,0.99,0.854s0.825,0.263,1.305,0.263
				c0.77,0,1.425-0.16,1.965-0.48c0.54-0.319,1.05-0.774,1.53-1.364V96.006z"/>
			<path fill="#FF2455" d="M145.269,100.235c0.06,0.791,0.2,1.473,0.42,2.048c0.22,0.575,0.51,1.05,0.87,1.425
				c0.36,0.375,0.787,0.655,1.282,0.84c0.495,0.186,1.042,0.278,1.643,0.278s1.118-0.07,1.552-0.21
				c0.435-0.141,0.815-0.295,1.14-0.466c0.325-0.17,0.61-0.324,0.855-0.465c0.245-0.14,0.482-0.21,0.712-0.21
				c0.31,0,0.54,0.115,0.69,0.346l1.065,1.35c-0.41,0.479-0.87,0.883-1.38,1.207c-0.51,0.325-1.042,0.585-1.597,0.78
				c-0.555,0.195-1.12,0.332-1.695,0.413c-0.575,0.079-1.132,0.119-1.672,0.119c-1.07,0-2.065-0.178-2.985-0.532
				c-0.92-0.354-1.72-0.88-2.4-1.575c-0.68-0.694-1.215-1.555-1.605-2.58c-0.39-1.024-0.585-2.212-0.585-3.563
				c0-1.05,0.17-2.037,0.51-2.962s0.827-1.73,1.462-2.415s1.41-1.228,2.325-1.628c0.915-0.399,1.947-0.6,3.097-0.6
				c0.97,0,1.865,0.155,2.685,0.465c0.82,0.311,1.525,0.763,2.115,1.357c0.59,0.595,1.052,1.325,1.387,2.19s0.503,1.853,0.503,2.962
				c0,0.561-0.06,0.938-0.18,1.133s-0.35,0.292-0.69,0.292H145.269z M152.334,98.001c0-0.48-0.067-0.933-0.203-1.357
				c-0.135-0.425-0.337-0.798-0.607-1.118c-0.27-0.319-0.613-0.572-1.027-0.757c-0.416-0.186-0.898-0.277-1.448-0.277
				c-1.07,0-1.913,0.305-2.527,0.915c-0.615,0.609-1.008,1.475-1.178,2.595H152.334z"/>
			<path fill="#FF2455" d="M169.509,109.476v2.4h-11.82v-2.4H169.509z"/>
			<path fill="#FF2455" d="M175.284,100.235c0.06,0.791,0.2,1.473,0.42,2.048c0.22,0.575,0.51,1.05,0.87,1.425
				c0.36,0.375,0.787,0.655,1.282,0.84c0.495,0.186,1.042,0.278,1.643,0.278s1.118-0.07,1.552-0.21
				c0.435-0.141,0.815-0.295,1.14-0.466c0.325-0.17,0.61-0.324,0.855-0.465c0.245-0.14,0.482-0.21,0.712-0.21
				c0.31,0,0.54,0.115,0.69,0.346l1.065,1.35c-0.41,0.479-0.87,0.883-1.38,1.207c-0.51,0.325-1.042,0.585-1.597,0.78
				c-0.555,0.195-1.12,0.332-1.695,0.413c-0.575,0.079-1.132,0.119-1.672,0.119c-1.07,0-2.065-0.178-2.985-0.532
				c-0.92-0.354-1.72-0.88-2.4-1.575c-0.68-0.694-1.215-1.555-1.605-2.58c-0.39-1.024-0.585-2.212-0.585-3.563
				c0-1.05,0.17-2.037,0.51-2.962s0.827-1.73,1.462-2.415s1.41-1.228,2.325-1.628c0.915-0.399,1.947-0.6,3.097-0.6
				c0.97,0,1.865,0.155,2.685,0.465c0.82,0.311,1.525,0.763,2.115,1.357c0.59,0.595,1.052,1.325,1.387,2.19s0.503,1.853,0.503,2.962
				c0,0.561-0.06,0.938-0.18,1.133s-0.35,0.292-0.69,0.292H175.284z M182.349,98.001c0-0.48-0.067-0.933-0.203-1.357
				c-0.135-0.425-0.337-0.798-0.607-1.118c-0.27-0.319-0.613-0.572-1.027-0.757c-0.416-0.186-0.898-0.277-1.448-0.277
				c-1.07,0-1.913,0.305-2.527,0.915c-0.615,0.609-1.008,1.475-1.178,2.595H182.349z"/>
			<path fill="#FF2455" d="M192.204,85.176v22.29h-3.705v-22.29H192.204z"/>
			<path fill="#FF2455" d="M200.258,87.591c0,0.32-0.065,0.62-0.195,0.9c-0.13,0.279-0.302,0.524-0.518,0.734
				c-0.215,0.21-0.467,0.378-0.757,0.503s-0.6,0.188-0.93,0.188c-0.32,0-0.622-0.063-0.907-0.188s-0.533-0.293-0.743-0.503
				s-0.377-0.455-0.502-0.734c-0.125-0.28-0.188-0.58-0.188-0.9c0-0.33,0.063-0.64,0.188-0.93s0.292-0.54,0.502-0.75
				s0.458-0.378,0.743-0.503s0.587-0.188,0.907-0.188c0.33,0,0.64,0.063,0.93,0.188s0.542,0.293,0.757,0.503
				c0.215,0.21,0.388,0.46,0.518,0.75S200.258,87.261,200.258,87.591z M199.748,92.076v15.39h-3.72v-15.39H199.748z"/>
		</g>
	</g>
	<g>
		
			<line fill="none" stroke="#337C98" stroke-width="10" stroke-linecap="round" stroke-linejoin="round" stroke-miterlimit="10" x1="178.845" y1="275.759" x2="178.627" y2="138.983"/>
		
			<polyline fill="none" stroke="#337C98" stroke-width="10" stroke-linecap="round" stroke-linejoin="round" stroke-miterlimit="10" points="
			190.184,269.433 178.866,281.599 167.455,269.523 		"/>
	</g>
	<g>
		<g>
			<path fill="#FFFFFF" d="M251.95,265.635c0.329-0.588,0.732-1.094,1.209-1.516c0.477-0.42,1.067-0.724,1.773-0.905
				c0.646-0.167,1.264-0.189,1.85-0.069c0.585,0.121,1.123,0.372,1.613,0.752c0.49,0.383,0.92,0.887,1.291,1.513
				c0.371,0.625,0.665,1.36,0.883,2.204c0.234,0.908,0.334,1.764,0.3,2.563s-0.192,1.518-0.474,2.152
				c-0.283,0.636-0.681,1.174-1.195,1.617c-0.514,0.442-1.131,0.757-1.851,0.942c-0.349,0.09-0.675,0.136-0.976,0.141
				c-0.302,0.004-0.588-0.024-0.859-0.086c-0.272-0.063-0.531-0.155-0.777-0.282s-0.488-0.275-0.727-0.447l0.074,0.783
				c0.006,0.2-0.034,0.354-0.119,0.461c-0.085,0.108-0.219,0.186-0.4,0.232l-1.777,0.458l-4.18-16.209l2.693-0.694L251.95,265.635z
				 M253.734,272.551c0.4,0.292,0.802,0.469,1.2,0.528c0.399,0.06,0.799,0.038,1.199-0.065c0.414-0.107,0.768-0.277,1.061-0.512
				c0.292-0.234,0.514-0.54,0.665-0.916c0.15-0.377,0.225-0.826,0.222-1.35c-0.003-0.521-0.092-1.125-0.269-1.809
				c-0.316-1.229-0.75-2.064-1.298-2.51c-0.549-0.443-1.205-0.567-1.969-0.37c-0.517,0.133-0.938,0.367-1.262,0.703
				s-0.605,0.764-0.844,1.282L253.734,272.551z"/>
			<path fill="#FFFFFF" d="M261.422,263.39c0.983-1.509,2.381-2.497,4.191-2.964c0.654-0.169,1.268-0.214,1.839-0.132
				c0.572,0.081,1.085,0.267,1.541,0.557c0.454,0.29,0.843,0.677,1.164,1.159c0.323,0.483,0.566,1.041,0.729,1.674l1.823,7.068
				l-1.223,0.314c-0.255,0.066-0.461,0.079-0.618,0.038c-0.158-0.041-0.308-0.167-0.446-0.379l-0.449-0.745
				c-0.218,0.327-0.437,0.623-0.656,0.884c-0.219,0.263-0.458,0.496-0.714,0.702c-0.258,0.205-0.542,0.387-0.855,0.541
				s-0.67,0.283-1.069,0.387c-0.473,0.121-0.926,0.17-1.358,0.146c-0.433-0.025-0.828-0.127-1.185-0.307
				c-0.356-0.179-0.664-0.438-0.92-0.773c-0.258-0.338-0.452-0.757-0.581-1.258c-0.073-0.284-0.099-0.578-0.076-0.883
				c0.022-0.304,0.108-0.611,0.257-0.921s0.365-0.622,0.649-0.935c0.282-0.314,0.653-0.619,1.107-0.914
				c0.455-0.296,0.999-0.582,1.634-0.858c0.635-0.275,1.375-0.535,2.221-0.776l-0.169-0.654c-0.193-0.749-0.497-1.262-0.909-1.539
				c-0.413-0.278-0.922-0.339-1.524-0.184c-0.437,0.113-0.785,0.258-1.046,0.434c-0.262,0.176-0.484,0.355-0.67,0.539
				s-0.354,0.35-0.506,0.496c-0.152,0.148-0.337,0.25-0.555,0.307c-0.189,0.049-0.362,0.041-0.519-0.023s-0.291-0.152-0.405-0.262
				L261.422,263.39z M268.849,266.652c-0.77,0.237-1.406,0.473-1.912,0.708s-0.898,0.47-1.179,0.705
				c-0.281,0.235-0.464,0.474-0.55,0.712c-0.086,0.24-0.098,0.479-0.035,0.719c0.122,0.473,0.349,0.775,0.682,0.906
				c0.332,0.132,0.724,0.14,1.175,0.023c0.552-0.143,1.005-0.366,1.356-0.671c0.353-0.304,0.669-0.709,0.949-1.216L268.849,266.652z
				"/>
			<path fill="#FFFFFF" d="M278.863,269.352c-0.975,0.252-1.793,0.169-2.454-0.246c-0.662-0.415-1.117-1.105-1.367-2.072
				l-1.611-6.25l-1.146,0.295c-0.146,0.037-0.281,0.021-0.407-0.047c-0.127-0.068-0.214-0.197-0.263-0.386l-0.275-1.069l1.724-0.759
				l-0.221-3.2c-0.001-0.154,0.039-0.284,0.12-0.392c0.081-0.106,0.202-0.18,0.362-0.222l1.396-0.359l0.908,3.523l2.988-0.771
				l0.496,1.92l-2.989,0.771l1.563,6.063c0.091,0.351,0.246,0.601,0.468,0.753s0.481,0.189,0.779,0.113
				c0.167-0.043,0.302-0.1,0.405-0.168c0.102-0.07,0.189-0.137,0.262-0.202s0.136-0.126,0.191-0.184
				c0.055-0.056,0.115-0.093,0.181-0.11c0.079-0.021,0.15-0.018,0.212,0.01c0.061,0.027,0.131,0.072,0.21,0.138l1.146,1.101
				c-0.309,0.429-0.697,0.792-1.162,1.091C279.913,268.99,279.408,269.211,278.863,269.352z"/>
			<path fill="#FFFFFF" d="M283.831,262.276c0.193,0.563,0.422,1.032,0.69,1.41c0.268,0.377,0.567,0.668,0.899,0.872
				c0.332,0.207,0.695,0.329,1.09,0.371c0.396,0.042,0.811,0.006,1.247-0.106s0.8-0.26,1.089-0.443
				c0.291-0.183,0.538-0.367,0.742-0.552s0.383-0.352,0.535-0.499c0.151-0.147,0.312-0.243,0.479-0.286
				c0.225-0.058,0.414-0.018,0.566,0.121l1.027,0.782c-0.208,0.426-0.467,0.806-0.777,1.138c-0.31,0.332-0.648,0.621-1.016,0.867
				c-0.366,0.244-0.751,0.451-1.154,0.617s-0.801,0.299-1.194,0.4c-0.778,0.201-1.534,0.258-2.271,0.174
				c-0.735-0.086-1.416-0.318-2.04-0.696c-0.625-0.378-1.175-0.903-1.651-1.575c-0.476-0.672-0.84-1.499-1.094-2.48
				c-0.196-0.764-0.258-1.514-0.185-2.25c0.074-0.737,0.277-1.414,0.61-2.031c0.334-0.617,0.795-1.157,1.386-1.619
				c0.591-0.463,1.304-0.803,2.14-1.018c0.706-0.182,1.386-0.236,2.04-0.165s1.252,0.269,1.793,0.591
				c0.54,0.322,1.014,0.766,1.419,1.332c0.406,0.566,0.714,1.254,0.922,2.061c0.105,0.406,0.132,0.692,0.081,0.856
				c-0.051,0.165-0.2,0.278-0.446,0.343L283.831,262.276z M288.55,259.326c-0.09-0.35-0.224-0.666-0.401-0.949
				s-0.396-0.518-0.651-0.699s-0.553-0.301-0.889-0.357c-0.337-0.057-0.706-0.034-1.105,0.069c-0.778,0.2-1.334,0.581-1.666,1.14
				c-0.333,0.559-0.456,1.262-0.37,2.107L288.55,259.326z"/>
			<path fill="#FFFFFF" d="M294.921,255.158c0.177-0.759,0.455-1.391,0.837-1.896c0.382-0.505,0.899-0.842,1.554-1.011
				c0.517-0.134,0.96-0.128,1.331,0.017l0.346,2.063c-0.002,0.141-0.032,0.248-0.087,0.32c-0.055,0.071-0.141,0.123-0.256,0.152
				c-0.109,0.029-0.276,0.053-0.5,0.07c-0.224,0.02-0.438,0.056-0.642,0.108c-0.298,0.077-0.552,0.188-0.762,0.336
				c-0.211,0.146-0.388,0.327-0.53,0.538c-0.144,0.211-0.256,0.452-0.338,0.721c-0.082,0.27-0.146,0.57-0.193,0.899l1.778,6.894
				l-2.694,0.695l-2.886-11.191l1.581-0.408c0.276-0.071,0.482-0.072,0.616-0.002c0.135,0.069,0.253,0.228,0.354,0.473
				L294.921,255.158z"/>
			<path fill="#FFFFFF" d="M302.338,247.697c0.061,0.232,0.069,0.463,0.026,0.69c-0.042,0.228-0.121,0.438-0.238,0.632
				c-0.116,0.193-0.269,0.362-0.456,0.508c-0.188,0.145-0.401,0.248-0.642,0.311c-0.232,0.061-0.464,0.071-0.694,0.033
				c-0.23-0.037-0.442-0.112-0.635-0.227c-0.192-0.112-0.36-0.26-0.503-0.439c-0.144-0.18-0.245-0.387-0.305-0.619
				c-0.063-0.24-0.075-0.478-0.039-0.711c0.037-0.234,0.111-0.449,0.226-0.641c0.113-0.191,0.262-0.36,0.445-0.504
				c0.184-0.145,0.392-0.247,0.624-0.308c0.24-0.062,0.478-0.073,0.712-0.037s0.45,0.11,0.646,0.223s0.367,0.263,0.517,0.449
				S302.276,247.457,302.338,247.697z M302.808,251.054l2.887,11.191l-2.705,0.698l-2.887-11.191L302.808,251.054z"/>
			<path fill="#FFFFFF" d="M305.697,251.972c0.983-1.509,2.381-2.497,4.191-2.964c0.654-0.17,1.267-0.214,1.839-0.132
				c0.572,0.081,1.085,0.267,1.54,0.557c0.454,0.29,0.843,0.677,1.165,1.159c0.323,0.483,0.565,1.041,0.729,1.674l1.823,7.068
				l-1.222,0.314c-0.255,0.066-0.461,0.078-0.619,0.038c-0.157-0.041-0.307-0.167-0.446-0.379l-0.448-0.745
				c-0.219,0.327-0.437,0.622-0.656,0.884c-0.219,0.263-0.458,0.496-0.715,0.702c-0.257,0.205-0.542,0.387-0.854,0.541
				c-0.313,0.154-0.67,0.283-1.07,0.387c-0.472,0.121-0.925,0.17-1.357,0.146c-0.433-0.025-0.828-0.127-1.185-0.307
				s-0.664-0.438-0.921-0.773c-0.257-0.338-0.451-0.757-0.58-1.259c-0.073-0.283-0.099-0.577-0.077-0.882
				c0.023-0.304,0.108-0.611,0.258-0.921c0.148-0.31,0.365-0.622,0.648-0.935c0.283-0.314,0.653-0.619,1.108-0.915
				c0.454-0.295,0.999-0.581,1.634-0.857s1.375-0.535,2.22-0.776l-0.169-0.654c-0.193-0.749-0.496-1.262-0.908-1.539
				c-0.413-0.278-0.922-0.339-1.525-0.184c-0.436,0.113-0.784,0.258-1.045,0.434c-0.262,0.175-0.484,0.355-0.67,0.539
				s-0.354,0.35-0.507,0.496c-0.151,0.148-0.336,0.25-0.555,0.307c-0.188,0.049-0.361,0.041-0.518-0.024
				c-0.156-0.063-0.292-0.151-0.405-0.261L305.697,251.972z M313.124,255.234c-0.77,0.236-1.406,0.473-1.912,0.707
				c-0.506,0.236-0.898,0.471-1.18,0.706c-0.28,0.235-0.463,0.473-0.549,0.712c-0.086,0.24-0.098,0.479-0.035,0.719
				c0.121,0.473,0.349,0.775,0.681,0.906c0.333,0.131,0.725,0.139,1.175,0.023c0.553-0.143,1.006-0.366,1.357-0.671
				c0.352-0.304,0.668-0.709,0.949-1.216L313.124,255.234z"/>
		</g>
	</g>
	<g>
		<circle fill="#337C98" cx="184.552" cy="327.633" r="43.163"/>
	</g>
	<g>
		<circle fill="#337C98" cx="413.553" cy="391.633" r="43.163"/>
		<g>
			<path fill="#FFFFFF" d="M395.17,388.378c0.112-0.781,0.33-1.467,0.653-2.056c0.323-0.59,0.727-1.082,1.211-1.476
				c0.484-0.395,1.04-0.691,1.667-0.891c0.627-0.198,1.301-0.298,2.021-0.298c0.752,0,1.43,0.106,2.033,0.32
				c0.605,0.215,1.121,0.511,1.55,0.891c0.428,0.379,0.757,0.824,0.985,1.335s0.344,1.063,0.344,1.655
				c0,0.519-0.059,0.975-0.175,1.369c-0.116,0.394-0.283,0.737-0.501,1.03c-0.219,0.293-0.488,0.541-0.811,0.744
				c-0.324,0.202-0.688,0.371-1.094,0.507c0.977,0.308,1.705,0.777,2.186,1.408c0.48,0.63,0.721,1.423,0.721,2.376
				c0,0.812-0.15,1.528-0.45,2.152c-0.3,0.623-0.706,1.146-1.216,1.571c-0.512,0.424-1.104,0.745-1.775,0.963
				s-1.383,0.327-2.135,0.327c-0.818,0-1.531-0.095-2.14-0.282s-1.138-0.466-1.589-0.833c-0.45-0.368-0.833-0.819-1.148-1.353
				s-0.586-1.148-0.811-1.847l1.227-0.507c0.323-0.136,0.626-0.171,0.907-0.107c0.282,0.063,0.486,0.216,0.614,0.456
				c0.135,0.263,0.283,0.522,0.445,0.777c0.161,0.256,0.354,0.482,0.58,0.682c0.225,0.199,0.49,0.36,0.794,0.484
				s0.666,0.186,1.087,0.186c0.473,0,0.887-0.077,1.239-0.23c0.353-0.154,0.647-0.355,0.884-0.603
				c0.236-0.248,0.413-0.524,0.529-0.828c0.117-0.305,0.176-0.61,0.176-0.918c0-0.391-0.042-0.745-0.125-1.064
				c-0.082-0.319-0.255-0.592-0.518-0.817c-0.264-0.225-0.641-0.401-1.133-0.529c-0.492-0.127-1.15-0.191-1.977-0.191V390.8
				c0.684-0.008,1.25-0.071,1.701-0.191s0.809-0.287,1.076-0.502c0.266-0.214,0.451-0.471,0.557-0.771
				c0.105-0.3,0.158-0.631,0.158-0.991c0-0.766-0.214-1.348-0.643-1.746c-0.428-0.397-0.998-0.597-1.712-0.597
				c-0.331,0-0.635,0.047-0.912,0.141c-0.278,0.094-0.528,0.226-0.749,0.395c-0.222,0.169-0.408,0.366-0.559,0.591
				c-0.149,0.226-0.262,0.474-0.338,0.744c-0.127,0.346-0.294,0.574-0.5,0.687c-0.207,0.113-0.498,0.14-0.873,0.079L395.17,388.378z
				"/>
			<path fill="#FFFFFF" d="M419.523,391.982c0,1.42-0.151,2.653-0.455,3.7c-0.305,1.048-0.726,1.914-1.262,2.597
				c-0.537,0.684-1.172,1.192-1.904,1.526s-1.523,0.502-2.371,0.502c-0.85,0-1.636-0.168-2.36-0.502s-1.354-0.843-1.887-1.526
				c-0.533-0.683-0.95-1.549-1.251-2.597c-0.3-1.047-0.449-2.28-0.449-3.7c0-1.427,0.149-2.662,0.449-3.706
				c0.301-1.044,0.718-1.907,1.251-2.591s1.162-1.192,1.887-1.526s1.511-0.501,2.36-0.501c0.848,0,1.639,0.167,2.371,0.501
				s1.367,0.843,1.904,1.526c0.536,0.684,0.957,1.547,1.262,2.591C419.372,389.32,419.523,390.556,419.523,391.982z
				 M416.651,391.982c0-1.179-0.087-2.155-0.259-2.929c-0.174-0.773-0.404-1.39-0.693-1.848s-0.621-0.779-0.996-0.963
				c-0.376-0.184-0.767-0.276-1.172-0.276c-0.398,0-0.783,0.093-1.154,0.276c-0.372,0.184-0.701,0.505-0.986,0.963
				s-0.512,1.074-0.682,1.848c-0.169,0.773-0.254,1.75-0.254,2.929s0.085,2.155,0.254,2.929c0.17,0.773,0.396,1.39,0.682,1.848
				s0.614,0.779,0.986,0.963c0.371,0.185,0.756,0.276,1.154,0.276c0.405,0,0.796-0.092,1.172-0.276
				c0.375-0.184,0.707-0.505,0.996-0.963s0.52-1.074,0.693-1.848C416.564,394.138,416.651,393.161,416.651,391.982z"/>
			<path fill="#FFFFFF" d="M432.591,391.982c0,1.42-0.151,2.653-0.456,3.7c-0.305,1.048-0.725,1.914-1.262,2.597
				c-0.537,0.684-1.172,1.192-1.904,1.526s-1.522,0.502-2.371,0.502s-1.635-0.168-2.359-0.502s-1.354-0.843-1.887-1.526
				c-0.533-0.683-0.951-1.549-1.251-2.597c-0.3-1.047-0.45-2.28-0.45-3.7c0-1.427,0.15-2.662,0.45-3.706s0.718-1.907,1.251-2.591
				s1.162-1.192,1.887-1.526s1.511-0.501,2.359-0.501s1.639,0.167,2.371,0.501s1.367,0.843,1.904,1.526s0.957,1.547,1.262,2.591
				S432.591,390.556,432.591,391.982z M429.719,391.982c0-1.179-0.087-2.155-0.26-2.929s-0.403-1.39-0.692-1.848
				c-0.29-0.458-0.622-0.779-0.997-0.963s-0.766-0.276-1.172-0.276c-0.398,0-0.783,0.093-1.154,0.276s-0.7,0.505-0.986,0.963
				c-0.285,0.458-0.512,1.074-0.681,1.848s-0.254,1.75-0.254,2.929s0.085,2.155,0.254,2.929s0.396,1.39,0.681,1.848
				c0.286,0.458,0.615,0.779,0.986,0.963c0.371,0.185,0.756,0.276,1.154,0.276c0.406,0,0.797-0.092,1.172-0.276
				c0.375-0.184,0.707-0.505,0.997-0.963c0.289-0.458,0.52-1.074,0.692-1.848S429.719,393.161,429.719,391.982z"/>
		</g>
	</g>
	<g>
		<circle fill="#337C98" cx="413.553" cy="271.633" r="43.163"/>
	</g>
	<g>
		
			<line fill="none" stroke="#337C98" stroke-width="10" stroke-linecap="round" stroke-linejoin="round" stroke-miterlimit="10" x1="360.581" y1="275.291" x2="218.141" y2="312.074"/>
		
			<polyline fill="none" stroke="#337C98" stroke-width="10" stroke-linecap="round" stroke-linejoin="round" stroke-miterlimit="10" points="
			351.605,265.908 366.226,273.8 357.413,287.884 		"/>
	</g>
	<g>
		
			<line fill="none" stroke="#337C98" stroke-width="10" stroke-linecap="round" stroke-linejoin="round" stroke-miterlimit="10" x1="360.758" y1="388.622" x2="213.585" y2="347.159"/>
		
			<polyline fill="none" stroke="#337C98" stroke-width="10" stroke-linecap="round" stroke-linejoin="round" stroke-miterlimit="10" points="
			351.782,398.005 366.402,390.113 357.59,376.029 		"/>
	</g>
	<g>
		<g>
			<path fill="#FFFFFF" d="M270.646,393.816c-0.105,0.094-0.205,0.154-0.298,0.178s-0.201,0.018-0.323-0.018
				c-0.13-0.039-0.258-0.113-0.385-0.229c-0.126-0.115-0.275-0.246-0.443-0.393c-0.169-0.146-0.367-0.293-0.595-0.438
				c-0.228-0.145-0.512-0.264-0.851-0.363c-0.527-0.152-0.972-0.16-1.336-0.023c-0.363,0.137-0.598,0.385-0.703,0.746
				c-0.068,0.238-0.049,0.461,0.06,0.668c0.108,0.207,0.271,0.41,0.493,0.605c0.22,0.197,0.479,0.391,0.775,0.584
				c0.296,0.191,0.596,0.393,0.897,0.605s0.594,0.439,0.875,0.682c0.282,0.242,0.518,0.514,0.708,0.814
				c0.189,0.303,0.316,0.635,0.38,0.996c0.063,0.363,0.029,0.768-0.101,1.215c-0.154,0.533-0.393,0.998-0.714,1.395
				c-0.322,0.395-0.719,0.701-1.188,0.922c-0.47,0.219-1.008,0.34-1.613,0.363c-0.604,0.025-1.269-0.066-1.99-0.275
				c-0.382-0.111-0.746-0.254-1.089-0.428c-0.345-0.174-0.667-0.371-0.967-0.592c-0.3-0.219-0.568-0.453-0.805-0.701
				c-0.237-0.25-0.435-0.502-0.596-0.76l0.912-0.838c0.115-0.1,0.236-0.166,0.363-0.201c0.127-0.033,0.274-0.025,0.44,0.023
				c0.166,0.047,0.309,0.139,0.43,0.275c0.12,0.137,0.262,0.289,0.426,0.453c0.163,0.164,0.363,0.332,0.599,0.502
				s0.556,0.313,0.959,0.43c0.318,0.092,0.602,0.135,0.85,0.125c0.25-0.012,0.466-0.057,0.649-0.135
				c0.184-0.08,0.333-0.191,0.449-0.334s0.198-0.301,0.249-0.473c0.075-0.26,0.06-0.496-0.048-0.707
				c-0.106-0.211-0.271-0.414-0.491-0.611s-0.48-0.391-0.781-0.584c-0.3-0.191-0.604-0.395-0.913-0.609
				c-0.31-0.215-0.605-0.449-0.889-0.699c-0.283-0.248-0.519-0.531-0.705-0.844c-0.188-0.311-0.309-0.664-0.363-1.055
				c-0.055-0.391-0.011-0.832,0.131-1.322c0.132-0.455,0.347-0.861,0.646-1.219c0.3-0.359,0.668-0.643,1.107-0.848
				c0.438-0.205,0.945-0.322,1.521-0.355c0.577-0.033,1.207,0.051,1.894,0.25c0.764,0.221,1.424,0.549,1.978,0.982
				c0.555,0.436,0.981,0.918,1.281,1.451L270.646,393.816z"/>
			<path fill="#FFFFFF" d="M273.303,393.918c1.614-0.799,3.32-0.938,5.116-0.416c0.649,0.188,1.199,0.461,1.649,0.822
				c0.451,0.361,0.798,0.783,1.042,1.264c0.243,0.482,0.38,1.012,0.411,1.592c0.032,0.58-0.043,1.184-0.225,1.811l-2.032,7.012
				l-1.212-0.352c-0.253-0.072-0.437-0.166-0.552-0.283c-0.114-0.115-0.179-0.299-0.191-0.553l-0.006-0.871
				c-0.354,0.172-0.692,0.314-1.015,0.428s-0.647,0.193-0.973,0.24c-0.327,0.047-0.664,0.057-1.012,0.029
				c-0.348-0.025-0.721-0.096-1.117-0.211c-0.469-0.137-0.883-0.326-1.243-0.566c-0.36-0.242-0.648-0.531-0.863-0.867
				c-0.216-0.336-0.348-0.715-0.398-1.135c-0.049-0.422-0.003-0.881,0.142-1.379c0.081-0.281,0.209-0.547,0.384-0.797
				c0.174-0.25,0.405-0.471,0.69-0.662c0.286-0.191,0.631-0.35,1.035-0.475s0.876-0.199,1.419-0.223
				c0.542-0.021,1.156,0.01,1.843,0.096c0.687,0.086,1.455,0.24,2.306,0.463l0.188-0.65c0.215-0.742,0.215-1.338,0.002-1.787
				c-0.214-0.449-0.62-0.76-1.219-0.934c-0.433-0.125-0.807-0.18-1.121-0.16c-0.314,0.018-0.598,0.061-0.851,0.123
				s-0.482,0.119-0.688,0.168c-0.206,0.051-0.417,0.045-0.634-0.018c-0.188-0.055-0.332-0.148-0.434-0.285
				c-0.102-0.135-0.173-0.279-0.215-0.432L273.303,393.918z M278.03,400.508c-0.782-0.188-1.45-0.311-2.005-0.365
				c-0.556-0.055-1.013-0.053-1.375,0.006c-0.361,0.061-0.64,0.172-0.835,0.334c-0.196,0.162-0.328,0.361-0.397,0.6
				c-0.136,0.471-0.094,0.844,0.125,1.127c0.22,0.283,0.553,0.49,1,0.619c0.548,0.158,1.051,0.197,1.51,0.113
				c0.457-0.08,0.936-0.27,1.436-0.563L278.03,400.508z"/>
			<path fill="#FFFFFF" d="M289.139,391.436l-4.66,16.078l-2.672-0.775l4.66-16.076L289.139,391.436z"/>
			<path fill="#FFFFFF" d="M301.451,395.004l-4.66,16.078l-1.633-0.473c-0.354-0.104-0.53-0.33-0.53-0.682l0.083-1.137
				c-0.596,0.381-1.229,0.646-1.902,0.797c-0.672,0.148-1.395,0.111-2.166-0.111c-0.606-0.176-1.125-0.465-1.557-0.863
				s-0.761-0.889-0.985-1.475c-0.226-0.586-0.335-1.26-0.329-2.025c0.007-0.764,0.143-1.6,0.405-2.51
				c0.239-0.822,0.572-1.555,1.001-2.195c0.428-0.643,0.927-1.164,1.495-1.561c0.569-0.398,1.188-0.66,1.857-0.781
				c0.669-0.123,1.367-0.078,2.096,0.133c0.62,0.18,1.122,0.43,1.506,0.752s0.7,0.701,0.951,1.131l1.696-5.852L301.451,395.004z
				 M296.516,402.041c-0.197-0.455-0.452-0.811-0.766-1.064c-0.313-0.256-0.675-0.443-1.086-0.563
				c-0.404-0.117-0.79-0.146-1.158-0.088c-0.368,0.057-0.713,0.205-1.033,0.443c-0.319,0.24-0.608,0.578-0.868,1.016
				s-0.482,0.977-0.668,1.619c-0.188,0.648-0.296,1.215-0.322,1.695c-0.025,0.48,0.017,0.893,0.13,1.232
				c0.111,0.342,0.29,0.617,0.535,0.824c0.244,0.209,0.54,0.361,0.886,0.463c0.556,0.16,1.062,0.182,1.519,0.064
				c0.456-0.119,0.92-0.34,1.389-0.666L296.516,402.041z"/>
			<path fill="#FFFFFF" d="M307.61,401.996c0.822,0.24,1.532,0.59,2.13,1.053c0.596,0.461,1.063,1.008,1.401,1.637
				c0.337,0.629,0.533,1.336,0.589,2.117c0.054,0.783-0.045,1.611-0.298,2.482c-0.255,0.881-0.615,1.637-1.079,2.268
				c-0.465,0.633-1.01,1.127-1.633,1.486c-0.624,0.357-1.313,0.574-2.063,0.645c-0.753,0.072-1.539-0.012-2.361-0.25
				c-0.829-0.24-1.545-0.592-2.146-1.057c-0.601-0.463-1.068-1.014-1.404-1.648c-0.335-0.637-0.531-1.348-0.59-2.131
				s0.039-1.615,0.295-2.496c0.253-0.871,0.613-1.623,1.082-2.254c0.468-0.631,1.013-1.121,1.635-1.473
				c0.621-0.352,1.311-0.563,2.065-0.633S306.781,401.756,307.61,401.996z M304.892,411.377c0.923,0.268,1.696,0.156,2.32-0.336
				c0.623-0.49,1.108-1.336,1.456-2.533c0.347-1.197,0.39-2.174,0.127-2.93c-0.262-0.756-0.854-1.268-1.777-1.535
				c-0.938-0.271-1.724-0.158-2.357,0.342s-1.123,1.346-1.467,2.535c-0.346,1.191-0.383,2.162-0.113,2.918
				S303.954,411.105,304.892,411.377z"/>
		</g>
	</g>
	<g>
		<path fill="#FFFFFF" d="M405.061,268.54c0.359-0.075,0.705-0.13,1.035-0.163c0.331-0.034,0.65-0.051,0.958-0.051
			c0.856,0,1.61,0.128,2.265,0.383c0.652,0.256,1.201,0.608,1.645,1.059c0.443,0.451,0.777,0.979,1.002,1.583
			c0.226,0.604,0.338,1.256,0.338,1.955c0,0.863-0.152,1.651-0.456,2.365s-0.727,1.323-1.267,1.83
			c-0.541,0.507-1.182,0.899-1.922,1.178c-0.739,0.277-1.545,0.417-2.416,0.417c-0.51,0-0.994-0.053-1.453-0.158
			c-0.457-0.105-0.888-0.246-1.289-0.422c-0.402-0.177-0.773-0.38-1.115-0.608c-0.342-0.229-0.648-0.472-0.918-0.727l0.855-1.184
			c0.181-0.255,0.417-0.383,0.71-0.383c0.188,0,0.379,0.061,0.574,0.181s0.419,0.252,0.671,0.394
			c0.251,0.144,0.548,0.274,0.89,0.395c0.341,0.12,0.753,0.181,1.233,0.181c0.511,0,0.961-0.083,1.352-0.248
			s0.715-0.396,0.975-0.692c0.26-0.297,0.454-0.649,0.586-1.06c0.131-0.409,0.197-0.854,0.197-1.335
			c0-0.886-0.258-1.578-0.771-2.078c-0.516-0.499-1.275-0.749-2.281-0.749c-0.773,0-1.566,0.143-2.377,0.428l-1.734-0.495
			l1.352-7.908h8.043v1.183c0,0.398-0.125,0.722-0.372,0.969c-0.248,0.248-0.669,0.372-1.262,0.372h-4.472L405.061,268.54z"/>
		<path fill="#FFFFFF" d="M426.057,270.771c0,1.42-0.151,2.653-0.455,3.7c-0.305,1.048-0.726,1.914-1.262,2.597
			c-0.537,0.684-1.172,1.192-1.904,1.526s-1.523,0.502-2.371,0.502c-0.85,0-1.636-0.168-2.36-0.502s-1.354-0.843-1.887-1.526
			c-0.533-0.683-0.95-1.549-1.251-2.597c-0.3-1.047-0.449-2.28-0.449-3.7c0-1.427,0.149-2.662,0.449-3.706
			c0.301-1.044,0.718-1.907,1.251-2.591s1.162-1.192,1.887-1.526s1.511-0.501,2.36-0.501c0.848,0,1.639,0.167,2.371,0.501
			s1.367,0.843,1.904,1.526c0.536,0.684,0.957,1.547,1.262,2.591C425.905,268.108,426.057,269.344,426.057,270.771z
			 M423.185,270.771c0-1.179-0.087-2.155-0.259-2.929c-0.174-0.773-0.404-1.39-0.693-1.848s-0.621-0.779-0.996-0.963
			c-0.376-0.184-0.767-0.276-1.172-0.276c-0.398,0-0.783,0.093-1.154,0.276c-0.372,0.184-0.701,0.505-0.986,0.963
			s-0.512,1.074-0.682,1.848c-0.169,0.773-0.254,1.75-0.254,2.929s0.085,2.155,0.254,2.929c0.17,0.773,0.396,1.39,0.682,1.848
			s0.614,0.779,0.986,0.963c0.371,0.185,0.756,0.276,1.154,0.276c0.405,0,0.796-0.092,1.172-0.276
			c0.375-0.184,0.707-0.505,0.996-0.963s0.52-1.074,0.693-1.848C423.098,272.926,423.185,271.949,423.185,270.771z"/>
	</g>
</g>
</svg>
