<?xml version="1.0" encoding="utf-8"?>
<!-- Generator: Adobe Illustrator 16.0.0, SVG Export Plug-In . SVG Version: 6.00 Build 0)  -->
<!DOCTYPE svg PUBLIC "-//W3C//DTD SVG 1.1//EN" "http://www.w3.org/Graphics/SVG/1.1/DTD/svg11.dtd">
<svg version="1.1" xmlns="http://www.w3.org/2000/svg" xmlns:xlink="http://www.w3.org/1999/xlink" x="0px" y="0px"
	 width="619.472px" height="672.363px" viewBox="0 0 619.472 672.363" enable-background="new 0 0 619.472 672.363"
	 xml:space="preserve">
<g id="Layer_2">
</g>
<g id="Layer_1">
	<path fill="#72B5CF" d="M544.058,336.18c0-123.886-100.436-224.317-224.321-224.317S95.415,212.294,95.415,336.18
		c0,123.89,100.436,224.321,224.321,224.321S544.058,460.069,544.058,336.18z"/>
	<g>
		<g>
			<path fill="#FF2455" d="M33.971,95.331c-0.11,0.14-0.217,0.25-0.322,0.33s-0.258,0.12-0.457,0.12
				c-0.191,0-0.375-0.058-0.556-0.173s-0.396-0.245-0.646-0.39c-0.25-0.146-0.547-0.275-0.893-0.391
				c-0.344-0.114-0.771-0.172-1.281-0.172c-0.65,0-1.221,0.117-1.711,0.353c-0.49,0.234-0.897,0.572-1.223,1.012
				c-0.324,0.44-0.567,0.973-0.727,1.598c-0.16,0.625-0.24,1.333-0.24,2.123c0,0.819,0.087,1.55,0.262,2.189
				c0.176,0.641,0.428,1.178,0.758,1.612c0.33,0.436,0.73,0.766,1.2,0.99c0.47,0.226,1,0.338,1.59,0.338s1.067-0.072,1.433-0.218
				c0.365-0.145,0.672-0.305,0.922-0.48c0.25-0.175,0.468-0.334,0.653-0.479c0.185-0.145,0.392-0.218,0.622-0.218
				c0.301,0,0.525,0.115,0.676,0.346l1.064,1.35c-0.41,0.479-0.855,0.883-1.335,1.207c-0.479,0.325-0.978,0.585-1.493,0.78
				c-0.515,0.195-1.045,0.332-1.59,0.413c-0.545,0.079-1.087,0.119-1.627,0.119c-0.95,0-1.846-0.178-2.686-0.532
				s-1.574-0.872-2.205-1.553c-0.629-0.68-1.127-1.512-1.492-2.497s-0.547-2.107-0.547-3.367c0-1.13,0.162-2.178,0.487-3.143
				s0.802-1.801,1.433-2.505c0.63-0.705,1.41-1.258,2.34-1.658c0.93-0.399,2-0.6,3.21-0.6c1.149,0,2.157,0.185,3.022,0.555
				s1.643,0.9,2.332,1.59L33.971,95.331z"/>
			<path fill="#FF2455" d="M39.986,100.235c0.061,0.791,0.199,1.473,0.42,2.048c0.22,0.575,0.51,1.05,0.87,1.425
				s0.787,0.655,1.282,0.84c0.495,0.186,1.043,0.278,1.643,0.278s1.117-0.07,1.553-0.21c0.435-0.141,0.814-0.295,1.14-0.466
				c0.325-0.17,0.61-0.324,0.854-0.465c0.246-0.14,0.482-0.21,0.713-0.21c0.311,0,0.54,0.115,0.69,0.346l1.065,1.35
				c-0.41,0.479-0.871,0.883-1.381,1.207c-0.51,0.325-1.043,0.585-1.598,0.78s-1.119,0.332-1.695,0.413
				c-0.574,0.079-1.132,0.119-1.672,0.119c-1.07,0-2.064-0.178-2.984-0.532c-0.921-0.354-1.721-0.88-2.4-1.575
				c-0.68-0.694-1.215-1.555-1.605-2.58c-0.39-1.024-0.584-2.212-0.584-3.563c0-1.05,0.17-2.037,0.51-2.962s0.826-1.73,1.462-2.415
				s1.41-1.228,2.325-1.628c0.915-0.399,1.947-0.6,3.098-0.6c0.97,0,1.865,0.155,2.685,0.465c0.819,0.311,1.524,0.763,2.115,1.357
				c0.59,0.595,1.052,1.325,1.388,2.19c0.334,0.865,0.502,1.853,0.502,2.962c0,0.561-0.06,0.938-0.18,1.133s-0.35,0.292-0.689,0.292
				H39.986z M47.051,98.001c0-0.48-0.066-0.933-0.202-1.357c-0.135-0.425-0.337-0.798-0.607-1.118
				c-0.271-0.319-0.612-0.572-1.027-0.757c-0.415-0.186-0.897-0.277-1.448-0.277c-1.07,0-1.912,0.305-2.527,0.915
				c-0.615,0.609-1.008,1.475-1.178,2.595H47.051z"/>
			<path fill="#FF2455" d="M56.906,85.176v22.29h-3.705v-22.29H56.906z"/>
			<path fill="#FF2455" d="M73.871,92.076v15.39h-2.266c-0.49,0-0.8-0.225-0.93-0.675l-0.255-1.23
				c-0.63,0.641-1.325,1.158-2.085,1.553s-1.655,0.593-2.686,0.593c-0.84,0-1.582-0.143-2.227-0.428
				c-0.646-0.285-1.188-0.688-1.628-1.207c-0.44-0.521-0.772-1.138-0.997-1.853c-0.226-0.715-0.338-1.503-0.338-2.363v-9.779h3.705
				v9.779c0,0.94,0.217,1.668,0.652,2.183c0.436,0.516,1.088,0.772,1.957,0.772c0.641,0,1.24-0.143,1.801-0.427
				c0.56-0.285,1.09-0.678,1.59-1.178v-11.13H73.871z"/>
			<path fill="#FF2455" d="M81.28,85.176v22.29h-3.705v-22.29H81.28z"/>
			<path fill="#FF2455" d="M84.625,94.221c1.771-1.62,3.9-2.43,6.391-2.43c0.899,0,1.705,0.147,2.414,0.442
				c0.711,0.295,1.311,0.705,1.801,1.229c0.49,0.525,0.862,1.153,1.117,1.883c0.255,0.73,0.383,1.53,0.383,2.4v9.72h-1.68
				c-0.351,0-0.621-0.053-0.811-0.157c-0.189-0.105-0.34-0.317-0.45-0.638l-0.329-1.11c-0.391,0.351-0.771,0.658-1.141,0.923
				c-0.37,0.265-0.756,0.487-1.155,0.667c-0.399,0.181-0.827,0.317-1.282,0.413c-0.455,0.095-0.957,0.143-1.508,0.143
				c-0.65,0-1.25-0.088-1.8-0.263s-1.024-0.438-1.425-0.787c-0.4-0.351-0.711-0.785-0.93-1.306c-0.221-0.52-0.33-1.125-0.33-1.814
				c0-0.391,0.064-0.777,0.195-1.163c0.129-0.385,0.342-0.752,0.637-1.103c0.295-0.35,0.678-0.68,1.147-0.989
				c0.47-0.311,1.048-0.58,1.732-0.811c0.685-0.229,1.482-0.417,2.393-0.563c0.91-0.145,1.95-0.232,3.12-0.263v-0.899
				c0-1.03-0.221-1.793-0.66-2.288s-1.074-0.742-1.904-0.742c-0.601,0-1.098,0.07-1.493,0.21c-0.396,0.141-0.742,0.298-1.042,0.473
				c-0.301,0.175-0.572,0.332-0.818,0.473c-0.244,0.14-0.518,0.21-0.816,0.21c-0.261,0-0.48-0.067-0.66-0.203
				c-0.181-0.135-0.326-0.292-0.436-0.472L84.625,94.221z M93.115,100.896c-1.07,0.051-1.971,0.143-2.7,0.277
				c-0.729,0.136-1.315,0.308-1.755,0.518s-0.755,0.455-0.945,0.735c-0.189,0.28-0.285,0.585-0.285,0.915
				c0,0.65,0.193,1.115,0.578,1.395c0.385,0.28,0.887,0.421,1.508,0.421c0.76,0,1.417-0.138,1.973-0.413
				c0.555-0.274,1.097-0.692,1.627-1.252V100.896z"/>
			<path fill="#FF2455" d="M103.705,94.746c0.48-0.92,1.05-1.643,1.71-2.168c0.659-0.524,1.44-0.787,2.34-0.787
				c0.71,0,1.28,0.155,1.71,0.465l-0.24,2.775c-0.05,0.18-0.122,0.307-0.217,0.382c-0.096,0.075-0.223,0.112-0.383,0.112
				c-0.15,0-0.373-0.024-0.668-0.074s-0.582-0.075-0.862-0.075c-0.41,0-0.774,0.06-1.095,0.18s-0.607,0.293-0.863,0.518
				c-0.254,0.225-0.479,0.498-0.674,0.817c-0.195,0.32-0.378,0.686-0.548,1.095v9.48h-3.705v-15.39h2.175
				c0.38,0,0.645,0.067,0.795,0.202s0.25,0.378,0.301,0.728L103.705,94.746z"/>
			<path fill="#FF2455" d="M122.469,109.476v2.4h-11.819v-2.4H122.469z"/>
			<path fill="#FF2455" d="M138.759,85.176v22.29h-2.265c-0.49,0-0.801-0.225-0.93-0.675l-0.315-1.485
				c-0.62,0.71-1.333,1.285-2.138,1.726c-0.805,0.439-1.742,0.659-2.813,0.659c-0.84,0-1.609-0.175-2.311-0.524
				c-0.699-0.351-1.302-0.857-1.807-1.522c-0.506-0.665-0.895-1.487-1.17-2.468c-0.275-0.979-0.412-2.1-0.412-3.36
				c0-1.14,0.154-2.199,0.465-3.18c0.31-0.979,0.754-1.83,1.334-2.55s1.275-1.282,2.086-1.688c0.81-0.405,1.719-0.607,2.729-0.607
				c0.86,0,1.595,0.135,2.205,0.405c0.61,0.27,1.155,0.635,1.636,1.095v-8.115H138.759z M135.055,96.006
				c-0.421-0.51-0.879-0.87-1.373-1.08c-0.495-0.21-1.027-0.315-1.598-0.315c-0.561,0-1.064,0.105-1.516,0.315
				c-0.449,0.21-0.834,0.527-1.154,0.952c-0.32,0.426-0.564,0.966-0.734,1.62c-0.171,0.655-0.256,1.428-0.256,2.317
				c0,0.9,0.072,1.663,0.218,2.288c0.145,0.625,0.353,1.135,0.622,1.53c0.271,0.395,0.6,0.68,0.99,0.854s0.825,0.263,1.305,0.263
				c0.771,0,1.426-0.16,1.965-0.48c0.541-0.319,1.051-0.774,1.531-1.364V96.006z"/>
			<path fill="#FF2455" d="M145.27,100.235c0.06,0.791,0.199,1.473,0.42,2.048c0.219,0.575,0.51,1.05,0.869,1.425
				c0.36,0.375,0.787,0.655,1.283,0.84c0.494,0.186,1.042,0.278,1.643,0.278c0.6,0,1.117-0.07,1.552-0.21
				c0.435-0.141,0.815-0.295,1.14-0.466c0.325-0.17,0.61-0.324,0.855-0.465c0.245-0.14,0.482-0.21,0.713-0.21
				c0.31,0,0.539,0.115,0.689,0.346l1.065,1.35c-0.41,0.479-0.87,0.883-1.38,1.207c-0.51,0.325-1.043,0.585-1.598,0.78
				s-1.12,0.332-1.695,0.413c-0.575,0.079-1.133,0.119-1.672,0.119c-1.07,0-2.065-0.178-2.985-0.532
				c-0.921-0.354-1.72-0.88-2.399-1.575c-0.681-0.694-1.216-1.555-1.605-2.58c-0.391-1.024-0.585-2.212-0.585-3.563
				c0-1.05,0.17-2.037,0.51-2.962s0.827-1.73,1.462-2.415c0.636-0.685,1.41-1.228,2.326-1.628c0.914-0.399,1.947-0.6,3.097-0.6
				c0.97,0,1.865,0.155,2.685,0.465c0.82,0.311,1.525,0.763,2.115,1.357s1.053,1.325,1.388,2.19s0.503,1.853,0.503,2.962
				c0,0.561-0.061,0.938-0.18,1.133c-0.121,0.195-0.351,0.292-0.69,0.292H145.27z M152.334,98.001c0-0.48-0.067-0.933-0.203-1.357
				c-0.135-0.425-0.337-0.798-0.607-1.118c-0.27-0.319-0.612-0.572-1.027-0.757c-0.415-0.186-0.897-0.277-1.447-0.277
				c-1.07,0-1.912,0.305-2.527,0.915c-0.615,0.609-1.008,1.475-1.178,2.595H152.334z"/>
			<path fill="#FF2455" d="M169.509,109.476v2.4h-11.819v-2.4H169.509z"/>
			<path fill="#FF2455" d="M175.283,100.235c0.061,0.791,0.2,1.473,0.42,2.048c0.221,0.575,0.51,1.05,0.871,1.425
				c0.359,0.375,0.787,0.655,1.281,0.84c0.496,0.186,1.043,0.278,1.643,0.278c0.601,0,1.118-0.07,1.553-0.21
				c0.436-0.141,0.814-0.295,1.141-0.466c0.324-0.17,0.609-0.324,0.854-0.465c0.245-0.14,0.482-0.21,0.712-0.21
				c0.311,0,0.541,0.115,0.691,0.346l1.064,1.35c-0.41,0.479-0.87,0.883-1.381,1.207c-0.51,0.325-1.042,0.585-1.597,0.78
				c-0.556,0.195-1.12,0.332-1.695,0.413c-0.575,0.079-1.132,0.119-1.673,0.119c-1.07,0-2.064-0.178-2.984-0.532
				s-1.721-0.88-2.4-1.575c-0.68-0.694-1.215-1.555-1.604-2.58c-0.39-1.024-0.585-2.212-0.585-3.563c0-1.05,0.17-2.037,0.51-2.962
				s0.827-1.73,1.463-2.415c0.635-0.685,1.41-1.228,2.324-1.628c0.916-0.399,1.947-0.6,3.098-0.6c0.971,0,1.865,0.155,2.686,0.465
				c0.819,0.311,1.524,0.763,2.115,1.357c0.59,0.595,1.052,1.325,1.387,2.19s0.503,1.853,0.503,2.962
				c0,0.561-0.06,0.938-0.181,1.133c-0.119,0.195-0.35,0.292-0.689,0.292H175.283z M182.349,98.001c0-0.48-0.067-0.933-0.202-1.357
				s-0.338-0.798-0.607-1.118c-0.271-0.319-0.613-0.572-1.027-0.757c-0.416-0.186-0.898-0.277-1.448-0.277
				c-1.07,0-1.913,0.305-2.527,0.915c-0.615,0.609-1.008,1.475-1.178,2.595H182.349z"/>
			<path fill="#FF2455" d="M192.203,85.176v22.29h-3.705v-22.29H192.203z"/>
			<path fill="#FF2455" d="M200.258,87.591c0,0.32-0.064,0.62-0.195,0.9c-0.129,0.279-0.302,0.524-0.518,0.734
				c-0.215,0.21-0.467,0.378-0.757,0.503s-0.601,0.188-0.931,0.188c-0.319,0-0.621-0.063-0.906-0.188s-0.533-0.293-0.743-0.503
				s-0.378-0.455-0.503-0.734c-0.125-0.28-0.188-0.58-0.188-0.9c0-0.33,0.063-0.64,0.188-0.93s0.293-0.54,0.503-0.75
				s0.458-0.378,0.743-0.503s0.587-0.188,0.906-0.188c0.33,0,0.641,0.063,0.931,0.188s0.542,0.293,0.757,0.503
				c0.216,0.21,0.389,0.46,0.518,0.75C200.193,86.951,200.258,87.261,200.258,87.591z M199.748,92.076v15.39h-3.72v-15.39H199.748z"
				/>
		</g>
	</g>
	<g>
		
			<line fill="none" stroke="#337C98" stroke-width="10" stroke-linecap="round" stroke-linejoin="round" stroke-miterlimit="10" x1="178.846" y1="235.759" x2="178.627" y2="138.983"/>
		
			<polyline fill="none" stroke="#337C98" stroke-width="10" stroke-linecap="round" stroke-linejoin="round" stroke-miterlimit="10" points="
			190.184,229.433 178.865,241.599 167.455,229.523 		"/>
	</g>
	<g>
		<g>
			<path fill="#FFFFFF" d="M253.032,258.333c0.167-0.652,0.428-1.244,0.78-1.774c0.354-0.529,0.847-0.973,1.482-1.33
				c0.582-0.326,1.173-0.506,1.77-0.54s1.182,0.071,1.752,0.314c0.572,0.243,1.117,0.62,1.637,1.13
				c0.518,0.51,0.99,1.146,1.416,1.904c0.46,0.818,0.775,1.619,0.947,2.4c0.172,0.782,0.203,1.517,0.093,2.203
				s-0.356,1.309-0.739,1.868c-0.385,0.56-0.9,1.021-1.549,1.386c-0.314,0.176-0.617,0.305-0.907,0.386s-0.574,0.127-0.853,0.137
				c-0.279,0.011-0.553-0.014-0.824-0.074c-0.27-0.059-0.542-0.141-0.816-0.246l0.272,0.738c0.057,0.192,0.058,0.353,0.003,0.478
				s-0.164,0.234-0.327,0.326l-1.601,0.898l-8.193-14.598l2.427-1.362L253.032,258.333z M256.527,264.563
				c0.463,0.179,0.896,0.246,1.296,0.201c0.401-0.043,0.782-0.167,1.143-0.369c0.373-0.21,0.671-0.465,0.894-0.766
				c0.223-0.303,0.359-0.654,0.409-1.056c0.05-0.403,0.006-0.856-0.131-1.362c-0.137-0.504-0.378-1.064-0.724-1.68
				c-0.621-1.106-1.254-1.804-1.898-2.093s-1.309-0.24-1.997,0.146c-0.465,0.261-0.812,0.596-1.039,1.004
				c-0.228,0.407-0.39,0.893-0.488,1.455L256.527,264.563z"/>
			<path fill="#FFFFFF" d="M261.613,253.737c0.564-1.711,1.661-3.024,3.292-3.939c0.589-0.331,1.171-0.53,1.744-0.599
				c0.573-0.066,1.117-0.02,1.632,0.145c0.513,0.164,0.987,0.438,1.423,0.822c0.435,0.385,0.813,0.861,1.132,1.431l3.573,6.366
				l-1.101,0.617c-0.229,0.129-0.425,0.194-0.588,0.195c-0.163,0-0.34-0.083-0.529-0.252l-0.624-0.606
				c-0.127,0.373-0.263,0.714-0.407,1.022c-0.146,0.311-0.316,0.598-0.512,0.862s-0.425,0.513-0.688,0.741
				c-0.264,0.23-0.575,0.445-0.936,0.648c-0.426,0.238-0.852,0.401-1.275,0.489c-0.424,0.087-0.832,0.09-1.223,0.008
				s-0.754-0.253-1.088-0.513c-0.336-0.26-0.631-0.616-0.884-1.067c-0.144-0.255-0.243-0.533-0.3-0.833s-0.053-0.619,0.013-0.957
				c0.063-0.337,0.194-0.694,0.388-1.069c0.193-0.376,0.473-0.765,0.837-1.167s0.817-0.818,1.36-1.248s1.191-0.869,1.946-1.319
				l-0.331-0.589c-0.378-0.675-0.803-1.093-1.272-1.256c-0.47-0.162-0.978-0.091-1.521,0.214c-0.393,0.221-0.693,0.45-0.9,0.687
				s-0.377,0.468-0.51,0.692c-0.131,0.226-0.252,0.429-0.361,0.609c-0.109,0.183-0.262,0.328-0.458,0.438
				c-0.171,0.096-0.339,0.133-0.507,0.11s-0.32-0.073-0.458-0.149L261.613,253.737z M269.627,254.988
				c-0.683,0.427-1.238,0.817-1.666,1.175c-0.429,0.356-0.749,0.684-0.959,0.983c-0.212,0.299-0.328,0.576-0.35,0.828
				c-0.021,0.254,0.028,0.488,0.15,0.705c0.238,0.426,0.535,0.659,0.891,0.701s0.735-0.051,1.142-0.279
				c0.497-0.279,0.878-0.611,1.14-0.996c0.264-0.383,0.465-0.855,0.605-1.418L269.627,254.988z"/>
			<path fill="#FFFFFF" d="M279.999,255.033c-0.878,0.492-1.69,0.622-2.435,0.391c-0.746-0.231-1.363-0.783-1.853-1.653l-3.159-5.63
				l-1.031,0.579c-0.131,0.073-0.266,0.094-0.406,0.06c-0.139-0.033-0.256-0.136-0.352-0.306l-0.541-0.962l1.473-1.176l-1.033-3.037
				c-0.041-0.149-0.035-0.285,0.016-0.409s0.148-0.226,0.293-0.307l1.258-0.706l1.781,3.173l2.691-1.511l0.97,1.729l-2.691,1.511
				l3.065,5.461c0.177,0.315,0.391,0.518,0.645,0.608c0.252,0.09,0.514,0.06,0.781-0.091c0.15-0.084,0.268-0.173,0.35-0.266
				c0.08-0.094,0.148-0.181,0.201-0.263c0.053-0.081,0.099-0.156,0.137-0.226c0.039-0.069,0.089-0.12,0.147-0.153
				c0.072-0.04,0.141-0.056,0.206-0.046c0.066,0.012,0.146,0.037,0.239,0.08l1.389,0.771c-0.188,0.493-0.47,0.944-0.844,1.352
				C280.922,254.415,280.49,254.757,279.999,255.033z"/>
			<path fill="#FFFFFF" d="M282.99,246.921c0.33,0.496,0.672,0.891,1.027,1.187s0.72,0.5,1.094,0.613
				c0.373,0.113,0.756,0.14,1.148,0.079s0.785-0.201,1.178-0.422s0.706-0.456,0.939-0.708c0.232-0.251,0.426-0.492,0.576-0.724
				c0.149-0.231,0.279-0.437,0.389-0.619c0.109-0.181,0.238-0.314,0.39-0.398c0.202-0.114,0.396-0.124,0.578-0.028l1.194,0.492
				c-0.093,0.466-0.246,0.898-0.461,1.299c-0.214,0.4-0.467,0.766-0.759,1.098c-0.292,0.331-0.612,0.629-0.959,0.894
				c-0.347,0.263-0.697,0.494-1.052,0.692c-0.7,0.394-1.417,0.643-2.149,0.749c-0.733,0.106-1.45,0.056-2.151-0.149
				c-0.7-0.205-1.367-0.571-2-1.1c-0.631-0.528-1.195-1.234-1.691-2.118c-0.386-0.688-0.638-1.396-0.754-2.127
				c-0.118-0.731-0.096-1.438,0.068-2.12c0.165-0.682,0.473-1.322,0.926-1.92c0.451-0.599,1.054-1.109,1.807-1.532
				c0.636-0.356,1.279-0.583,1.93-0.682c0.651-0.099,1.279-0.062,1.885,0.112c0.605,0.172,1.176,0.48,1.713,0.924
				c0.537,0.442,1.011,1.028,1.418,1.755c0.207,0.366,0.305,0.636,0.299,0.808c-0.008,0.172-0.121,0.32-0.344,0.445L282.99,246.921z
				 M286.795,242.86c-0.176-0.313-0.387-0.585-0.631-0.815c-0.244-0.227-0.514-0.397-0.809-0.508
				c-0.295-0.109-0.611-0.149-0.951-0.117c-0.34,0.03-0.69,0.147-1.051,0.35c-0.7,0.393-1.141,0.902-1.318,1.528
				c-0.18,0.626-0.117,1.335,0.182,2.132L286.795,242.86z"/>
			<path fill="#FFFFFF" d="M291.887,237.201c-0.024-0.779,0.084-1.462,0.322-2.049c0.24-0.586,0.654-1.045,1.244-1.375
				c0.465-0.262,0.895-0.369,1.29-0.324l0.862,1.905c0.033,0.137,0.033,0.247-0.002,0.331c-0.034,0.083-0.104,0.155-0.209,0.214
				c-0.098,0.055-0.252,0.12-0.465,0.196c-0.211,0.076-0.408,0.165-0.592,0.268c-0.269,0.15-0.485,0.324-0.65,0.521
				c-0.166,0.196-0.291,0.415-0.375,0.655c-0.084,0.241-0.132,0.503-0.142,0.784c-0.011,0.281,0.005,0.588,0.044,0.919l3.484,6.208
				l-2.427,1.361l-5.656-10.079l1.425-0.799c0.248-0.14,0.446-0.193,0.594-0.159c0.148,0.032,0.303,0.155,0.465,0.365
				L291.887,237.201z"/>
			<path fill="#FFFFFF" d="M297.145,228.088c0.117,0.209,0.186,0.43,0.203,0.661c0.018,0.23-0.006,0.455-0.068,0.671
				c-0.064,0.217-0.168,0.42-0.312,0.608s-0.324,0.343-0.54,0.464c-0.21,0.118-0.432,0.188-0.664,0.212
				c-0.232,0.022-0.455,0.003-0.671-0.057c-0.214-0.061-0.415-0.16-0.599-0.297c-0.185-0.138-0.336-0.312-0.453-0.521
				c-0.122-0.217-0.195-0.442-0.22-0.678c-0.024-0.236-0.007-0.462,0.054-0.676c0.061-0.215,0.16-0.416,0.301-0.602
				c0.141-0.188,0.316-0.34,0.525-0.457c0.217-0.121,0.443-0.194,0.679-0.219c0.235-0.025,0.462-0.008,0.681,0.051
				c0.218,0.058,0.423,0.158,0.615,0.301C296.867,227.692,297.023,227.871,297.145,228.088z M298.459,231.213l5.656,10.079
				l-2.436,1.367l-5.656-10.079L298.459,231.213z"/>
			<path fill="#FFFFFF" d="M301.487,231.359c0.563-1.71,1.661-3.023,3.292-3.938c0.589-0.331,1.17-0.53,1.744-0.599
				c0.573-0.067,1.117-0.02,1.631,0.145s0.988,0.438,1.424,0.822c0.436,0.384,0.813,0.86,1.133,1.431l3.572,6.366l-1.101,0.617
				c-0.229,0.129-0.425,0.193-0.589,0.195c-0.162,0-0.339-0.084-0.528-0.253l-0.624-0.605c-0.127,0.372-0.263,0.714-0.408,1.022
				c-0.145,0.31-0.315,0.598-0.51,0.862c-0.197,0.265-0.426,0.512-0.689,0.741c-0.263,0.229-0.574,0.445-0.935,0.648
				c-0.425,0.238-0.851,0.401-1.275,0.489c-0.425,0.087-0.833,0.09-1.223,0.008c-0.391-0.082-0.754-0.254-1.089-0.513
				c-0.334-0.26-0.629-0.616-0.883-1.067c-0.144-0.255-0.244-0.533-0.3-0.833c-0.056-0.301-0.052-0.619,0.013-0.957
				s0.193-0.694,0.388-1.07c0.192-0.376,0.473-0.765,0.837-1.166c0.363-0.403,0.816-0.818,1.359-1.248s1.191-0.87,1.947-1.319
				l-0.331-0.59c-0.378-0.674-0.803-1.092-1.272-1.255c-0.471-0.163-0.977-0.092-1.521,0.214c-0.394,0.22-0.693,0.449-0.9,0.687
				c-0.208,0.236-0.377,0.468-0.509,0.692c-0.133,0.226-0.254,0.429-0.362,0.609c-0.109,0.183-0.262,0.328-0.458,0.438
				c-0.17,0.096-0.34,0.132-0.507,0.109s-0.321-0.072-0.458-0.148L301.487,231.359z M309.501,232.611
				c-0.683,0.426-1.238,0.817-1.667,1.174c-0.428,0.357-0.748,0.685-0.959,0.984c-0.211,0.299-0.328,0.575-0.349,0.828
				c-0.021,0.254,0.028,0.488,0.149,0.705c0.239,0.426,0.536,0.658,0.891,0.701c0.355,0.042,0.736-0.051,1.143-0.279
				c0.497-0.279,0.878-0.611,1.14-0.996c0.263-0.383,0.464-0.855,0.605-1.418L309.501,232.611z"/>
		</g>
	</g>
	<g>
		<circle fill="#337C98" cx="184.552" cy="332.633" r="43.163"/>
	</g>
	<path fill="#337C98" d="M475.349,332.633c0,28.608-23.191,51.797-51.798,51.797c-28.604,0-51.792-23.188-51.792-51.797
		c0-28.605,23.188-51.795,51.792-51.795C452.157,280.838,475.349,304.027,475.349,332.633z"/>
	<g>
		<path fill="#FFFFFF" d="M415.612,339.043v2.084h-9.012v-2.084h3.3v-9.496c0-0.376,0.012-0.763,0.034-1.16l-2.343,1.96
			c-0.135,0.105-0.269,0.171-0.4,0.197c-0.131,0.026-0.255,0.028-0.371,0.006c-0.117-0.023-0.22-0.063-0.311-0.119
			c-0.09-0.056-0.157-0.118-0.202-0.186l-0.879-1.205l4.968-4.225h2.287v14.228H415.612z"/>
		<path fill="#FFFFFF" d="M429.523,332.982c0,1.42-0.151,2.653-0.455,3.7c-0.305,1.048-0.726,1.914-1.262,2.597
			c-0.537,0.684-1.172,1.192-1.904,1.526s-1.523,0.502-2.371,0.502c-0.85,0-1.636-0.168-2.36-0.502s-1.354-0.843-1.887-1.526
			c-0.533-0.683-0.95-1.549-1.251-2.597c-0.3-1.047-0.449-2.28-0.449-3.7c0-1.427,0.149-2.662,0.449-3.706
			c0.301-1.044,0.718-1.907,1.251-2.591s1.162-1.192,1.887-1.526s1.511-0.501,2.36-0.501c0.848,0,1.639,0.167,2.371,0.501
			s1.367,0.843,1.904,1.526c0.536,0.684,0.957,1.547,1.262,2.591C429.372,330.32,429.523,331.556,429.523,332.982z M426.651,332.982
			c0-1.179-0.087-2.155-0.259-2.929c-0.174-0.773-0.404-1.39-0.693-1.848s-0.621-0.779-0.996-0.963
			c-0.376-0.184-0.767-0.276-1.172-0.276c-0.398,0-0.783,0.093-1.154,0.276c-0.372,0.184-0.701,0.505-0.986,0.963
			s-0.512,1.074-0.682,1.848c-0.169,0.773-0.254,1.75-0.254,2.929s0.085,2.155,0.254,2.929c0.17,0.773,0.396,1.39,0.682,1.848
			s0.614,0.779,0.986,0.963c0.371,0.185,0.756,0.276,1.154,0.276c0.405,0,0.796-0.092,1.172-0.276
			c0.375-0.184,0.707-0.505,0.996-0.963s0.52-1.074,0.693-1.848C426.564,335.138,426.651,334.161,426.651,332.982z"/>
		<path fill="#FFFFFF" d="M442.591,332.982c0,1.42-0.151,2.653-0.456,3.7c-0.305,1.048-0.725,1.914-1.262,2.597
			c-0.537,0.684-1.172,1.192-1.904,1.526s-1.522,0.502-2.371,0.502s-1.635-0.168-2.359-0.502s-1.354-0.843-1.887-1.526
			c-0.533-0.683-0.951-1.549-1.251-2.597c-0.3-1.047-0.45-2.28-0.45-3.7c0-1.427,0.15-2.662,0.45-3.706s0.718-1.907,1.251-2.591
			s1.162-1.192,1.887-1.526s1.511-0.501,2.359-0.501s1.639,0.167,2.371,0.501s1.367,0.843,1.904,1.526s0.957,1.547,1.262,2.591
			S442.591,331.556,442.591,332.982z M439.719,332.982c0-1.179-0.087-2.155-0.26-2.929s-0.403-1.39-0.692-1.848
			c-0.29-0.458-0.622-0.779-0.997-0.963s-0.766-0.276-1.172-0.276c-0.398,0-0.783,0.093-1.154,0.276s-0.7,0.505-0.986,0.963
			c-0.285,0.458-0.512,1.074-0.681,1.848s-0.254,1.75-0.254,2.929s0.085,2.155,0.254,2.929s0.396,1.39,0.681,1.848
			c0.286,0.458,0.615,0.779,0.986,0.963c0.371,0.185,0.756,0.276,1.154,0.276c0.406,0,0.797-0.092,1.172-0.276
			c0.375-0.184,0.707-0.505,0.997-0.963c0.289-0.458,0.52-1.074,0.692-1.848S439.719,334.161,439.719,332.982z"/>
	</g>
	<g>
		
			<line fill="none" stroke="#337C98" stroke-width="10" stroke-linecap="round" stroke-linejoin="round" stroke-miterlimit="10" x1="336.209" y1="238.714" x2="259.179" y2="282.834"/>
		
			<polyline fill="none" stroke="#337C98" stroke-width="10" stroke-linecap="round" stroke-linejoin="round" stroke-miterlimit="10" points="
			325.11,231.975 341.274,235.813 336.407,251.698 		"/>
	</g>
	<g>
		<g>
			<path fill="#FFFFFF" d="M286.535,314.752c-0.078,0.118-0.16,0.2-0.244,0.247c-0.084,0.046-0.189,0.066-0.316,0.063
				c-0.137-0.005-0.279-0.046-0.431-0.126s-0.327-0.169-0.527-0.27c-0.2-0.1-0.428-0.191-0.685-0.274
				c-0.256-0.084-0.562-0.13-0.914-0.141c-0.549-0.017-0.981,0.086-1.301,0.309c-0.318,0.225-0.482,0.523-0.494,0.899
				c-0.008,0.247,0.066,0.458,0.223,0.632c0.156,0.173,0.365,0.328,0.628,0.463c0.263,0.137,0.562,0.26,0.896,0.372
				c0.335,0.111,0.676,0.233,1.021,0.364s0.685,0.278,1.018,0.443c0.333,0.163,0.63,0.368,0.888,0.612
				c0.26,0.244,0.465,0.534,0.617,0.869c0.15,0.336,0.219,0.736,0.205,1.202c-0.018,0.555-0.133,1.064-0.346,1.527
				s-0.521,0.859-0.921,1.188c-0.401,0.329-0.892,0.581-1.472,0.755c-0.58,0.175-1.246,0.25-1.996,0.228
				c-0.398-0.013-0.785-0.061-1.162-0.144s-0.738-0.193-1.083-0.332c-0.345-0.138-0.663-0.298-0.954-0.479
				c-0.291-0.183-0.547-0.378-0.766-0.588l0.674-1.038c0.087-0.125,0.188-0.22,0.303-0.284c0.114-0.063,0.258-0.094,0.431-0.088
				c0.173,0.005,0.334,0.059,0.485,0.161c0.15,0.103,0.326,0.214,0.525,0.332s0.434,0.231,0.705,0.337
				c0.271,0.106,0.616,0.166,1.037,0.179c0.33,0.01,0.615-0.021,0.854-0.092c0.239-0.072,0.438-0.17,0.596-0.292
				c0.156-0.123,0.273-0.268,0.351-0.435s0.118-0.341,0.123-0.521c0.009-0.271-0.065-0.493-0.222-0.672
				c-0.156-0.178-0.365-0.334-0.628-0.47s-0.563-0.26-0.901-0.371c-0.339-0.112-0.684-0.233-1.037-0.364s-0.697-0.283-1.034-0.455
				s-0.634-0.385-0.894-0.642c-0.259-0.255-0.463-0.566-0.613-0.932s-0.218-0.802-0.202-1.313c0.015-0.474,0.122-0.921,0.322-1.344
				c0.201-0.422,0.489-0.786,0.862-1.095c0.374-0.308,0.836-0.549,1.386-0.724c0.55-0.176,1.182-0.252,1.896-0.23
				c0.795,0.024,1.516,0.179,2.16,0.462c0.645,0.282,1.179,0.645,1.602,1.086L286.535,314.752z"/>
			<path fill="#FFFFFF" d="M289.134,314.189c1.366-1.175,2.983-1.734,4.853-1.678c0.676,0.021,1.276,0.15,1.803,0.388
				c0.525,0.238,0.967,0.56,1.322,0.966c0.355,0.405,0.621,0.884,0.795,1.438c0.176,0.554,0.253,1.157,0.232,1.81l-0.223,7.297
				l-1.262-0.038c-0.263-0.009-0.464-0.054-0.604-0.138c-0.141-0.083-0.248-0.246-0.324-0.488l-0.223-0.842
				c-0.3,0.254-0.592,0.477-0.876,0.666c-0.284,0.19-0.578,0.349-0.882,0.476c-0.305,0.126-0.629,0.22-0.973,0.28
				s-0.723,0.085-1.135,0.072c-0.488-0.015-0.937-0.095-1.346-0.238c-0.408-0.145-0.76-0.353-1.051-0.625
				c-0.293-0.271-0.516-0.605-0.668-1c-0.154-0.396-0.223-0.853-0.207-1.37c0.01-0.293,0.066-0.582,0.174-0.868
				c0.105-0.286,0.274-0.558,0.504-0.813s0.523-0.495,0.885-0.717c0.359-0.222,0.799-0.41,1.318-0.567s1.123-0.279,1.809-0.368
				c0.686-0.087,1.469-0.13,2.349-0.125l0.021-0.676c0.023-0.772-0.124-1.35-0.443-1.732c-0.318-0.382-0.789-0.582-1.412-0.601
				c-0.451-0.015-0.826,0.027-1.125,0.123c-0.301,0.096-0.564,0.207-0.794,0.331c-0.229,0.125-0.438,0.236-0.624,0.336
				c-0.188,0.1-0.394,0.146-0.619,0.139c-0.195-0.006-0.358-0.062-0.49-0.167c-0.133-0.105-0.238-0.228-0.316-0.365L289.134,314.189
				z M295.354,319.396c-0.805,0.013-1.482,0.062-2.033,0.146c-0.552,0.085-0.994,0.2-1.33,0.349
				c-0.334,0.147-0.576,0.324-0.726,0.53s-0.228,0.432-0.235,0.68c-0.015,0.488,0.119,0.842,0.401,1.062
				c0.282,0.219,0.657,0.336,1.122,0.35c0.57,0.018,1.067-0.07,1.49-0.265c0.424-0.193,0.84-0.495,1.251-0.903L295.354,319.396z"/>
			<path fill="#FFFFFF" d="M303.855,307.845l-0.514,16.731l-2.78-0.085l0.513-16.731L303.855,307.845z"/>
			<path fill="#FFFFFF" d="M316.668,308.237l-0.513,16.731l-1.7-0.052c-0.367-0.011-0.596-0.188-0.683-0.528l-0.202-1.121
				c-0.481,0.518-1.029,0.933-1.645,1.244c-0.614,0.313-1.322,0.456-2.125,0.432c-0.631-0.02-1.205-0.169-1.723-0.447
				c-0.518-0.279-0.959-0.674-1.322-1.186c-0.363-0.51-0.638-1.136-0.821-1.878s-0.261-1.586-0.231-2.531
				c0.025-0.856,0.166-1.648,0.421-2.376c0.256-0.729,0.609-1.357,1.062-1.884c0.451-0.527,0.986-0.935,1.604-1.22
				s1.305-0.416,2.063-0.393c0.646,0.02,1.194,0.138,1.646,0.354s0.854,0.504,1.202,0.859l0.187-6.091L316.668,308.237z
				 M313.638,316.281c-0.304-0.393-0.639-0.674-1.005-0.842c-0.367-0.17-0.764-0.261-1.192-0.274
				c-0.421-0.013-0.802,0.055-1.145,0.203c-0.343,0.146-0.64,0.376-0.89,0.688c-0.249,0.313-0.445,0.712-0.588,1.199
				c-0.143,0.488-0.225,1.066-0.244,1.734c-0.021,0.675,0.016,1.25,0.109,1.722c0.095,0.474,0.238,0.859,0.433,1.163
				c0.193,0.303,0.435,0.524,0.724,0.664c0.288,0.141,0.613,0.217,0.973,0.228c0.578,0.018,1.074-0.088,1.486-0.315
				c0.413-0.228,0.807-0.558,1.18-0.99L313.638,316.281z"/>
			<path fill="#FFFFFF" d="M324.373,313.477c0.856,0.026,1.631,0.189,2.324,0.488c0.693,0.3,1.281,0.713,1.766,1.238
				c0.482,0.525,0.849,1.161,1.097,1.904c0.247,0.744,0.357,1.57,0.329,2.479c-0.027,0.916-0.188,1.738-0.48,2.464
				c-0.293,0.729-0.697,1.344-1.212,1.847c-0.516,0.501-1.128,0.881-1.838,1.137c-0.712,0.257-1.493,0.372-2.35,0.346
				c-0.862-0.026-1.644-0.189-2.341-0.489c-0.697-0.299-1.287-0.716-1.77-1.247c-0.484-0.534-0.852-1.173-1.103-1.918
				c-0.252-0.742-0.362-1.573-0.335-2.489c0.027-0.908,0.189-1.726,0.486-2.453c0.297-0.727,0.701-1.339,1.217-1.833
				c0.516-0.495,1.129-0.871,1.844-1.128C322.722,313.565,323.511,313.45,324.373,313.477z M324.074,323.239
				c0.961,0.029,1.682-0.271,2.164-0.903c0.48-0.631,0.74-1.569,0.779-2.815c0.037-1.246-0.164-2.203-0.605-2.87
				c-0.441-0.668-1.143-1.016-2.104-1.045c-0.977-0.03-1.709,0.276-2.198,0.919s-0.753,1.583-0.79,2.821
				c-0.038,1.238,0.168,2.189,0.616,2.854C322.386,322.863,323.099,323.209,324.074,323.239z"/>
		</g>
	</g>
	<g>
		<path fill="#337C98" d="M452.53,207.618c0,28.607-23.191,51.797-51.799,51.797c-28.603,0-51.792-23.189-51.792-51.797
			c0-28.605,23.189-51.796,51.792-51.796C429.339,155.822,452.53,179.013,452.53,207.618z"/>
	</g>
	<g>
		<path fill="#FFFFFF" d="M399.969,198.611v1.205c0,0.361-0.037,0.652-0.112,0.873c-0.075,0.222-0.15,0.408-0.226,0.558
			l-6.173,12.707c-0.128,0.263-0.308,0.486-0.54,0.67c-0.233,0.185-0.545,0.276-0.936,0.276h-2.017l6.298-12.447
			c0.143-0.256,0.283-0.49,0.422-0.704s0.295-0.419,0.467-0.614h-7.795c-0.172,0-0.322-0.063-0.45-0.191s-0.191-0.277-0.191-0.45
			v-1.882H399.969z"/>
		<path fill="#FFFFFF" d="M413.238,206.756c0,1.42-0.151,2.653-0.455,3.7c-0.305,1.048-0.726,1.914-1.262,2.597
			c-0.537,0.684-1.172,1.192-1.904,1.526s-1.523,0.502-2.371,0.502c-0.85,0-1.636-0.168-2.36-0.502s-1.354-0.843-1.887-1.526
			c-0.533-0.683-0.95-1.549-1.251-2.597c-0.3-1.047-0.449-2.28-0.449-3.7c0-1.427,0.149-2.662,0.449-3.706
			c0.301-1.044,0.718-1.907,1.251-2.591s1.162-1.192,1.887-1.526s1.511-0.501,2.36-0.501c0.848,0,1.639,0.167,2.371,0.501
			s1.367,0.843,1.904,1.526c0.536,0.684,0.957,1.547,1.262,2.591C413.087,204.094,413.238,205.329,413.238,206.756z
			 M410.366,206.756c0-1.179-0.087-2.155-0.259-2.929c-0.174-0.773-0.404-1.39-0.693-1.848s-0.621-0.779-0.996-0.963
			c-0.376-0.184-0.767-0.276-1.172-0.276c-0.398,0-0.783,0.093-1.154,0.276c-0.372,0.184-0.701,0.505-0.986,0.963
			s-0.512,1.074-0.682,1.848c-0.169,0.773-0.254,1.75-0.254,2.929s0.085,2.155,0.254,2.929c0.17,0.773,0.396,1.39,0.682,1.848
			s0.614,0.779,0.986,0.963c0.371,0.185,0.756,0.276,1.154,0.276c0.405,0,0.796-0.092,1.172-0.276
			c0.375-0.184,0.707-0.505,0.996-0.963s0.52-1.074,0.693-1.848C410.279,208.911,410.366,207.935,410.366,206.756z"/>
	</g>
	<g>
		
			<line fill="none" stroke="#337C98" stroke-width="10" stroke-linecap="round" stroke-linejoin="round" stroke-miterlimit="10" x1="355.563" y1="336.151" x2="258.787" y2="335.933"/>
		
			<polyline fill="none" stroke="#337C98" stroke-width="10" stroke-linecap="round" stroke-linejoin="round" stroke-miterlimit="10" points="
			349.236,347.489 361.402,336.171 349.327,324.761 		"/>
	</g>
	<g>
		<circle fill="#337C98" cx="398.554" cy="461.633" r="51.795"/>
	</g>
	<g>
		<g>
			<path fill="#FFFFFF" d="M358.549,456.624v2.448l-0.188,1.326c-0.045,0.249-0.119,0.44-0.221,0.573
				c-0.102,0.134-0.271,0.2-0.51,0.2c-0.21,0-0.371-0.066-0.484-0.2c-0.113-0.133-0.193-0.324-0.238-0.573l-0.188-1.326v-2.448
				H358.549z M361.676,456.624v2.448l-0.187,1.326c-0.046,0.249-0.118,0.44-0.221,0.573c-0.103,0.134-0.272,0.2-0.511,0.2
				c-0.209,0-0.371-0.066-0.484-0.2c-0.113-0.133-0.192-0.324-0.237-0.573l-0.187-1.326v-2.448H361.676z"/>
			<path fill="#FFFFFF" d="M374.29,456.624v12.291h-2.295v-5.372h-5.771v5.372h-2.295v-12.291h2.295v5.287h5.771v-5.287H374.29z"/>
			<path fill="#FFFFFF" d="M384.049,460.194v8.721h-1.283c-0.278,0-0.454-0.128-0.527-0.383l-0.145-0.696
				c-0.357,0.362-0.751,0.655-1.182,0.879c-0.431,0.225-0.938,0.336-1.521,0.336c-0.477,0-0.896-0.08-1.262-0.242
				c-0.366-0.161-0.674-0.39-0.923-0.684c-0.249-0.295-0.438-0.645-0.565-1.05s-0.191-0.852-0.191-1.339v-5.542h2.1v5.542
				c0,0.532,0.123,0.944,0.37,1.236s0.616,0.438,1.108,0.438c0.363,0,0.703-0.08,1.021-0.242c0.317-0.161,0.618-0.384,0.901-0.667
				v-6.307H384.049z"/>
			<path fill="#FFFFFF" d="M386.123,468.915v-8.721h1.283c0.271,0,0.45,0.127,0.535,0.382l0.137,0.646
				c0.152-0.17,0.313-0.326,0.479-0.468s0.346-0.264,0.536-0.365c0.189-0.103,0.393-0.183,0.611-0.242s0.457-0.09,0.719-0.09
				c0.549,0,1.001,0.149,1.355,0.446c0.354,0.298,0.619,0.693,0.795,1.187c0.136-0.289,0.306-0.537,0.51-0.744
				s0.428-0.375,0.672-0.506c0.243-0.13,0.502-0.227,0.777-0.289s0.551-0.094,0.828-0.094c0.482,0,0.91,0.074,1.284,0.222
				s0.688,0.362,0.943,0.646s0.449,0.629,0.583,1.037c0.133,0.408,0.199,0.876,0.199,1.402v5.551h-2.1v-5.551
				c0-0.555-0.122-0.973-0.365-1.254c-0.244-0.28-0.602-0.42-1.071-0.42c-0.216,0-0.415,0.036-0.599,0.11
				c-0.186,0.073-0.346,0.18-0.485,0.318c-0.139,0.139-0.247,0.313-0.327,0.522c-0.079,0.21-0.119,0.451-0.119,0.723v5.551h-2.107
				v-5.551c0-0.583-0.118-1.008-0.354-1.274c-0.234-0.267-0.579-0.399-1.032-0.399c-0.306,0-0.591,0.075-0.854,0.225
				c-0.264,0.15-0.508,0.355-0.734,0.616v6.384H386.123z"/>
			<path fill="#FFFFFF" d="M400.156,461.409c1.002-0.918,2.209-1.377,3.621-1.377c0.51,0,0.965,0.084,1.367,0.251
				s0.743,0.399,1.021,0.697c0.278,0.297,0.489,0.653,0.634,1.066c0.145,0.414,0.217,0.867,0.217,1.36v5.508h-0.952
				c-0.198,0-0.352-0.029-0.459-0.089c-0.108-0.06-0.192-0.181-0.255-0.361l-0.188-0.629c-0.221,0.198-0.436,0.372-0.646,0.522
				c-0.209,0.15-0.428,0.276-0.654,0.378c-0.227,0.103-0.469,0.18-0.727,0.234c-0.258,0.054-0.543,0.08-0.854,0.08
				c-0.369,0-0.709-0.05-1.021-0.148c-0.312-0.1-0.581-0.248-0.808-0.446s-0.402-0.444-0.527-0.739
				c-0.124-0.295-0.187-0.638-0.187-1.028c0-0.222,0.036-0.441,0.11-0.659s0.194-0.427,0.361-0.625s0.384-0.385,0.65-0.561
				c0.266-0.176,0.594-0.329,0.981-0.459c0.388-0.131,0.841-0.236,1.356-0.319c0.516-0.082,1.104-0.132,1.768-0.148v-0.51
				c0-0.584-0.125-1.016-0.374-1.297c-0.249-0.28-0.609-0.42-1.079-0.42c-0.34,0-0.623,0.039-0.846,0.118
				c-0.225,0.08-0.422,0.169-0.592,0.269c-0.17,0.099-0.324,0.188-0.463,0.268s-0.293,0.119-0.463,0.119
				c-0.147,0-0.271-0.039-0.374-0.115s-0.185-0.166-0.247-0.268L400.156,461.409z M404.967,465.192
				c-0.606,0.028-1.117,0.08-1.53,0.157c-0.413,0.076-0.745,0.174-0.994,0.293s-0.429,0.258-0.536,0.416
				c-0.107,0.159-0.161,0.332-0.161,0.519c0,0.369,0.109,0.632,0.327,0.791c0.219,0.158,0.503,0.238,0.854,0.238
				c0.431,0,0.804-0.078,1.118-0.234c0.314-0.155,0.621-0.393,0.922-0.71V465.192z"/>
			<path fill="#FFFFFF" d="M410.951,461.265c0.176-0.175,0.361-0.338,0.557-0.488s0.402-0.277,0.62-0.383
				c0.218-0.104,0.452-0.187,0.701-0.246s0.521-0.09,0.815-0.09c0.477,0,0.898,0.081,1.268,0.242
				c0.367,0.162,0.676,0.389,0.922,0.681s0.434,0.641,0.561,1.045c0.128,0.405,0.191,0.852,0.191,1.339v5.551h-2.1v-5.551
				c0-0.532-0.121-0.944-0.365-1.236s-0.615-0.438-1.113-0.438c-0.363,0-0.703,0.082-1.02,0.246
				c-0.318,0.164-0.618,0.389-0.901,0.672v6.307h-2.1v-8.721h1.283c0.272,0,0.45,0.127,0.536,0.382L410.951,461.265z"/>
			<path fill="#FFFFFF" d="M422.434,460.058c0.646,0,1.234,0.105,1.764,0.314c0.53,0.21,0.984,0.508,1.36,0.893
				c0.377,0.386,0.667,0.856,0.872,1.411c0.203,0.556,0.305,1.176,0.305,1.861c0,0.691-0.102,1.315-0.305,1.87
				c-0.205,0.556-0.495,1.029-0.872,1.42c-0.376,0.391-0.83,0.691-1.36,0.901c-0.529,0.209-1.117,0.314-1.764,0.314
				c-0.651,0-1.244-0.105-1.775-0.314c-0.533-0.21-0.988-0.511-1.365-0.901s-0.668-0.864-0.875-1.42
				c-0.207-0.555-0.311-1.179-0.311-1.87c0-0.686,0.104-1.306,0.311-1.861c0.207-0.555,0.498-1.025,0.875-1.411
				c0.377-0.385,0.832-0.683,1.365-0.893C421.189,460.163,421.782,460.058,422.434,460.058z M422.434,467.428
				c0.726,0,1.263-0.244,1.611-0.731s0.522-1.201,0.522-2.142s-0.174-1.657-0.522-2.15s-0.886-0.74-1.611-0.74
				c-0.736,0-1.281,0.248-1.636,0.744s-0.531,1.211-0.531,2.146c0,0.935,0.177,1.647,0.531,2.138S421.697,467.428,422.434,467.428z"
				/>
			<path fill="#FFFFFF" d="M430.807,457.652c0,0.182-0.037,0.352-0.111,0.51c-0.073,0.159-0.171,0.298-0.293,0.417
				c-0.121,0.119-0.265,0.214-0.43,0.285c-0.164,0.07-0.34,0.105-0.526,0.105c-0.182,0-0.353-0.035-0.515-0.105
				c-0.161-0.071-0.301-0.166-0.42-0.285s-0.215-0.258-0.285-0.417c-0.07-0.158-0.106-0.328-0.106-0.51
				c0-0.187,0.036-0.362,0.106-0.526c0.07-0.165,0.166-0.307,0.285-0.426s0.259-0.214,0.42-0.284
				c0.162-0.071,0.333-0.106,0.515-0.106c0.187,0,0.362,0.035,0.526,0.106c0.165,0.07,0.309,0.165,0.43,0.284
				c0.122,0.119,0.22,0.261,0.293,0.426C430.77,457.29,430.807,457.466,430.807,457.652z M430.518,460.194v8.721h-2.108v-8.721
				H430.518z"/>
			<path fill="#FFFFFF" d="M440.232,456.284v12.631h-1.283c-0.277,0-0.453-0.128-0.527-0.383l-0.178-0.841
				c-0.352,0.402-0.756,0.728-1.212,0.978c-0.456,0.249-0.987,0.374-1.594,0.374c-0.476,0-0.912-0.1-1.31-0.298
				c-0.396-0.198-0.737-0.486-1.023-0.863c-0.286-0.376-0.508-0.843-0.663-1.397c-0.155-0.556-0.233-1.19-0.233-1.904
				c0-0.646,0.088-1.247,0.264-1.802c0.175-0.556,0.428-1.037,0.756-1.445s0.723-0.727,1.182-0.956s0.975-0.345,1.547-0.345
				c0.487,0,0.904,0.077,1.25,0.229c0.346,0.153,0.654,0.36,0.926,0.621v-4.599H440.232z M438.133,462.421
				c-0.238-0.289-0.497-0.493-0.777-0.612c-0.281-0.118-0.582-0.178-0.905-0.178c-0.317,0-0.604,0.06-0.858,0.178
				c-0.256,0.119-0.474,0.3-0.654,0.54c-0.182,0.241-0.32,0.547-0.417,0.918s-0.145,0.81-0.145,1.313
				c0,0.51,0.041,0.942,0.124,1.296c0.082,0.354,0.199,0.644,0.352,0.867c0.153,0.224,0.34,0.386,0.562,0.484
				c0.222,0.1,0.468,0.149,0.739,0.149c0.437,0,0.808-0.091,1.113-0.272c0.307-0.182,0.596-0.439,0.867-0.773V462.421z"/>
			<path fill="#FFFFFF" d="M394.129,487.743v1.572h-6.8v-1.572h2.49v-7.166c0-0.283,0.009-0.575,0.026-0.875l-1.769,1.479
				c-0.103,0.08-0.202,0.129-0.302,0.149c-0.1,0.02-0.193,0.021-0.281,0.004s-0.165-0.047-0.232-0.089
				c-0.068-0.043-0.119-0.09-0.154-0.141l-0.662-0.909l3.748-3.188h1.726v10.735H394.129z"/>
			<path fill="#FFFFFF" d="M404.627,483.17c0,1.071-0.115,2.002-0.345,2.792c-0.229,0.791-0.547,1.444-0.952,1.96
				s-0.884,0.899-1.437,1.151c-0.552,0.252-1.149,0.378-1.789,0.378c-0.641,0-1.233-0.126-1.78-0.378s-1.021-0.636-1.424-1.151
				s-0.717-1.169-0.943-1.96c-0.228-0.79-0.341-1.721-0.341-2.792c0-1.076,0.113-2.009,0.341-2.797
				c0.227-0.787,0.541-1.438,0.943-1.955c0.402-0.515,0.877-0.899,1.424-1.151s1.14-0.378,1.78-0.378
				c0.64,0,1.237,0.126,1.789,0.378c0.553,0.252,1.031,0.637,1.437,1.151c0.405,0.517,0.723,1.168,0.952,1.955
				C404.512,481.161,404.627,482.094,404.627,483.17z M402.459,483.17c0-0.89-0.065-1.626-0.195-2.21
				c-0.131-0.584-0.305-1.048-0.523-1.394c-0.218-0.346-0.469-0.588-0.752-0.728c-0.283-0.139-0.578-0.208-0.884-0.208
				c-0.3,0-0.591,0.069-0.871,0.208c-0.28,0.14-0.528,0.382-0.744,0.728s-0.387,0.81-0.515,1.394
				c-0.127,0.584-0.191,1.32-0.191,2.21s0.064,1.626,0.191,2.21c0.128,0.584,0.299,1.049,0.515,1.395s0.464,0.588,0.744,0.727
				s0.571,0.208,0.871,0.208c0.306,0,0.601-0.069,0.884-0.208s0.534-0.381,0.752-0.727c0.219-0.346,0.393-0.811,0.523-1.395
				C402.394,484.796,402.459,484.06,402.459,483.17z"/>
			<path fill="#FFFFFF" d="M407.763,477.024v2.448l-0.187,1.326c-0.046,0.249-0.119,0.44-0.221,0.573
				c-0.103,0.134-0.272,0.2-0.511,0.2c-0.21,0-0.371-0.066-0.484-0.2c-0.113-0.133-0.192-0.324-0.238-0.573l-0.187-1.326v-2.448
				H407.763z M410.891,477.024v2.448l-0.188,1.326c-0.045,0.249-0.118,0.44-0.221,0.573c-0.102,0.134-0.271,0.2-0.51,0.2
				c-0.209,0-0.371-0.066-0.484-0.2c-0.113-0.133-0.193-0.324-0.238-0.573l-0.187-1.326v-2.448H410.891z"/>
		</g>
	</g>
	<g>
		<g>
			<path fill="#FFFFFF" d="M240.013,355.868c-0.093,0.053-0.177,0.081-0.249,0.083c-0.072,0.003-0.15-0.02-0.235-0.065
				c-0.09-0.049-0.171-0.126-0.246-0.231s-0.163-0.226-0.263-0.361c-0.101-0.135-0.223-0.275-0.367-0.418
				c-0.145-0.145-0.334-0.279-0.567-0.407c-0.363-0.198-0.69-0.276-0.98-0.235c-0.291,0.042-0.504,0.188-0.64,0.436
				c-0.09,0.164-0.111,0.332-0.065,0.502c0.046,0.171,0.134,0.346,0.265,0.527c0.129,0.181,0.289,0.365,0.477,0.555
				c0.187,0.189,0.374,0.387,0.563,0.593c0.187,0.206,0.365,0.421,0.533,0.646c0.168,0.224,0.298,0.463,0.389,0.715
				c0.092,0.254,0.131,0.519,0.118,0.797c-0.013,0.276-0.103,0.568-0.271,0.877c-0.201,0.369-0.452,0.672-0.754,0.911
				c-0.301,0.239-0.643,0.4-1.025,0.485c-0.382,0.085-0.798,0.088-1.247,0.007c-0.45-0.081-0.924-0.257-1.421-0.529
				c-0.264-0.144-0.509-0.308-0.733-0.491c-0.226-0.186-0.432-0.382-0.616-0.594c-0.185-0.211-0.345-0.427-0.479-0.648
				s-0.239-0.44-0.315-0.656l0.809-0.469c0.101-0.055,0.201-0.084,0.3-0.088s0.206,0.025,0.319,0.088
				c0.115,0.063,0.205,0.154,0.272,0.273c0.066,0.12,0.146,0.255,0.239,0.402c0.095,0.148,0.214,0.305,0.361,0.467
				c0.145,0.165,0.358,0.322,0.637,0.475c0.219,0.119,0.421,0.196,0.605,0.229c0.186,0.034,0.353,0.036,0.5,0.008
				c0.148-0.029,0.276-0.087,0.385-0.173c0.108-0.087,0.195-0.189,0.261-0.309c0.098-0.179,0.124-0.355,0.079-0.527
				c-0.044-0.173-0.131-0.35-0.262-0.531c-0.131-0.181-0.29-0.366-0.48-0.557c-0.189-0.19-0.381-0.391-0.573-0.6
				c-0.192-0.208-0.373-0.427-0.541-0.657c-0.168-0.231-0.296-0.477-0.382-0.738c-0.088-0.26-0.119-0.539-0.096-0.836
				c0.022-0.297,0.127-0.615,0.312-0.953c0.171-0.313,0.396-0.577,0.675-0.793c0.279-0.216,0.598-0.363,0.954-0.443
				c0.356-0.079,0.75-0.084,1.18-0.015c0.43,0.07,0.881,0.234,1.354,0.492c0.527,0.288,0.96,0.638,1.298,1.048
				s0.573,0.836,0.706,1.277L240.013,355.868z"/>
			<path fill="#FFFFFF" d="M244.624,356.45l-4.179,7.654l-1.85-1.011l4.179-7.654L244.624,356.45z M246.096,354.357
				c-0.086,0.159-0.201,0.291-0.341,0.395c-0.141,0.104-0.293,0.18-0.457,0.226s-0.335,0.061-0.514,0.044
				c-0.178-0.017-0.349-0.07-0.513-0.159c-0.159-0.087-0.293-0.2-0.4-0.339c-0.108-0.141-0.186-0.291-0.233-0.452
				s-0.064-0.329-0.05-0.503c0.014-0.172,0.063-0.339,0.15-0.498c0.09-0.164,0.205-0.301,0.346-0.411
				c0.142-0.11,0.292-0.19,0.454-0.237s0.33-0.063,0.506-0.048c0.176,0.015,0.343,0.066,0.502,0.153
				c0.164,0.09,0.302,0.204,0.411,0.346c0.111,0.141,0.191,0.292,0.241,0.455s0.067,0.334,0.053,0.515
				C246.237,354.021,246.186,354.193,246.096,354.357z"/>
			<path fill="#FFFFFF" d="M250.36,361.518c-0.093,0.053-0.177,0.08-0.248,0.082c-0.073,0.004-0.151-0.019-0.236-0.064
				c-0.089-0.049-0.171-0.126-0.246-0.231s-0.163-0.226-0.263-0.362c-0.101-0.135-0.223-0.274-0.367-0.418s-0.334-0.279-0.566-0.406
				c-0.363-0.199-0.69-0.277-0.98-0.235c-0.291,0.042-0.505,0.187-0.641,0.436c-0.089,0.163-0.111,0.332-0.065,0.501
				c0.046,0.172,0.134,0.347,0.265,0.527c0.13,0.182,0.289,0.366,0.477,0.556c0.187,0.189,0.375,0.387,0.563,0.593
				c0.188,0.205,0.365,0.421,0.533,0.645c0.168,0.225,0.298,0.463,0.39,0.716c0.091,0.253,0.13,0.519,0.117,0.796
				s-0.103,0.569-0.271,0.878c-0.201,0.369-0.452,0.672-0.753,0.911c-0.302,0.238-0.644,0.4-1.025,0.485
				c-0.383,0.085-0.799,0.087-1.248,0.007c-0.45-0.082-0.924-0.258-1.421-0.529c-0.264-0.144-0.509-0.308-0.733-0.492
				c-0.226-0.185-0.431-0.381-0.616-0.593c-0.185-0.211-0.345-0.427-0.479-0.648s-0.239-0.44-0.315-0.656l0.809-0.47
				c0.101-0.054,0.201-0.084,0.3-0.088c0.099-0.003,0.206,0.025,0.32,0.088s0.205,0.154,0.271,0.274s0.146,0.255,0.24,0.402
				s0.213,0.304,0.36,0.467c0.146,0.165,0.358,0.322,0.637,0.474c0.219,0.12,0.421,0.197,0.605,0.23
				c0.186,0.033,0.353,0.035,0.5,0.006c0.148-0.028,0.277-0.086,0.385-0.172c0.109-0.087,0.195-0.189,0.261-0.309
				c0.098-0.18,0.124-0.355,0.079-0.527c-0.044-0.174-0.131-0.35-0.262-0.531c-0.13-0.181-0.29-0.367-0.479-0.557
				c-0.19-0.191-0.382-0.391-0.573-0.6c-0.193-0.209-0.374-0.428-0.542-0.658s-0.295-0.477-0.382-0.737
				c-0.088-0.26-0.119-0.539-0.096-0.836s0.127-0.615,0.312-0.953c0.171-0.313,0.396-0.577,0.676-0.794
				c0.278-0.215,0.597-0.362,0.954-0.442c0.356-0.079,0.75-0.085,1.18-0.015s0.88,0.234,1.353,0.492
				c0.527,0.288,0.96,0.637,1.298,1.047s0.573,0.836,0.707,1.277L250.36,361.518z"/>
			<path fill="#FFFFFF" d="M251.37,370.223c-0.667-0.363-1.075-0.83-1.226-1.4c-0.151-0.569-0.046-1.185,0.315-1.847l2.333-4.274
				l-0.783-0.428c-0.1-0.055-0.166-0.133-0.2-0.235s-0.017-0.219,0.055-0.349l0.399-0.73l1.341,0.47l1.528-1.877
				c0.078-0.085,0.168-0.137,0.268-0.154c0.1-0.015,0.203,0.006,0.313,0.065l0.955,0.521l-1.315,2.41l2.044,1.115l-0.717,1.313
				l-2.044-1.116l-2.265,4.148c-0.13,0.238-0.174,0.457-0.13,0.654c0.043,0.199,0.166,0.354,0.371,0.465
				c0.114,0.063,0.217,0.101,0.309,0.115c0.093,0.016,0.176,0.023,0.249,0.024s0.14,0.001,0.2-0.002
				c0.06-0.003,0.111,0.008,0.156,0.032c0.055,0.029,0.092,0.067,0.111,0.114c0.021,0.047,0.035,0.108,0.045,0.185l0.063,1.196
				c-0.391,0.077-0.791,0.079-1.202,0.002C252.135,370.566,251.743,370.426,251.37,370.223z"/>
			<path fill="#FFFFFF" d="M257.755,368.887c-0.185,0.408-0.3,0.786-0.347,1.133c-0.047,0.346-0.031,0.66,0.045,0.945
				c0.078,0.283,0.215,0.539,0.41,0.765c0.196,0.228,0.443,0.421,0.742,0.584c0.298,0.163,0.574,0.27,0.829,0.317
				c0.255,0.049,0.485,0.074,0.693,0.078s0.392,0.004,0.552,0.002c0.159-0.004,0.297,0.026,0.411,0.089
				c0.153,0.084,0.237,0.204,0.25,0.358l0.163,0.961c-0.335,0.127-0.673,0.202-1.015,0.226c-0.343,0.023-0.678,0.008-1.007-0.046
				c-0.328-0.054-0.646-0.139-0.955-0.255c-0.308-0.117-0.596-0.248-0.864-0.395c-0.532-0.29-0.979-0.649-1.34-1.075
				c-0.361-0.427-0.616-0.904-0.767-1.436c-0.148-0.53-0.182-1.104-0.098-1.719s0.311-1.259,0.677-1.932
				c0.285-0.521,0.638-0.967,1.059-1.334c0.42-0.367,0.88-0.636,1.383-0.805c0.501-0.168,1.034-0.228,1.598-0.178
				s1.132,0.23,1.704,0.543c0.482,0.263,0.886,0.583,1.209,0.959c0.324,0.378,0.552,0.795,0.684,1.251
				c0.132,0.455,0.164,0.944,0.096,1.466s-0.254,1.058-0.555,1.61c-0.152,0.278-0.285,0.45-0.397,0.514
				c-0.112,0.064-0.253,0.051-0.423-0.042L257.755,368.887z M261.876,369.693c0.13-0.239,0.22-0.482,0.269-0.73
				c0.048-0.248,0.048-0.488,0-0.721c-0.047-0.232-0.148-0.451-0.305-0.656c-0.156-0.204-0.371-0.381-0.645-0.53
				c-0.532-0.291-1.034-0.368-1.506-0.231s-0.901,0.46-1.29,0.971L261.876,369.693z"/>
			<path fill="#FFFFFF" d="M262.343,376.059l4.179-7.654l1.126,0.614c0.238,0.131,0.335,0.327,0.287,0.593l-0.19,0.633
				c0.216-0.076,0.432-0.137,0.646-0.182c0.215-0.044,0.43-0.065,0.646-0.063c0.216,0.001,0.433,0.028,0.652,0.081
				c0.221,0.052,0.445,0.141,0.674,0.266c0.482,0.263,0.808,0.61,0.977,1.041c0.168,0.431,0.211,0.904,0.129,1.422
				c0.258-0.188,0.525-0.325,0.804-0.408c0.278-0.084,0.556-0.125,0.832-0.123c0.276,0.003,0.55,0.042,0.821,0.119
				s0.528,0.182,0.772,0.314c0.423,0.231,0.763,0.502,1.021,0.811s0.431,0.647,0.519,1.018c0.088,0.371,0.093,0.768,0.015,1.189
				c-0.079,0.422-0.245,0.865-0.497,1.326l-2.66,4.873l-1.843-1.006l2.66-4.873c0.266-0.486,0.359-0.912,0.279-1.275
				c-0.079-0.362-0.325-0.656-0.738-0.881c-0.188-0.104-0.381-0.168-0.578-0.191s-0.391-0.008-0.579,0.048
				c-0.188,0.056-0.367,0.156-0.537,0.302c-0.17,0.146-0.32,0.339-0.45,0.577l-2.66,4.872l-1.851-1.01l2.66-4.873
				c0.279-0.512,0.379-0.94,0.301-1.287c-0.079-0.347-0.317-0.628-0.715-0.845c-0.269-0.147-0.555-0.218-0.857-0.213
				c-0.303,0.006-0.616,0.068-0.94,0.188l-3.059,5.604L262.343,376.059z"/>
			<path fill="#FFFFFF" d="M278.256,376.194c1.32-0.325,2.6-0.149,3.838,0.526c0.448,0.245,0.809,0.537,1.081,0.876
				c0.273,0.34,0.461,0.707,0.562,1.101c0.102,0.395,0.115,0.809,0.045,1.24c-0.072,0.433-0.226,0.865-0.462,1.298l-2.64,4.834
				l-0.835-0.456c-0.174-0.096-0.294-0.193-0.36-0.298c-0.066-0.104-0.082-0.251-0.051-0.439l0.137-0.642
				c-0.288,0.068-0.561,0.117-0.816,0.149c-0.256,0.031-0.509,0.038-0.756,0.018c-0.248-0.019-0.498-0.067-0.75-0.143
				c-0.252-0.076-0.515-0.189-0.788-0.339c-0.324-0.177-0.599-0.383-0.824-0.619s-0.392-0.496-0.495-0.778
				c-0.104-0.282-0.141-0.583-0.108-0.901s0.142-0.649,0.329-0.992c0.105-0.195,0.243-0.369,0.412-0.525s0.375-0.281,0.617-0.376
				c0.241-0.094,0.521-0.153,0.84-0.181c0.317-0.026,0.678-0.004,1.081,0.068c0.403,0.07,0.851,0.195,1.343,0.369
				c0.492,0.175,1.033,0.414,1.623,0.717l0.244-0.447c0.279-0.513,0.377-0.951,0.293-1.318c-0.084-0.365-0.333-0.66-0.746-0.885
				c-0.298-0.163-0.564-0.264-0.799-0.302c-0.235-0.037-0.45-0.054-0.647-0.048c-0.196,0.006-0.375,0.011-0.535,0.014
				c-0.159,0.002-0.313-0.036-0.463-0.118c-0.13-0.07-0.221-0.164-0.273-0.28c-0.054-0.115-0.082-0.234-0.088-0.353L278.256,376.194
				z M280.666,381.82c-0.546-0.266-1.019-0.465-1.418-0.596c-0.4-0.131-0.738-0.203-1.014-0.219
				c-0.275-0.015-0.499,0.021-0.669,0.109c-0.171,0.088-0.302,0.214-0.391,0.377c-0.177,0.324-0.207,0.607-0.092,0.852
				c0.116,0.243,0.327,0.449,0.636,0.618c0.378,0.206,0.742,0.316,1.093,0.33c0.351,0.015,0.735-0.047,1.15-0.181L280.666,381.82z"
				/>
			<path fill="#FFFFFF" d="M287.371,391.02l-0.651,1.194l-5.88-3.21l0.652-1.193L287.371,391.02z"/>
			<path fill="#FFFFFF" d="M297.003,384.89c0.567,0.31,1.032,0.684,1.397,1.121s0.62,0.917,0.766,1.435
				c0.146,0.52,0.176,1.072,0.09,1.656c-0.088,0.586-0.296,1.179-0.624,1.78c-0.331,0.607-0.72,1.106-1.164,1.495
				c-0.446,0.39-0.928,0.666-1.446,0.828c-0.518,0.163-1.06,0.21-1.625,0.14c-0.565-0.069-1.132-0.259-1.699-0.569
				c-0.572-0.313-1.041-0.688-1.408-1.127s-0.622-0.921-0.766-1.444s-0.173-1.079-0.088-1.666c0.084-0.586,0.293-1.183,0.624-1.79
				c0.328-0.602,0.716-1.097,1.164-1.485c0.447-0.388,0.929-0.661,1.444-0.819c0.515-0.156,1.057-0.2,1.625-0.129
				S296.431,384.577,297.003,384.89z M293.472,391.358c0.637,0.348,1.225,0.391,1.765,0.13c0.539-0.261,1.034-0.804,1.484-1.63
				c0.451-0.825,0.642-1.538,0.572-2.138c-0.07-0.6-0.423-1.074-1.06-1.422c-0.646-0.353-1.244-0.396-1.792-0.131
				c-0.549,0.267-1.047,0.809-1.495,1.63c-0.448,0.82-0.634,1.531-0.559,2.131C292.464,390.528,292.825,391.006,293.472,391.358z"/>
			<path fill="#FFFFFF" d="M303.299,389.837c0.506-0.183,1.018-0.273,1.535-0.275c0.518-0.001,1.044,0.144,1.581,0.438
				c0.418,0.228,0.753,0.523,1.003,0.886c0.251,0.363,0.411,0.779,0.482,1.246c0.07,0.468,0.041,0.982-0.087,1.542
				s-0.362,1.152-0.705,1.778c-0.313,0.573-0.679,1.061-1.099,1.464c-0.421,0.403-0.871,0.706-1.353,0.908s-0.979,0.292-1.495,0.272
				s-1.024-0.166-1.527-0.44c-0.428-0.233-0.757-0.499-0.988-0.797c-0.23-0.298-0.402-0.628-0.514-0.992L298.422,399l-1.842-1.006
				l5.543-10.154l1.126,0.615c0.238,0.13,0.335,0.327,0.287,0.592L303.299,389.837z M300.87,394.517
				c0.07,0.367,0.2,0.671,0.39,0.908c0.189,0.239,0.428,0.438,0.717,0.595c0.278,0.152,0.558,0.237,0.838,0.255
				c0.281,0.019,0.559-0.037,0.832-0.165c0.273-0.129,0.541-0.333,0.804-0.612c0.263-0.28,0.515-0.641,0.756-1.084
				c0.245-0.447,0.415-0.846,0.513-1.196s0.133-0.658,0.104-0.927c-0.028-0.267-0.114-0.497-0.257-0.692
				c-0.143-0.193-0.336-0.356-0.579-0.489c-0.384-0.209-0.753-0.307-1.11-0.292c-0.356,0.015-0.734,0.104-1.133,0.268
				L300.87,394.517z"/>
			<path fill="#FFFFFF" d="M309.799,397.299c-0.184,0.409-0.3,0.786-0.346,1.133c-0.048,0.346-0.032,0.66,0.045,0.945
				c0.077,0.283,0.214,0.539,0.41,0.766c0.195,0.227,0.443,0.421,0.741,0.584c0.299,0.162,0.575,0.269,0.83,0.316
				c0.254,0.049,0.484,0.075,0.693,0.078c0.207,0.005,0.391,0.005,0.551,0.002c0.16-0.004,0.297,0.026,0.411,0.089
				c0.154,0.084,0.238,0.204,0.25,0.358l0.163,0.961c-0.334,0.127-0.672,0.202-1.015,0.226c-0.342,0.023-0.677,0.008-1.006-0.045
				c-0.329-0.055-0.647-0.14-0.955-0.256c-0.309-0.117-0.596-0.247-0.865-0.395c-0.531-0.29-0.979-0.649-1.34-1.075
				s-0.615-0.904-0.766-1.436c-0.149-0.53-0.182-1.104-0.098-1.718c0.084-0.616,0.31-1.26,0.677-1.932
				c0.284-0.522,0.638-0.968,1.058-1.335s0.881-0.635,1.383-0.805c0.502-0.167,1.035-0.227,1.598-0.178
				c0.564,0.051,1.133,0.23,1.704,0.543c0.483,0.264,0.886,0.583,1.21,0.96c0.323,0.377,0.551,0.794,0.683,1.25
				c0.132,0.455,0.164,0.944,0.096,1.466s-0.253,1.059-0.555,1.61c-0.151,0.278-0.284,0.45-0.396,0.514
				c-0.112,0.064-0.254,0.051-0.423-0.042L309.799,397.299z M313.92,398.105c0.131-0.238,0.22-0.481,0.268-0.73
				c0.05-0.248,0.05-0.488,0.002-0.72c-0.047-0.233-0.149-0.451-0.306-0.657c-0.156-0.204-0.37-0.381-0.644-0.53
				c-0.533-0.29-1.035-0.368-1.506-0.231c-0.472,0.137-0.902,0.46-1.291,0.971L313.92,398.105z"/>
			<path fill="#FFFFFF" d="M319.579,399.093c0.489-0.327,0.968-0.531,1.439-0.613c0.47-0.082,0.93-0.001,1.378,0.243
				c0.353,0.193,0.594,0.425,0.725,0.696l-0.873,1.314c-0.074,0.076-0.146,0.12-0.213,0.132c-0.068,0.012-0.142-0.004-0.221-0.047
				c-0.074-0.041-0.179-0.115-0.312-0.22s-0.27-0.195-0.409-0.271c-0.204-0.112-0.401-0.182-0.593-0.209
				c-0.192-0.027-0.382-0.02-0.569,0.023c-0.188,0.043-0.375,0.117-0.559,0.224c-0.184,0.105-0.373,0.237-0.569,0.396l-2.574,4.715
				l-1.843-1.006l4.179-7.654l1.082,0.591c0.189,0.103,0.302,0.208,0.341,0.316c0.037,0.108,0.021,0.255-0.049,0.442
				L319.579,399.093z"/>
			<path fill="#FFFFFF" d="M323.273,400.771c1.32-0.325,2.6-0.149,3.838,0.526c0.447,0.244,0.807,0.537,1.081,0.876
				c0.272,0.339,0.46,0.706,0.561,1.101c0.102,0.395,0.116,0.809,0.045,1.24c-0.071,0.433-0.226,0.864-0.462,1.298l-2.639,4.834
				l-0.835-0.456c-0.175-0.096-0.295-0.194-0.36-0.298c-0.066-0.104-0.083-0.251-0.052-0.439l0.138-0.642
				c-0.289,0.068-0.561,0.117-0.817,0.148c-0.256,0.032-0.508,0.038-0.755,0.019c-0.248-0.019-0.499-0.067-0.751-0.143
				c-0.252-0.076-0.515-0.19-0.788-0.339c-0.323-0.177-0.598-0.383-0.824-0.619c-0.226-0.236-0.391-0.496-0.494-0.779
				c-0.104-0.282-0.141-0.582-0.108-0.9c0.032-0.319,0.141-0.649,0.328-0.992c0.106-0.195,0.243-0.37,0.413-0.526
				c0.168-0.155,0.375-0.281,0.616-0.375c0.241-0.095,0.521-0.153,0.839-0.181c0.318-0.026,0.68-0.005,1.082,0.067
				c0.403,0.071,0.851,0.195,1.343,0.37s1.033,0.413,1.623,0.717l0.244-0.447c0.28-0.513,0.378-0.951,0.294-1.318
				c-0.085-0.365-0.334-0.66-0.747-0.885c-0.298-0.163-0.564-0.265-0.799-0.303c-0.235-0.037-0.45-0.053-0.647-0.047
				c-0.195,0.005-0.375,0.01-0.535,0.013c-0.159,0.003-0.313-0.036-0.463-0.117c-0.129-0.07-0.22-0.164-0.272-0.28
				c-0.054-0.115-0.082-0.234-0.089-0.354L323.273,400.771z M325.683,406.396c-0.546-0.266-1.019-0.465-1.418-0.596
				s-0.737-0.204-1.013-0.219c-0.276-0.016-0.5,0.021-0.67,0.108c-0.171,0.088-0.301,0.214-0.391,0.378
				c-0.177,0.324-0.206,0.607-0.092,0.852c0.116,0.242,0.327,0.449,0.636,0.618c0.378,0.206,0.743,0.316,1.094,0.329
				c0.351,0.016,0.733-0.046,1.149-0.181L325.683,406.396z"/>
			<path fill="#FFFFFF" d="M335.046,415.749l-1.843-1.007l3.425-6.273l-3.551-1.938l-2.265,4.147
				c-0.131,0.239-0.174,0.457-0.13,0.655s0.167,0.353,0.371,0.464c0.114,0.063,0.218,0.102,0.31,0.116s0.175,0.023,0.248,0.024
				s0.141,0.001,0.2-0.002c0.06-0.004,0.112,0.007,0.156,0.031c0.056,0.03,0.092,0.068,0.112,0.115
				c0.02,0.046,0.034,0.107,0.045,0.184l0.063,1.197c-0.392,0.076-0.792,0.078-1.202,0.002c-0.411-0.076-0.803-0.216-1.176-0.42
				c-0.667-0.363-1.075-0.83-1.226-1.399c-0.151-0.569-0.046-1.186,0.315-1.847l2.334-4.274l-0.784-0.428
				c-0.099-0.055-0.165-0.134-0.2-0.235c-0.034-0.104-0.016-0.22,0.055-0.349l0.398-0.731l1.346,0.464l1.524-1.87
				c0.079-0.086,0.169-0.137,0.268-0.154c0.1-0.016,0.204,0.006,0.313,0.065l0.955,0.521l-1.315,2.409l5.394,2.944L335.046,415.749z
				 M340.779,406.009c-0.087,0.159-0.201,0.292-0.344,0.399c-0.142,0.105-0.295,0.182-0.458,0.229
				c-0.165,0.046-0.337,0.06-0.518,0.041c-0.181-0.018-0.353-0.071-0.517-0.161c-0.16-0.087-0.292-0.199-0.397-0.338
				c-0.105-0.138-0.182-0.287-0.229-0.448c-0.047-0.162-0.063-0.331-0.048-0.506c0.015-0.176,0.066-0.344,0.153-0.503
				c0.09-0.164,0.204-0.3,0.344-0.408c0.14-0.106,0.291-0.186,0.453-0.235c0.163-0.051,0.331-0.068,0.504-0.055
				c0.174,0.014,0.34,0.064,0.499,0.151c0.164,0.089,0.303,0.205,0.415,0.348c0.113,0.143,0.193,0.296,0.242,0.462
				c0.049,0.165,0.066,0.336,0.054,0.513S340.869,405.845,340.779,406.009z"/>
			<path fill="#FFFFFF" d="M348.005,412.889l-7.215,5.996l-1.671-0.912l1.142-9.313l1.522,0.831
				c0.139,0.076,0.236,0.172,0.293,0.286c0.058,0.115,0.073,0.23,0.049,0.346l-0.754,4.896c-0.051,0.282-0.109,0.554-0.174,0.815
				c-0.066,0.262-0.139,0.519-0.219,0.771c0.175-0.201,0.354-0.4,0.539-0.597c0.185-0.196,0.385-0.391,0.6-0.583l3.738-3.266
				c0.09-0.08,0.196-0.129,0.32-0.145c0.125-0.016,0.25,0.01,0.375,0.078L348.005,412.889z"/>
			<path fill="#FFFFFF" d="M352.196,415.021c0.567,0.31,1.032,0.684,1.397,1.121s0.62,0.916,0.766,1.435
				c0.146,0.52,0.176,1.071,0.09,1.656c-0.088,0.585-0.296,1.179-0.624,1.78c-0.331,0.607-0.72,1.105-1.164,1.494
				c-0.446,0.391-0.928,0.667-1.446,0.829c-0.518,0.163-1.06,0.21-1.625,0.14s-1.131-0.26-1.699-0.569
				c-0.571-0.313-1.041-0.688-1.408-1.127c-0.366-0.439-0.621-0.922-0.766-1.444c-0.144-0.523-0.173-1.08-0.088-1.666
				c0.084-0.586,0.293-1.184,0.624-1.79c0.328-0.603,0.716-1.097,1.164-1.485c0.447-0.388,0.929-0.661,1.444-0.819
				c0.516-0.157,1.058-0.2,1.625-0.13C351.055,414.518,351.625,414.709,352.196,415.021z M348.665,421.49
				c0.637,0.348,1.225,0.391,1.765,0.129c0.539-0.26,1.034-0.803,1.484-1.629c0.451-0.825,0.643-1.538,0.572-2.138
				c-0.07-0.601-0.423-1.074-1.06-1.422c-0.646-0.353-1.243-0.396-1.792-0.131c-0.549,0.267-1.047,0.809-1.495,1.63
				c-0.448,0.82-0.634,1.531-0.559,2.131C347.657,420.66,348.019,421.137,348.665,421.49z"/>
		</g>
	</g>
	<g>
		
			<line fill="none" stroke="#337C98" stroke-width="10" stroke-linecap="round" stroke-linejoin="round" stroke-miterlimit="10" x1="330.209" y1="438.095" x2="253.179" y2="393.975"/>
		
			<polyline fill="none" stroke="#337C98" stroke-width="10" stroke-linecap="round" stroke-linejoin="round" stroke-miterlimit="10" points="
			319.11,444.834 335.274,440.996 330.407,425.11 		"/>
	</g>
</g>
</svg>
